<?xml version="1.0" encoding="utf-8"?>
<!-- Generator: Adobe Illustrator 27.8.1, SVG Export Plug-In . SVG Version: 6.00 Build 0)  -->
<svg version="1.1" id="fd90b8a3-4437-4e53-9ed1-6a62608c98e9"
	 xmlns="http://www.w3.org/2000/svg" xmlns:xlink="http://www.w3.org/1999/xlink" x="0px" y="0px" viewBox="0 0 901.3 699.5"
	 style="enable-background:new 0 0 901.3 699.5;" xml:space="preserve">
<style type="text/css">
	.st0{fill:#FFFFFF;}
	.st1{fill:none;stroke:#003E90;stroke-width:1.7994;stroke-miterlimit:2.6131;}
	
		.st2{clip-path:url(#SVGID_00000108995711986707880300000008713439490314619566_);fill:none;stroke:#003E90;stroke-width:1.7995;stroke-miterlimit:2.6131;}
	.st3{fill-rule:evenodd;clip-rule:evenodd;fill:#003E90;}
	.st4{fill:none;stroke:#003E90;stroke-width:1.7993;stroke-miterlimit:2.6131;}
	.st5{fill:none;stroke:#003E90;stroke-width:1.7992;stroke-miterlimit:2.6131;}
</style>
<circle id="White_circle" class="st0" cx="450.6" cy="349.8" r="345"/>
<g>
	<path class="st1" d="M450.6,3.7C640.8,3.7,796,158.8,796,349S640.8,694.3,450.6,694.3S105.3,539.2,105.3,349
		C105.3,158.8,260.4,3.7,450.6,3.7L450.6,3.7z M450.6,76.7c150,0,272.3,122.3,272.3,272.3S600.6,621.3,450.6,621.3
		S178.3,499,178.3,349C178.4,199,300.7,76.7,450.6,76.7L450.6,76.7z"/>
	<g>
		<g>
			<g>
				<defs>
					<path id="SVGID_1_" d="M450.6,127c122.3,0,222,99.7,222,222s-99.7,222-222,222s-222-99.7-222-222
						C228.6,226.7,328.4,127,450.6,127L450.6,127z"/>
				</defs>
				<clipPath id="SVGID_00000177477073317710350470000009044709954224851129_">
					<use xlink:href="#SVGID_1_"  style="overflow:visible;"/>
				</clipPath>
				
					<polygon style="clip-path:url(#SVGID_00000177477073317710350470000009044709954224851129_);fill:none;stroke:#003E90;stroke-width:1.7995;stroke-miterlimit:2.6131;" points="
					221.8,325.3 684.1,325.3 684.1,376.7 221.8,376.7 				"/>
			</g>
		</g>
	</g>
	<path class="st1" d="M450.6,127c122.3,0,222,99.7,222,222s-99.7,222-222,222s-222-99.7-222-222C228.6,226.7,328.4,127,450.6,127
		L450.6,127z"/>
	<path class="st1" d="M273.5,505.8c8.5,0,15.5,7,15.5,15.5s-7,15.5-15.5,15.5s-15.5-7-15.5-15.5C258,512.7,265,505.8,273.5,505.8
		L273.5,505.8z M447.5,580c8.5,0,15.5,7,15.5,15.5s-7,15.5-15.5,15.5s-15.5-7-15.5-15.5S438.9,580,447.5,580L447.5,580z M624.7,509
		c8.5,0,15.5,7,15.5,15.5s-7,15.5-15.5,15.5s-15.5-7-15.5-15.5S616.1,509,624.7,509L624.7,509z M273.5,514.7c3.6,0,6.5,2.9,6.5,6.5
		s-2.9,6.5-6.5,6.5s-6.5-2.9-6.5-6.5S269.9,514.7,273.5,514.7L273.5,514.7z M447.5,589c3.6,0,6.5,2.9,6.5,6.5s-2.9,6.5-6.5,6.5
		s-6.5-2.9-6.5-6.5C440.9,591.9,443.9,589,447.5,589L447.5,589z M624.7,517.9c3.6,0,6.5,2.9,6.5,6.5s-2.9,6.5-6.5,6.5
		s-6.5-2.9-6.5-6.5S621.1,517.9,624.7,517.9L624.7,517.9z"/>
	<path class="st1" d="M208.2,371.7c12.5,0,22.7,10.2,22.7,22.7s-10.2,22.7-22.7,22.7s-22.7-10.2-22.7-22.7
		C185.5,381.9,195.7,371.7,208.2,371.7L208.2,371.7z M221.8,418c12.5,0,22.7,10.2,22.7,22.7s-10.2,22.7-22.7,22.7
		s-22.7-10.2-22.7-22.7S209.3,418,221.8,418L221.8,418z M243,462.1c12.5,0,22.7,10.2,22.7,22.7s-10.2,22.7-22.7,22.7
		s-22.7-10.2-22.7-22.7S230.5,462.1,243,462.1L243,462.1z M273.5,498.6c12.5,0,22.7,10.2,22.7,22.7c0,12.5-10.2,22.7-22.7,22.7
		s-22.7-10.2-22.7-22.7S261,498.6,273.5,498.6L273.5,498.6z M310.4,530c12.5,0,22.7,10.2,22.7,22.7s-10.2,22.7-22.7,22.7
		s-22.7-10.2-22.7-22.7S298,530,310.4,530L310.4,530z M352.5,553.8c12.5,0,22.7,10.2,22.7,22.7s-10.2,22.7-22.7,22.7
		s-22.7-10.2-22.7-22.7C329.8,563.9,340,553.8,352.5,553.8L352.5,553.8z M398.7,567.8c12.5,0,22.7,10.2,22.7,22.7
		s-10.2,22.7-22.7,22.7S376,602.9,376,590.4C376,578,386.2,567.8,398.7,567.8L398.7,567.8z M691.9,371.7
		c-12.5,0-22.7,10.2-22.7,22.7s10.2,22.7,22.7,22.7s22.7-10.2,22.7-22.7C714.5,381.9,704.3,371.7,691.9,371.7L691.9,371.7z
		 M677.3,418c-12.5,0-22.7,10.2-22.7,22.7s10.2,22.7,22.7,22.7s22.7-10.2,22.7-22.7S689.8,418,677.3,418L677.3,418z M654.1,462.1
		c-12.5,0-22.7,10.2-22.7,22.7s10.2,22.7,22.7,22.7s22.7-10.2,22.7-22.7S666.6,462.1,654.1,462.1L654.1,462.1z M624.7,501.8
		c-12.5,0-22.7,10.2-22.7,22.7s10.2,22.7,22.7,22.7s22.7-10.2,22.7-22.7C647.3,512,637.2,501.8,624.7,501.8L624.7,501.8z
		 M587.9,531.6c-12.5,0-22.7,10.2-22.7,22.7s10.2,22.7,22.7,22.7s22.7-10.2,22.7-22.7C610.5,541.8,600.4,531.6,587.9,531.6
		L587.9,531.6z M544.3,555.7c-12.5,0-22.7,10.2-22.7,22.7s10.2,22.7,22.7,22.7s22.7-10.2,22.7-22.7
		C566.9,565.9,556.8,555.7,544.3,555.7L544.3,555.7z M497,569.4c-12.5,0-22.7,10.2-22.7,22.7s10.2,22.7,22.7,22.7
		s22.7-10.2,22.7-22.7C519.7,579.5,509.5,569.4,497,569.4L497,569.4z M447.5,572.9c-12.5,0-22.7,10.2-22.7,22.7s10.2,22.7,22.7,22.7
		s22.7-10.2,22.7-22.7C470.2,583,460,572.9,447.5,572.9L447.5,572.9z M203.5,369.3c12.5,0,22.7-10.2,22.7-22.7s-10.2-22.7-22.7-22.7
		s-22.7,10.2-22.7,22.7C180.8,359.1,191,369.3,203.5,369.3L203.5,369.3z"/>
	<path class="st1" d="M273.5,191.8c8.5,0,15.5-7,15.5-15.5s-7-15.5-15.5-15.5s-15.5,7-15.5,15.5S265,191.8,273.5,191.8L273.5,191.8z
		 M447.5,117.5c8.5,0,15.5-7,15.5-15.5s-7-15.5-15.5-15.5S432,93.5,432,102S438.9,117.5,447.5,117.5L447.5,117.5z M623.1,186.9
		c8.5,0,15.5-7,15.5-15.5s-7-15.5-15.5-15.5s-15.5,7-15.5,15.5S614.5,186.9,623.1,186.9L623.1,186.9z M273.5,182.8
		c3.6,0,6.5-2.9,6.5-6.5s-2.9-6.5-6.5-6.5s-6.5,2.9-6.5,6.5C267,179.9,269.9,182.8,273.5,182.8L273.5,182.8z M447.5,108.5
		c3.6,0,6.5-2.9,6.5-6.5s-2.9-6.5-6.5-6.5s-6.5,2.9-6.5,6.5C440.9,105.6,443.9,108.5,447.5,108.5L447.5,108.5z M623.1,177.9
		c3.6,0,6.5-2.9,6.5-6.5s-2.9-6.5-6.5-6.5s-6.5,2.9-6.5,6.5S619.5,177.9,623.1,177.9L623.1,177.9z"/>
	<path class="st1" d="M208.2,321.6c12.5,0,22.7-10.2,22.7-22.7s-10.2-22.7-22.7-22.7s-22.7,10.2-22.7,22.7S195.7,321.6,208.2,321.6
		L208.2,321.6z M223.3,274.7c12.5,0,22.7-10.2,22.7-22.7c0-12.5-10.2-22.7-22.7-22.7s-22.7,10.2-22.7,22.7
		C200.7,264.5,210.9,274.7,223.3,274.7L223.3,274.7z M246.2,235.4c12.5,0,22.7-10.2,22.7-22.7S258.6,190,246.2,190
		c-12.5,0-22.7,10.2-22.7,22.7S233.7,235.4,246.2,235.4L246.2,235.4z M273.5,198.9c12.5,0,22.7-10.2,22.7-22.7s-10.2-22.7-22.7-22.7
		s-22.7,10.2-22.7,22.7S261,198.9,273.5,198.9L273.5,198.9z M310.4,167.5c12.5,0,22.7-10.2,22.7-22.7s-10.2-22.7-22.7-22.7
		s-22.7,10.2-22.7,22.7C287.8,157.3,298,167.5,310.4,167.5L310.4,167.5z M352.5,143.8c12.5,0,22.7-10.2,22.7-22.7
		S365,98.4,352.5,98.4s-22.7,10.2-22.7,22.7S340,143.8,352.5,143.8L352.5,143.8z M398.7,129.8c12.5,0,22.7-10.2,22.7-22.7
		s-10.2-22.7-22.7-22.7S376,94.6,376,107.1S386.2,129.8,398.7,129.8L398.7,129.8z M698,369.3c-12.5,0-22.7-10.2-22.7-22.7
		s10.2-22.7,22.7-22.7s22.7,10.2,22.7,22.7C720.7,359.1,710.5,369.3,698,369.3L698,369.3z M691.9,321.6c-12.5,0-22.7-10.2-22.7-22.7
		s10.2-22.7,22.7-22.7s22.7,10.2,22.7,22.7S704.3,321.6,691.9,321.6L691.9,321.6z M677.3,274.7c-12.5,0-22.7-10.2-22.7-22.7
		c0-12.5,10.2-22.7,22.7-22.7S700,239.5,700,252C700,264.5,689.8,274.7,677.3,274.7L677.3,274.7z M654.1,232.2
		c-12.5,0-22.7-10.2-22.7-22.7s10.2-22.7,22.7-22.7s22.7,10.2,22.7,22.7S666.6,232.2,654.1,232.2L654.1,232.2z M623.1,194
		c-12.5,0-22.7-10.2-22.7-22.7s10.2-22.7,22.7-22.7s22.7,10.2,22.7,22.7C645.8,183.9,635.6,194,623.1,194L623.1,194z M584.7,164.1
		c-12.5,0-22.7-10.2-22.7-22.7s10.2-22.7,22.7-22.7s22.7,10.2,22.7,22.7S597.2,164.1,584.7,164.1L584.7,164.1z M542.7,141.8
		c-12.5,0-22.7-10.2-22.7-22.7s10.2-22.7,22.7-22.7s22.7,10.2,22.7,22.7S555.2,141.8,542.7,141.8L542.7,141.8z M495.5,129.8
		c-12.5,0-22.7-10.2-22.7-22.7s10.2-22.7,22.7-22.7s22.7,10.2,22.7,22.7C518.1,119.6,507.9,129.8,495.5,129.8L495.5,129.8z
		 M447.5,124.7c-12.5,0-22.7-10.2-22.7-22.7s10.2-22.7,22.7-22.7s22.7,10.2,22.7,22.7S460,124.7,447.5,124.7L447.5,124.7z"/>
	<path class="st3" d="M315.9,341.3c0,2.9,0.1,5.9,0.3,9c0.2,3.1,0.4,6.2,0.6,9.1h-0.1c-1.5-5.2-2.7-9-4.3-12.7l-4.6-11.7h-6.2v32h6
		v-6c0-2.6-0.1-5.7-0.3-8.9c-0.2-3.2-0.4-6.5-0.6-9.1h0.1c1.4,5,2.7,8.9,4.3,12.7l4.6,11.4h6.2v-32h-6V341.3L315.9,341.3z
		 M359.9,366.9v-4.7H349v-9.8h10v-4.7h-10v-8.1h10.8V335H343v32L359.9,366.9L359.9,366.9z M397.4,335h-4.9l-2.9,16.5
		c-0.6,3.2-0.9,7.3-1.4,11.4h-0.1c0-0.8-0.1-1.5-0.2-2.3c-0.2-2.7-0.5-5.5-0.9-8.2l-2.7-17.4h-6.2l6.1,32h7.2l2.1-12.6
		c0.6-3.4,0.9-6.8,1.3-10.2h0.1c0.4,3.4,0.6,6.8,1.3,10.2l2.4,12.6h7.2l5.9-32h-6.2l-2.4,17.4c-0.4,2.7-0.7,5.5-0.9,8.2
		c-0.1,0.8-0.1,1.5-0.2,2.3h0c-0.4-4.1-0.7-8.2-1.3-11.4L397.4,335L397.4,335z M447.9,362.3v-22.6h3.9c3.6,0,4.3,3,4.3,10.5
		c0,9.3-0.3,12.1-5.7,12.1H447.9L447.9,362.3z M453,366.9c1.5,0,3.1-0.1,4.4-0.9c4.9-2.9,4.9-10.1,4.9-16.5c0-5.3-0.4-8.8-1.7-11
		c-1.8-3-4.7-3.6-6.2-3.6H442v32H453L453,366.9z M500,366.9v-4.7h-10.8v-9.8h10v-4.7h-10v-8.1H500V335h-16.8v32L500,366.9L500,366.9
		z M537.3,366.9v-4.7h-11.1V335h-6v32h17.1V366.9z M563,366.9v-14.6h8.4v14.6h6v-32h-6v12.7H563V335h-6v32h6V366.9z M604.6,366.9
		v-32h-6v32H604.6L604.6,366.9z"/>
	<path class="st3" d="M220.8,166.3l-21.5-17.4l3-3.7c2.8-3.4,6.2-1.8,13.4,4c8.8,7.1,11.2,9.6,7.1,14.7L220.8,166.3L220.8,166.3z
		 M229.2,165.1c1.1-1.4,2.3-3,2.6-4.9c1.1-6.9-5.9-12.5-11.9-17.4c-5-4.1-8.7-6.4-11.9-6.9c-4.3-0.6-7.1,1.7-8.2,3.1l-9.6,11.9
		l30.5,24.7L229.2,165.1L229.2,165.1z M262.4,130.9l-3.9-4.2l-9.7,9.1l-8.2-8.8l8.9-8.3l-3.9-4.2l-8.9,8.3l-6.7-7.2l9.7-9.1
		l-3.9-4.2l-15.1,14l26.7,28.7L262.4,130.9L262.4,130.9z M281.5,100.8c2.2,3.1,4.1,6.3,0.2,9c-4.1,2.8-6.4-0.1-8.6-3.2l-15.3-21.9
		l-6,4.2l15.7,22.4c5,7.1,9.7,8.9,17.6,3.3c7.8-5.5,7.8-10.5,2.8-17.6l-15.7-22.4l-6,4.2L281.5,100.8L281.5,100.8z M290.9,69.4
		l7.6-3.9l15.2,29.8l6.5-3.3L305,62.2l7.6-3.9l-2.6-5.1l-21.7,11.1L290.9,69.4L290.9,69.4z M351.1,49.3c-1.4-3.6-4.4-12.1-15.2-7.9
		c-7.2,2.8-9.4,7.5-7,13.8c0.7,2,2.2,3.7,3.9,4.9c4.2,2.6,9.4,2.9,14,4.3c2.2,0.5,3.8,1.6,4.6,3.8c1.1,2.8,0.3,4.8-2.6,5.9
		c-3.4,1.3-5.4-0.9-6.7-4.5l-0.8-2.1l-6.8,2.6l1,2.7c2.5,6.5,7.2,10,15.4,6.9c6.7-2.6,9.9-7.9,7.2-14.9c-1.2-3.2-2.8-5.1-6-6.5
		c-2.6-1.1-7.8-2.3-10.6-2.8c-2.7-0.5-4.8-0.9-5.9-3.7c-1-2.5,0.2-4,2.4-4.9c3.8-1.4,5.3,1.7,6.5,5L351.1,49.3L351.1,49.3z
		 M388.5,53.5c0.4,2.5,2.3,8.7-1.6,9.6c-4.9,1.1-6.3-4-7.1-7.1l-2.4-10.6c-0.7-3-2.7-9.5,2.9-10.8c3.5-0.8,4.3,3.8,5.2,6.2l7-1.6
		c-0.2-1-0.5-1.9-0.8-2.9c-2-6.4-6.3-8.8-12.7-7.5c-11.4,2.6-10.5,10-8.6,19.8l1.3,5.4c2.4,10.2,4.8,17.5,16.5,14.7
		c7.9-1.8,9-7.7,7.8-14.8c-0.1-0.7-0.2-1.5-0.4-2.2L388.5,53.5L388.5,53.5z M421.4,62.3l-1.2-17.9l10.2-0.7l1.3,17.9l7.3-0.5
		L436.2,22l-7.3,0.5L430,38l-10.2,0.7l-1.1-15.5l-7.3,0.5l2.7,39.1L421.4,62.3L421.4,62.3z M475.7,61.4l0.1-5.7l-13.3-0.2l0.2-12.1
		l12.2,0.2l0.1-5.7l-12.2-0.2l0.2-9.9l13.3,0.2l0.1-5.7l-20.6-0.4L455.1,61L475.7,61.4L475.7,61.4z M530.8,43.8
		c0.8-3.8,3.1-12.5-8.2-15.1c-7.5-1.7-12,1-13.5,7.5c-0.5,2-0.3,4.3,0.5,6.3c2,4.5,6.2,7.6,9.2,11.4c1.5,1.7,2.2,3.5,1.7,5.7
		c-0.7,2.9-2.5,4.2-5.5,3.5c-3.5-0.8-4-3.8-3-7.4l0.5-2.2l-7.1-1.6l-0.6,2.8c-1.6,6.8,0.4,12.3,8.9,14.3c7,1.6,12.6-1.1,14.3-8.3
		c0.8-3.3,0.5-5.8-1.4-8.7c-1.5-2.4-5.2-6.2-7.2-8.3c-1.9-1.9-3.5-3.5-2.8-6.4c0.6-2.6,2.3-3.2,4.7-2.7c3.9,0.9,3.4,4.3,2.6,7.7
		L530.8,43.8L530.8,43.8z M560.1,67.4c-1,2.3-2.9,8.5-6.7,7.1c-4.7-1.8-3-6.8-1.9-9.8l3.9-10.1c1.1-2.8,3.1-9.4,8.5-7.3
		c3.4,1.3,1.4,5.6,0.8,8l6.7,2.6c0.4-0.9,0.7-1.9,0.9-2.8c1.9-6.4-0.3-10.9-6.4-13.3c-10.9-4.2-14.3,2.5-18.2,11.7l-2,5.2
		c-3.7,9.8-5.8,17.2,5.5,21.5c7.6,2.9,11.8-1.3,14.7-7.9c0.3-0.7,0.6-1.4,1-2L560.1,67.4L560.1,67.4z M582.4,93.1l8.1-16l9.1,4.7
		l-8.1,16l6.5,3.3l17.8-34.9l-6.5-3.3l-7,13.8l-9.1-4.7l7-13.8l-6.5-3.3l-17.8,34.9L582.4,93.1L582.4,93.1z M633.2,109.9
		c-2.2,3.1-4.5,6-8.4,3.3c-4.1-2.8-2.1-6.1,0-9.2l15.3-21.9l-6-4.2l-15.7,22.4c-5,7.1-5,12.1,2.9,17.7c7.8,5.5,12.5,3.7,17.5-3.4
		l15.7-22.4l-6-4.2L633.2,109.9L633.2,109.9z M659.4,149.8l3.9-4.2l-9.9-9.3l22.8-24.5l-5.4-5l-26.7,28.7L659.4,149.8L659.4,149.8z
		 M681.6,176.8l4.5-3.6l-8.4-10.3l9.4-7.6l7.7,9.5l4.5-3.6l-7.7-9.5l7.7-6.2l8.4,10.3l4.5-3.6l-13-16l-30.5,24.7L681.6,176.8
		L681.6,176.8z"/>
	<path class="st3" d="M242.7,581.4c-7,7.8-11.5,14-2.6,22c2.1,1.6,5,2.6,8.8,0.6l0.1,0.1l-3,3.3l4.1,3.7l14.1-15.7l-9-8.1l-3.8,4.3
		l3.8,3.4c-3.8,4.5-7.8,6.9-10.9,4.1c-3.7-3.4-0.4-7.5,1.8-9.9l7.3-8.1c2-2.3,6.3-7.7,10.5-3.8c3.6,3.5,1.6,6-0.9,9l5.4,4.9
		c1-1.2,2.1-2.4,2.9-3.8c3.3-6.2,1.2-10.3-3.5-14.5c-8.7-7.8-14.2-2.8-21.2,4.4L242.7,581.4L242.7,581.4z M281,631.4l3.1-4.8
		l-11.1-7.2l6.6-10.1l10.3,6.7l3.1-4.8l-10.3-6.7l5.4-8.3l11.1,7.2l3.1-4.8L285,587.3l-21.3,32.9L281,631.4L281,631.4z M309.7,627.4
		c1.8,1,3.8,1.9,5.2,3.4c1.9,1.8,0.3,4.7-0.8,6.9c-1.2,2.3-3.6,6.5-4,9.1l7.1,3.8l0.3-0.6c-1-1.8,3.7-10.2,4.4-11.7
		c1.8-3.3,1.9-6.4-1.6-8.9v-0.1c4.7,1.7,7.7-1.7,9.7-5.5c3.4-6.4,0.2-10.6-5.4-13.5l-12.2-6.5L294,638.4l6.5,3.4l7.9-14.9
		L309.7,627.4L309.7,627.4z M316.3,612.2l4.8,2.6c2.4,1.3,3.7,2.9,1.6,6.7c-1.8,3.5-4.2,4-6.4,3l-5.1-2.7L316.3,612.2L316.3,612.2z
		 M342.3,646.8c2.5-7.4,4.9-14.8,7-22.3l0.2,0.1l-4.4,36.3l4.2,1.4l19-31.2h0.1c-3,7.2-5.7,14.5-8.2,21.9l-4,11.7l6.9,2.4L376,630
		l-11-3.8l-9.6,15.9c-1.3,2.3-2.4,4.6-4,8.2h-0.1c0.7-3,1.3-6,1.7-9l2.2-18.5l-11-3.8l-12.8,37.1l6.9,2.4L342.3,646.8L342.3,646.8z
		 M383.6,671.7l3.8-9.4l8.4,1.6V674l7.7,1.5l-1.2-40.2l-9.7-1.9l-16.7,36.7L383.6,671.7L383.6,671.7z M393.9,646.4
		c0.7-1.7,1.2-3.4,1.8-5.2c0.2-0.9,0.5-1.7,0.8-2.5h0.1c-0.1,0.8-0.1,1.7-0.2,2.6c-0.1,1.8-0.3,3.6-0.3,5.5l-0.2,11.3l-6.2-1.2
		L393.9,646.4L393.9,646.4z M437,646.9c-0.3,3.5-0.5,7.3-0.6,11c-0.1,3.8-0.2,7.6-0.2,11.1h-0.1c-1.2-6.5-2.4-11.3-3.8-15.9
		l-4.4-14.8l-7.5-0.7l-3.4,39l7.3,0.6l0.6-7.3c0.3-3.1,0.5-7,0.6-10.9c0.1-4,0.2-7.9,0.2-11.2h0.1c1.2,6.3,2.3,11.2,3.9,15.9
		l4.5,14.4l7.6,0.7l3.4-39l-7.3-0.6L437,646.9L437,646.9z M490.6,649.1c-0.4-3.8-0.9-12.8-12.5-11.8c-7.7,0.7-11.1,4.6-10.6,11.3
		c0.2,2.1,1,4.2,2.4,5.8c3.3,3.6,8.2,5.4,12.3,8c2,1.1,3.2,2.6,3.4,4.9c0.3,3-1.1,4.7-4.1,5c-3.6,0.3-5-2.3-5.2-6.2l-0.2-2.3
		l-7.3,0.6l0.2,2.9c0.6,7,4.2,11.6,12.9,10.8c7.1-0.6,11.7-4.9,11-12.3c-0.3-3.4-1.3-5.7-4-7.9c-2.2-1.8-6.9-4.3-9.4-5.6
		c-2.4-1.3-4.4-2.2-4.7-5.2c-0.2-2.7,1.2-3.8,3.7-4c4-0.3,4.6,3.1,4.9,6.6L490.6,649.1L490.6,649.1z M521.3,656.6
		c0.5,2.5,2.5,8.6-1.4,9.6c-4.9,1.2-6.4-3.8-7.2-7l-2.6-10.5c-0.7-2.9-2.8-9.5,2.7-10.9c3.5-0.9,4.4,3.8,5.3,6.1l7-1.7
		c-0.2-1-0.5-1.9-0.9-2.9c-2.1-6.4-6.5-8.7-12.8-7.2c-11.4,2.8-10.3,10.2-8.2,20l1.4,5.4c2.5,10.1,5.1,17.4,16.8,14.5
		c7.9-2,8.9-7.9,7.5-14.9c-0.1-0.7-0.3-1.5-0.4-2.2L521.3,656.6L521.3,656.6z M553.4,661.9l-5.8-16.9l9.7-3.3l5.8,16.9l6.9-2.4
		l-12.8-37.1l-6.9,2.4l5.1,14.7l-9.7,3.3l-5.1-14.7l-6.9,2.4l12.8,37.1L553.4,661.9L553.4,661.9z M577,635.2
		c4.9,9.2,9.2,15.6,19.8,10s7.7-12.8,2.8-22l-2.6-4.9c-5-8.7-9.1-14.9-19.5-9.4c-10.3,5.5-7.5,12.4-3.1,21.4L577,635.2L577,635.2z
		 M580.3,625.3c-1.4-2.7-5.1-8.5,0-11.2c4.8-2.6,7.9,3.7,9.4,6.4l4.7,8.9c1.8,3.3,4.2,8.1-0.4,10.6c-4.4,2.4-7.1-2.2-8.7-5
		L580.3,625.3L580.3,625.3z M612.1,616.4c5.7,8.8,10.5,14.7,20.6,8.2s6.6-13.4,0.9-22.1l-3-4.7c-5.7-8.2-10.4-14-20.2-7.6
		s-6.4,13-1.3,21.6L612.1,616.4L612.1,616.4z M614.5,606.2c-1.6-2.5-5.8-8-1-11.2c4.6-3,8.2,3,9.9,5.6l5.5,8.4
		c2,3.2,4.9,7.7,0.6,10.5c-4.2,2.7-7.3-1.6-9.1-4.3L614.5,606.2L614.5,606.2z M671.1,593.4l-3.8-4.3L657,598l-21.9-25.2l-5.5,4.8
		l25.7,29.6L671.1,593.4L671.1,593.4z"/>
	<path class="st1" d="M254.3,270.2c3.5,0,6.4-2.9,6.4-6.4s-2.9-6.4-6.4-6.4s-6.4,2.9-6.4,6.4C247.9,267.3,250.7,270.2,254.3,270.2
		L254.3,270.2z"/>
	<path class="st4" d="M267,275.4c3.5,0,6.4-2.9,6.4-6.4s-2.9-6.4-6.4-6.4s-6.4,2.9-6.4,6.4S263.5,275.4,267,275.4L267,275.4z
		 M279.7,280.6c3.5,0,6.4-2.9,6.4-6.4s-2.9-6.4-6.4-6.4s-6.4,2.9-6.4,6.4C273.3,277.7,276.2,280.6,279.7,280.6L279.7,280.6z
		 M292.4,285.8c3.5,0,6.4-2.9,6.4-6.4s-2.9-6.4-6.4-6.4s-6.4,2.9-6.4,6.4S288.8,285.8,292.4,285.8L292.4,285.8z M305.1,290.9
		c3.5,0,6.4-2.9,6.4-6.4s-2.9-6.4-6.4-6.4s-6.4,2.9-6.4,6.4C298.7,288.1,301.6,290.9,305.1,290.9L305.1,290.9z M317.8,296.1
		c3.5,0,6.4-2.9,6.4-6.4s-2.9-6.4-6.4-6.4s-6.4,2.9-6.4,6.4C311.4,293.3,314.2,296.1,317.8,296.1L317.8,296.1z M330.5,301.3
		c3.5,0,6.4-2.9,6.4-6.4s-2.9-6.4-6.4-6.4s-6.4,2.9-6.4,6.4C324.1,298.5,327,301.3,330.5,301.3L330.5,301.3z M343.2,306.5
		c3.5,0,6.4-2.9,6.4-6.4s-2.9-6.4-6.4-6.4s-6.4,2.9-6.4,6.4C336.8,303.6,339.7,306.5,343.2,306.5L343.2,306.5z M355.9,311.7
		c3.5,0,6.4-2.9,6.4-6.4s-2.9-6.4-6.4-6.4s-6.4,2.9-6.4,6.4C349.5,308.8,352.4,311.7,355.9,311.7L355.9,311.7z M368.6,316.9
		c3.5,0,6.4-2.9,6.4-6.4s-2.9-6.4-6.4-6.4s-6.4,2.9-6.4,6.4S365.1,316.9,368.6,316.9L368.6,316.9z"/>
	<path class="st1" d="M381.3,322.1c3.5,0,6.4-2.9,6.4-6.4s-2.9-6.4-6.4-6.4s-6.4,2.9-6.4,6.4S377.8,322.1,381.3,322.1L381.3,322.1z
		 M374.2,155.5c3.5,0,6.4-2.9,6.4-6.4s-2.9-6.4-6.4-6.4s-6.4,2.9-6.4,6.4C367.8,152.6,370.6,155.5,374.2,155.5L374.2,155.5z"/>
	<path class="st4" d="M379.1,168c3.5,0,6.4-2.9,6.4-6.4s-2.9-6.4-6.4-6.4s-6.4,2.9-6.4,6.4S375.6,168,379.1,168L379.1,168z
		 M384.1,180.5c3.5,0,6.4-2.9,6.4-6.4s-2.9-6.4-6.4-6.4s-6.4,2.9-6.4,6.4S380.6,180.5,384.1,180.5L384.1,180.5z M389,193
		c3.5,0,6.4-2.9,6.4-6.4s-2.9-6.4-6.4-6.4s-6.4,2.9-6.4,6.4S385.5,193,389,193L389,193z M394,205.5c3.5,0,6.4-2.9,6.4-6.4
		s-2.9-6.4-6.4-6.4s-6.4,2.9-6.4,6.4S390.5,205.5,394,205.5L394,205.5z M399,217.9c3.5,0,6.4-2.9,6.4-6.4s-2.9-6.4-6.4-6.4
		s-6.4,2.9-6.4,6.4C392.6,215.1,395.5,217.9,399,217.9L399,217.9z M403.9,230.4c3.5,0,6.4-2.9,6.4-6.4s-2.9-6.4-6.4-6.4
		s-6.4,2.9-6.4,6.4C397.6,227.6,400.4,230.4,403.9,230.4L403.9,230.4z M408.9,242.9c3.5,0,6.4-2.9,6.4-6.4s-2.9-6.4-6.4-6.4
		s-6.4,2.9-6.4,6.4S405.4,242.9,408.9,242.9L408.9,242.9z M413.9,255.4c3.5,0,6.4-2.9,6.4-6.4s-2.9-6.4-6.4-6.4s-6.4,2.9-6.4,6.4
		S410.3,255.4,413.9,255.4L413.9,255.4z M418.8,267.9c3.5,0,6.4-2.9,6.4-6.4s-2.9-6.4-6.4-6.4s-6.4,2.9-6.4,6.4
		S415.3,267.9,418.8,267.9L418.8,267.9z"/>
	<path class="st1" d="M423.8,280.4c3.5,0,6.4-2.9,6.4-6.4s-2.9-6.4-6.4-6.4s-6.4,2.9-6.4,6.4S420.3,280.4,423.8,280.4L423.8,280.4z
		 M648.1,272.2c-3.5,0-6.4-2.9-6.4-6.4s2.9-6.4,6.4-6.4s6.4,2.9,6.4,6.4C654.4,269.4,651.6,272.2,648.1,272.2L648.1,272.2z"/>
	<path class="st4" d="M636.1,276.9c-3.5,0-6.4-2.9-6.4-6.4s2.9-6.4,6.4-6.4s6.4,2.9,6.4,6.4C642.5,274.1,639.6,276.9,636.1,276.9
		L636.1,276.9z M624.1,281.7c-3.5,0-6.4-2.9-6.4-6.4s2.9-6.4,6.4-6.4s6.4,2.9,6.4,6.4C630.5,278.8,627.7,281.7,624.1,281.7
		L624.1,281.7z M612.2,286.4c-3.5,0-6.4-2.9-6.4-6.4s2.9-6.4,6.4-6.4s6.4,2.9,6.4,6.4C618.6,283.5,615.7,286.4,612.2,286.4
		L612.2,286.4z M600.2,291.1c-3.5,0-6.4-2.9-6.4-6.4s2.9-6.4,6.4-6.4s6.4,2.9,6.4,6.4C606.6,288.2,603.7,291.1,600.2,291.1
		L600.2,291.1z M588.3,295.8c-3.5,0-6.4-2.9-6.4-6.4s2.9-6.4,6.4-6.4s6.4,2.9,6.4,6.4C594.6,293,591.8,295.8,588.3,295.8
		L588.3,295.8z M576.3,300.5c-3.5,0-6.4-2.9-6.4-6.4s2.9-6.4,6.4-6.4s6.4,2.9,6.4,6.4C582.7,297.7,579.8,300.5,576.3,300.5
		L576.3,300.5z M564.4,305.3c-3.5,0-6.4-2.9-6.4-6.4s2.9-6.4,6.4-6.4s6.4,2.9,6.4,6.4C570.7,302.4,567.9,305.3,564.4,305.3
		L564.4,305.3z M552.4,310c-3.5,0-6.4-2.9-6.4-6.4s2.9-6.4,6.4-6.4s6.4,2.9,6.4,6.4C558.8,307.1,555.9,310,552.4,310L552.4,310z
		 M540.4,314.7c-3.5,0-6.4-2.9-6.4-6.4s2.9-6.4,6.4-6.4s6.4,2.9,6.4,6.4C546.8,311.8,543.9,314.7,540.4,314.7L540.4,314.7z"/>
	<path class="st1" d="M528.5,319.4c-3.5,0-6.4-2.9-6.4-6.4s2.9-6.4,6.4-6.4s6.4,2.9,6.4,6.4C534.8,316.6,532,319.4,528.5,319.4
		L528.5,319.4z M536.3,157.5c-3.5,0-6.4-2.9-6.4-6.4s2.9-6.4,6.4-6.4s6.4,2.9,6.4,6.4S539.8,157.5,536.3,157.5L536.3,157.5z"/>
	<path class="st4" d="M531.2,169.8c-3.5,0-6.4-2.9-6.4-6.4s2.9-6.4,6.4-6.4s6.4,2.9,6.4,6.4C537.6,166.9,534.7,169.8,531.2,169.8
		L531.2,169.8z M526.2,182c-3.5,0-6.4-2.9-6.4-6.4s2.9-6.4,6.4-6.4s6.4,2.9,6.4,6.4C532.5,179.1,529.7,182,526.2,182L526.2,182z
		 M521.1,194.2c-3.5,0-6.4-2.9-6.4-6.4s2.9-6.4,6.4-6.4s6.4,2.9,6.4,6.4S524.6,194.2,521.1,194.2L521.1,194.2z M516,206.4
		c-3.5,0-6.4-2.9-6.4-6.4s2.9-6.4,6.4-6.4s6.4,2.9,6.4,6.4C522.4,203.6,519.5,206.4,516,206.4L516,206.4z M510.9,218.7
		c-3.5,0-6.4-2.9-6.4-6.4s2.9-6.4,6.4-6.4c3.5,0,6.4,2.9,6.4,6.4S514.4,218.7,510.9,218.7L510.9,218.7z M505.9,230.9
		c-3.5,0-6.4-2.9-6.4-6.4s2.9-6.4,6.4-6.4s6.4,2.9,6.4,6.4C512.2,228,509.4,230.9,505.9,230.9L505.9,230.9z M500.8,243.1
		c-3.5,0-6.4-2.9-6.4-6.4s2.9-6.4,6.4-6.4s6.4,2.9,6.4,6.4C507.2,240.3,504.3,243.1,500.8,243.1L500.8,243.1z M495.7,255.4
		c-3.5,0-6.4-2.9-6.4-6.4s2.9-6.4,6.4-6.4s6.4,2.9,6.4,6.4S499.2,255.4,495.7,255.4L495.7,255.4z M490.6,267.6
		c-3.5,0-6.4-2.9-6.4-6.4s2.9-6.4,6.4-6.4s6.4,2.9,6.4,6.4S494.2,267.6,490.6,267.6L490.6,267.6z"/>
	<path class="st1" d="M485.6,279.8c-3.5,0-6.4-2.9-6.4-6.4s2.9-6.4,6.4-6.4s6.4,2.9,6.4,6.4C491.9,277,489.1,279.8,485.6,279.8
		L485.6,279.8z M455,250.7c9.3,0,16.8-7.5,16.8-16.8s-7.5-16.8-16.8-16.8s-16.8,7.5-16.8,16.8C438.2,243.1,445.7,250.7,455,250.7
		L455,250.7z"/>
	<path class="st1" d="M455,241c3.9,0,7.1-3.2,7.1-7.1c0-3.9-3.2-7.1-7.1-7.1s-7.1,3.2-7.1,7.1S451.1,241,455,241L455,241z"/>
	<path class="st1" d="M455,258.5c-13.5,0-24.6-11-24.6-24.6c0-13.5,11-24.6,24.6-24.6c13.5,0,24.6,11,24.6,24.6
		C479.6,247.4,468.5,258.5,455,258.5L455,258.5z"/>
	<path class="st1" d="M466.7,127.4c0,0-12,65.4,20.3,107.7c-10.6,12.9-17.5,22.1-18.4,41.4 M443.1,127.4c0,0,12,65.4-20.3,107.7
		c10.6,12.9,17.5,22.1,18.4,41.4 M455.2,132.4c5.2,0,9.4,4.2,9.4,9.4s-4.2,9.4-9.4,9.4c-5.2,0-9.4-4.2-9.4-9.4
		C445.8,136.7,450,132.4,455.2,132.4L455.2,132.4z M455.2,159.6c5.2,0,9.4,4.2,9.4,9.4s-4.2,9.4-9.4,9.4c-5.2,0-9.4-4.2-9.4-9.4
		C445.8,163.8,450,159.6,455.2,159.6L455.2,159.6z M435.6,214.7c0,0,6-24.4,19.3-31.5c13.3,7.1,19.3,31.5,19.3,31.5"/>
	<path class="st1" d="M384.1,278.6c6.9-6.2,7.5-16.8,1.3-23.7c-6.2-6.9-16.8-7.5-23.7-1.3c-6.9,6.2-7.5,16.8-1.3,23.7
		C366.5,284.2,377.2,284.8,384.1,278.6L384.1,278.6z"/>
	<path class="st1" d="M377.6,271.4c2.9-2.6,3.2-7.1,0.6-10s-7.1-3.2-10-0.6s-3.2,7.1-0.6,10C370.2,273.7,374.7,274,377.6,271.4
		L377.6,271.4z"/>
	<path class="st1" d="M389.3,284.4c-10.1,9-25.7,8.2-34.7-1.9s-8.2-25.7,1.9-34.7c10.1-9,25.7-8.2,34.7,1.9
		C400.3,259.8,399.4,275.4,389.3,284.4L389.3,284.4z"/>
	<path class="st1" d="M310.7,178.9c0,0,34.6,56.7,86.9,66.8c0.7,16.7,2.9,27.9,15.1,42.9 M293,194.6c0,0,52.5,40.8,56.7,93.8
		c16.5,2.6,29.4,6.5,43,20.3"/>
	<path class="st1" d="M305.5,190.3c3.8-3.4,9.8-3.1,13.2,0.7s3.1,9.8-0.7,13.2c-3.8,3.4-9.8,3.1-13.2-0.7
		C301.3,199.7,301.6,193.8,305.5,190.3L305.5,190.3z M323.5,210.5c3.8-3.4,9.8-3.1,13.2,0.7c3.4,3.8,3.1,9.8-0.7,13.2
		c-3.8,3.4-9.8,3.1-13.2-0.7C319.3,219.9,319.7,214,323.5,210.5L323.5,210.5z"/>
	<path class="st1" d="M345.7,264.7c0,0-11.8-22.2-6.6-36.3c14.6-3.6,35.4,10.6,35.4,10.6"/>
	<path class="st1" d="M521.9,279.6c-6.9-6.2-7.5-16.8-1.3-23.7c6.2-6.9,16.8-7.5,23.7-1.3c6.9,6.2,7.5,16.8,1.3,23.7
		C539.5,285.1,528.8,285.7,521.9,279.6L521.9,279.6z"/>
	<path class="st1" d="M528.4,272.3c-2.9-2.6-3.2-7.1-0.6-10c2.6-2.9,7.1-3.2,10-0.6s3.2,7.1,0.6,10
		C535.8,274.7,531.3,274.9,528.4,272.3L528.4,272.3z"/>
	<path class="st1" d="M516.7,285.4c10.1,9,25.7,8.2,34.7-1.9s8.2-25.7-1.9-34.7c-10.1-9-25.7-8.2-34.7,1.9
		C505.7,260.7,506.6,276.3,516.7,285.4L516.7,285.4z"/>
	<path class="st1" d="M595.3,179.8c0,0-34.6,56.7-86.9,66.8c-0.7,16.7-1.7,28.1-13.9,43.2 M613,195.6c0,0-52.5,40.8-56.7,93.8
		c-16.5,2.6-27.1,5.6-40.7,19.4"/>
	<path class="st1" d="M600.6,191.3c-3.8-3.4-9.8-3.1-13.2,0.7s-3.1,9.8,0.7,13.2s9.8,3.1,13.2-0.7S604.4,194.7,600.6,191.3
		L600.6,191.3z M582.5,211.5c-3.8-3.4-9.8-3.1-13.2,0.7s-3.1,9.8,0.7,13.2s9.8,3.1,13.2-0.7C586.7,220.9,586.3,214.9,582.5,211.5
		L582.5,211.5z"/>
	<path class="st1" d="M560.3,265.7c0,0,11.8-22.2,6.6-36.3c-14.6-3.6-35.4,10.6-35.4,10.6"/>
	<path class="st5" d="M441.3,276.8l8.3,47.7h10.2l8.6-47.5C468.4,277,456,268.9,441.3,276.8L441.3,276.8z M414.8,289.1
		c10-12,26.4-12.3,26.6-12.3l8.4,47.6H438L414.8,289.1L414.8,289.1z M393.8,309.1c7.2-15,14.1-17.4,21-20.2l23.1,35.6h-17.2
		L393.8,309.1L393.8,309.1z M387,324.4c-0.6-5.6,2.6-12.5,7.1-15.2l26.7,15.2h-17.2H387L387,324.4z"/>
	<path class="st1" d="M441.7,275.3l12.5-16.6l14.2,17.2 M454.6,273.7v-14.5"/>
	<path class="st5" d="M495.1,289.1c-10-12-26.4-12.3-26.6-12.3l-8.4,47.6H472L495.1,289.1L495.1,289.1z M516.1,309.1
		c-7.2-15-14.1-17.4-21-20.2L472,324.5h17.2L516.1,309.1L516.1,309.1z M523,324.4c0.6-5.6-2.6-12.5-7.1-15.2l-26.7,15.2h17.2H523
		L523,324.4z"/>
	<path class="st1" d="M392.4,306.4l-2.9-20.6l22.2,2 M400.4,296.1l-10.3-10.2"/>
	<path class="st1" d="M515.6,308.3l2.8-19.9h-22.3 M506.8,297.9l10.9-9.6"/>
	<path class="st1" d="M254.3,431.2c3.5,0,6.4,2.9,6.4,6.4s-2.9,6.4-6.4,6.4s-6.4-2.9-6.4-6.4C247.9,434,250.7,431.2,254.3,431.2
		L254.3,431.2z"/>
	<path class="st4" d="M267,426c3.5,0,6.4,2.9,6.4,6.4s-2.9,6.4-6.4,6.4s-6.4-2.9-6.4-6.4C260.6,428.8,263.5,426,267,426L267,426z
		 M279.7,420.8c3.5,0,6.4,2.9,6.4,6.4s-2.9,6.4-6.4,6.4s-6.4-2.9-6.4-6.4S276.2,420.8,279.7,420.8L279.7,420.8z M292.4,415.6
		c3.5,0,6.4,2.9,6.4,6.4s-2.9,6.4-6.4,6.4s-6.4-2.9-6.4-6.4S288.8,415.6,292.4,415.6L292.4,415.6z M305.1,410.4
		c3.5,0,6.4,2.9,6.4,6.4s-2.9,6.4-6.4,6.4s-6.4-2.9-6.4-6.4S301.6,410.4,305.1,410.4L305.1,410.4z M317.8,405.2
		c3.5,0,6.4,2.9,6.4,6.4s-2.9,6.4-6.4,6.4s-6.4-2.9-6.4-6.4S314.2,405.2,317.8,405.2L317.8,405.2z M330.5,400.1
		c3.5,0,6.4,2.9,6.4,6.4s-2.9,6.4-6.4,6.4s-6.4-2.9-6.4-6.4C324.1,402.9,327,400.1,330.5,400.1L330.5,400.1z M343.2,394.9
		c3.5,0,6.4,2.9,6.4,6.4s-2.9,6.4-6.4,6.4s-6.4-2.9-6.4-6.4C336.8,397.7,339.7,394.9,343.2,394.9L343.2,394.9z M355.9,389.7
		c3.5,0,6.4,2.9,6.4,6.4s-2.9,6.4-6.4,6.4s-6.4-2.9-6.4-6.4C349.5,392.5,352.4,389.7,355.9,389.7L355.9,389.7z M368.6,384.5
		c3.5,0,6.4,2.9,6.4,6.4s-2.9,6.4-6.4,6.4s-6.4-2.9-6.4-6.4S365.1,384.5,368.6,384.5L368.6,384.5z"/>
	<path class="st1" d="M381.3,379.3c3.5,0,6.4,2.9,6.4,6.4s-2.9,6.4-6.4,6.4s-6.4-2.9-6.4-6.4C374.9,382.2,377.8,379.3,381.3,379.3
		L381.3,379.3z M374.2,545.9c3.5,0,6.4,2.9,6.4,6.4s-2.9,6.4-6.4,6.4s-6.4-2.9-6.4-6.4C367.8,548.7,370.6,545.9,374.2,545.9
		L374.2,545.9z"/>
	<path class="st4" d="M379.1,533.4c3.5,0,6.4,2.9,6.4,6.4s-2.9,6.4-6.4,6.4s-6.4-2.9-6.4-6.4S375.6,533.4,379.1,533.4L379.1,533.4z
		 M384.1,520.9c3.5,0,6.4,2.9,6.4,6.4s-2.9,6.4-6.4,6.4s-6.4-2.9-6.4-6.4C377.7,523.8,380.6,520.9,384.1,520.9L384.1,520.9z
		 M389,508.4c3.5,0,6.4,2.9,6.4,6.4s-2.9,6.4-6.4,6.4s-6.4-2.9-6.4-6.4C382.7,511.3,385.5,508.4,389,508.4L389,508.4z M394,495.9
		c3.5,0,6.4,2.9,6.4,6.4s-2.9,6.4-6.4,6.4s-6.4-2.9-6.4-6.4S390.5,495.9,394,495.9L394,495.9z M399,483.4c3.5,0,6.4,2.9,6.4,6.4
		s-2.9,6.4-6.4,6.4s-6.4-2.9-6.4-6.4S395.5,483.4,399,483.4L399,483.4z M403.9,470.9c3.5,0,6.4,2.9,6.4,6.4s-2.9,6.4-6.4,6.4
		s-6.4-2.9-6.4-6.4C397.6,473.8,400.4,470.9,403.9,470.9L403.9,470.9z M408.9,458.4c3.5,0,6.4,2.9,6.4,6.4s-2.9,6.4-6.4,6.4
		s-6.4-2.9-6.4-6.4S405.4,458.4,408.9,458.4L408.9,458.4z M413.9,446c3.5,0,6.4,2.9,6.4,6.4s-2.9,6.4-6.4,6.4s-6.4-2.9-6.4-6.4
		C407.5,448.8,410.3,446,413.9,446L413.9,446z M418.8,433.5c3.5,0,6.4,2.9,6.4,6.4s-2.9,6.4-6.4,6.4s-6.4-2.9-6.4-6.4
		C412.4,436.3,415.3,433.5,418.8,433.5L418.8,433.5z"/>
	<path class="st1" d="M423.8,421c3.5,0,6.4,2.9,6.4,6.4s-2.9,6.4-6.4,6.4s-6.4-2.9-6.4-6.4C417.4,423.8,420.3,421,423.8,421
		L423.8,421z M648.1,429.1c-3.5,0-6.4,2.9-6.4,6.4s2.9,6.4,6.4,6.4s6.4-2.9,6.4-6.4C654.4,432,651.6,429.1,648.1,429.1L648.1,429.1z
		"/>
	<path class="st4" d="M636.1,424.4c-3.5,0-6.4,2.9-6.4,6.4s2.9,6.4,6.4,6.4s6.4-2.9,6.4-6.4S639.6,424.4,636.1,424.4L636.1,424.4z
		 M624.1,419.7c-3.5,0-6.4,2.9-6.4,6.4s2.9,6.4,6.4,6.4s6.4-2.9,6.4-6.4S627.7,419.7,624.1,419.7L624.1,419.7z M612.2,415
		c-3.5,0-6.4,2.9-6.4,6.4s2.9,6.4,6.4,6.4s6.4-2.9,6.4-6.4C618.6,417.8,615.7,415,612.2,415L612.2,415z M600.2,410.3
		c-3.5,0-6.4,2.9-6.4,6.4s2.9,6.4,6.4,6.4s6.4-2.9,6.4-6.4C606.6,413.1,603.7,410.3,600.2,410.3L600.2,410.3z M588.3,405.5
		c-3.5,0-6.4,2.9-6.4,6.4s2.9,6.4,6.4,6.4s6.4-2.9,6.4-6.4C594.6,408.4,591.8,405.5,588.3,405.5L588.3,405.5z M576.3,400.8
		c-3.5,0-6.4,2.9-6.4,6.4s2.9,6.4,6.4,6.4s6.4-2.9,6.4-6.4C582.7,403.7,579.8,400.8,576.3,400.8L576.3,400.8z M564.4,396.1
		c-3.5,0-6.4,2.9-6.4,6.4s2.9,6.4,6.4,6.4s6.4-2.9,6.4-6.4C570.7,399,567.9,396.1,564.4,396.1L564.4,396.1z M552.4,391.4
		c-3.5,0-6.4,2.9-6.4,6.4s2.9,6.4,6.4,6.4s6.4-2.9,6.4-6.4C558.8,394.3,555.9,391.4,552.4,391.4L552.4,391.4z M540.4,386.7
		c-3.5,0-6.4,2.9-6.4,6.4s2.9,6.4,6.4,6.4s6.4-2.9,6.4-6.4C546.8,389.5,543.9,386.7,540.4,386.7L540.4,386.7z"/>
	<path class="st1" d="M528.5,382c-3.5,0-6.4,2.9-6.4,6.4s2.9,6.4,6.4,6.4s6.4-2.9,6.4-6.4C534.8,384.8,532,382,528.5,382L528.5,382z
		 M534.6,540.9c-3.5,0-6.4,2.9-6.4,6.4s2.9,6.4,6.4,6.4s6.4-2.9,6.4-6.4C540.9,543.8,538.1,540.9,534.6,540.9L534.6,540.9z"/>
	<path class="st4" d="M529.7,529c-3.5,0-6.4,2.9-6.4,6.4s2.9,6.4,6.4,6.4s6.4-2.9,6.4-6.4C536,531.8,533.2,529,529.7,529L529.7,529z
		 M524.8,517c-3.5,0-6.4,2.9-6.4,6.4s2.9,6.4,6.4,6.4s6.4-2.9,6.4-6.4C531.1,519.9,528.3,517,524.8,517L524.8,517z M519.9,505.1
		c-3.5,0-6.4,2.9-6.4,6.4s2.9,6.4,6.4,6.4s6.4-2.9,6.4-6.4C526.2,507.9,523.4,505.1,519.9,505.1L519.9,505.1z M515,493.2
		c-3.5,0-6.4,2.9-6.4,6.4s2.9,6.4,6.4,6.4s6.4-2.9,6.4-6.4C521.3,496,518.5,493.2,515,493.2L515,493.2z M510.1,481.2
		c-3.5,0-6.4,2.9-6.4,6.4s2.9,6.4,6.4,6.4c3.5,0,6.4-2.9,6.4-6.4C516.4,484.1,513.6,481.2,510.1,481.2L510.1,481.2z M505.2,469.3
		c-3.5,0-6.4,2.9-6.4,6.4s2.9,6.4,6.4,6.4s6.4-2.9,6.4-6.4C511.5,472.1,508.7,469.3,505.2,469.3L505.2,469.3z M500.3,457.4
		c-3.5,0-6.4,2.9-6.4,6.4s2.9,6.4,6.4,6.4s6.4-2.9,6.4-6.4C506.6,460.2,503.8,457.4,500.3,457.4L500.3,457.4z M495.4,445.4
		c-3.5,0-6.4,2.9-6.4,6.4s2.9,6.4,6.4,6.4s6.4-2.9,6.4-6.4C501.7,448.3,498.9,445.4,495.4,445.4L495.4,445.4z M490.5,433.5
		c-3.5,0-6.4,2.9-6.4,6.4s2.9,6.4,6.4,6.4s6.4-2.9,6.4-6.4C496.8,436.4,494,433.5,490.5,433.5L490.5,433.5z"/>
	<path class="st1" d="M485.6,421.6c-3.5,0-6.4,2.9-6.4,6.4s2.9,6.4,6.4,6.4s6.4-2.9,6.4-6.4C491.9,424.4,489.1,421.6,485.6,421.6
		L485.6,421.6z M455,450.7c9.3,0,16.8,7.5,16.8,16.8s-7.5,16.8-16.8,16.8s-16.8-7.6-16.8-16.8S445.7,450.7,455,450.7L455,450.7z"/>
	<path class="st1" d="M455,460.4c3.9,0,7.1,3.2,7.1,7.1s-3.2,7.1-7.1,7.1s-7.1-3.2-7.1-7.1S451.1,460.4,455,460.4L455,460.4z"/>
	<path class="st1" d="M455,442.9c-13.5,0-24.6,11-24.6,24.6s11,24.6,24.6,24.6c13.5,0,24.6-11,24.6-24.6S468.5,442.9,455,442.9
		L455,442.9z"/>
	<path class="st1" d="M466.2,570.6c0,0-11.5-61.9,20.7-104.3c-10.6-12.9-17.5-22.1-18.4-41.4 M443.1,571.1c0,0,12-62.4-20.3-104.8
		c10.6-12.9,17.5-22.1,18.4-41.4"/>
	<path class="st1" d="M455.2,568.9c5.2,0,9.4-4.2,9.4-9.4s-4.2-9.4-9.4-9.4c-5.2,0-9.4,4.2-9.4,9.4
		C445.8,564.7,450,568.9,455.2,568.9L455.2,568.9z M455.2,541.8c5.2,0,9.4-4.2,9.4-9.4s-4.2-9.4-9.4-9.4c-5.2,0-9.4,4.2-9.4,9.4
		S450,541.8,455.2,541.8L455.2,541.8z"/>
	<path class="st1" d="M435.6,486.7c0,0,6,24.4,19.3,31.5c13.3-7.1,19.3-31.5,19.3-31.5"/>
	<path class="st1" d="M384.1,422.7c6.9,6.2,7.5,16.8,1.3,23.7c-6.2,6.9-16.8,7.5-23.7,1.3c-6.9-6.2-7.5-16.8-1.3-23.7
		C366.5,417.2,377.2,416.6,384.1,422.7L384.1,422.7z"/>
	<path class="st1" d="M377.6,430c2.9,2.6,3.2,7.1,0.6,10s-7.1,3.2-10,0.6s-3.2-7.1-0.6-10C370.2,427.6,374.7,427.4,377.6,430
		L377.6,430z"/>
	<path class="st1" d="M389.3,416.9c-10.1-9-25.7-8.2-34.7,1.9s-8.2,25.7,1.9,34.7s25.7,8.2,34.7-1.9
		C400.3,441.6,399.4,426,389.3,416.9L389.3,416.9z"/>
	<path class="st1" d="M310.7,522.5c0,0,34.6-56.7,86.9-66.8c0.7-16.7,2.9-27.9,15.1-42.9 M293,506.7c0,0,52.5-40.8,56.7-93.8
		c16.5-2.6,29.4-6.5,43-20.3"/>
	<path class="st1" d="M305.5,511c3.8,3.4,9.8,3.1,13.2-0.7c3.4-3.8,3.1-9.8-0.7-13.2c-3.8-3.4-9.8-3.1-13.2,0.7
		C301.3,501.7,301.6,507.6,305.5,511L305.5,511z M323.5,490.8c3.8,3.4,9.8,3.1,13.2-0.7c3.4-3.8,3.1-9.8-0.7-13.2
		c-3.8-3.4-9.8-3.1-13.2,0.7C319.3,481.4,319.7,487.4,323.5,490.8L323.5,490.8z"/>
	<path class="st1" d="M345.7,436.6c0,0-11.8,22.2-6.6,36.3c14.6,3.6,35.4-10.6,35.4-10.6"/>
	<path class="st1" d="M521.9,421.8c-6.9,6.2-7.5,16.8-1.3,23.7c6.2,6.9,16.8,7.5,23.7,1.3s7.5-16.8,1.3-23.7
		C539.5,416.2,528.8,415.6,521.9,421.8L521.9,421.8z"/>
	<path class="st1" d="M528.4,429.1c-2.9,2.6-3.2,7.1-0.6,10c2.6,2.9,7.1,3.2,10,0.6s3.2-7.1,0.6-10
		C535.8,426.7,531.3,426.5,528.4,429.1L528.4,429.1z"/>
	<path class="st1" d="M516.7,416c10.1-9,25.7-8.2,34.7,1.9s8.2,25.7-1.9,34.7c-10.1,9-25.7,8.2-34.7-1.9
		C505.7,440.6,506.6,425,516.7,416L516.7,416z"/>
	<path class="st1" d="M595.3,521.6c0,0-34.6-56.7-86.9-66.8c-0.7-16.7-1.7-28.1-13.9-43.2 M613,505.8c0,0-52.5-40.8-56.7-93.8
		c-16.5-2.6-27.1-5.6-40.7-19.4"/>
	<path class="st1" d="M600.6,510.1c-3.8,3.4-9.8,3.1-13.2-0.7s-3.1-9.8,0.7-13.2c3.8-3.4,9.8-3.1,13.2,0.7S604.4,506.7,600.6,510.1
		L600.6,510.1z M582.5,489.9c-3.8,3.4-9.8,3.1-13.2-0.7c-3.4-3.8-3.1-9.8,0.7-13.2c3.8-3.4,9.8-3.1,13.2,0.7
		C586.7,480.5,586.3,486.4,582.5,489.9L582.5,489.9z"/>
	<path class="st1" d="M560.3,435.7c0,0,11.8,22.2,6.6,36.3c-14.6,3.6-35.4-10.6-35.4-10.6"/>
	<path class="st5" d="M441.3,424.6l8.3-47.7h10.2l8.6,47.5C468.4,424.4,456,432.4,441.3,424.6L441.3,424.6z M414.8,412.3
		c10,12,26.4,12.3,26.6,12.3l8.4-47.6H438L414.8,412.3L414.8,412.3z M393.8,392.3c7.2,15,14.1,17.4,21,20.2l23.1-35.6h-17.2
		L393.8,392.3L393.8,392.3z M387,376.9c-0.6,5.6,2.6,12.5,7.1,15.2l26.7-15.2h-17.2H387L387,376.9z"/>
	<path class="st1" d="M441.7,426l12.5,16.6l14.2-17.2 M454.6,427.7v14.5"/>
	<path class="st5" d="M495.1,412.3c-10,12-26.4,12.3-26.6,12.3l-8.4-47.6H472L495.1,412.3L495.1,412.3z M516.1,392.3
		c-7.2,15-14.1,17.4-21,20.2L472,376.9h17.2L516.1,392.3L516.1,392.3z M523,376.9c0.6,5.6-2.6,12.5-7.1,15.2l-26.7-15.2h17.2H523
		L523,376.9z"/>
	<path class="st1" d="M392.4,394.9l-2.9,20.6l22.2-2 M400.4,405.3l-10.3,10.2"/>
	<path class="st1" d="M515.6,393.1l2.8,19.9h-22.3 M506.8,403.5l10.9,9.6"/>
</g>
</svg>
