<?xml version="1.0" encoding="utf-8"?>
<!-- Generator: Adobe Illustrator 27.8.1, SVG Export Plug-In . SVG Version: 6.00 Build 0)  -->
<svg version="1.1" id="fd90b8a3-4437-4e53-9ed1-6a62608c98e9"
	 xmlns="http://www.w3.org/2000/svg" xmlns:xlink="http://www.w3.org/1999/xlink" x="0px" y="0px" viewBox="0 0 901.3 699.5"
	 style="enable-background:new 0 0 901.3 699.5;" xml:space="preserve">
<style type="text/css">
	.st0{fill-rule:evenodd;clip-rule:evenodd;fill:#1D1D1B;}
	.st1{fill-rule:evenodd;clip-rule:evenodd;fill:#FFFFFF;}
	.st2{fill:none;}
	.st3{fill:#FFFFFF;}
	.st4{fill-rule:evenodd;clip-rule:evenodd;fill:#E30613;}
	.st5{fill-rule:evenodd;clip-rule:evenodd;fill:#FBBA00;}
	.st6{fill:#1D1D1B;}
	.st7{fill:#00497B;}
</style>
<g id="g4095" transform="matrix(1.0999968,0,0,1.0999968,0,-16.552467)">
	<path id="path8" class="st0" d="M229.2,143.3c-0.4,3.6-0.5,6.2-1,10.5c-1.2,11.2-9.9,15.1-12.9,24.8h-1.9c-1.3,2.6-4.3,3.8-6.7,6.3
		c-2.3,2.4-4.9,8.3-8.7,8.7c-1.2,0-0.9-0.3-2.4-1c-3.2-1.4-1.9-1.1-4.3-3.8c-0.8-0.9-2.3-1.2-2.9-1.9c-1.7-2.2-2.2-5.6-4.3-6.7
		c-0.6-6.1-3.6-15.3,0-22c1.9-0.5,3.3-2.2,3.3-4.2c3.5-1.4,5.3-4.7,7.2-7.7c8.2-3.6,12.8-10.8,24.8-10.5c3.5,2.2,6.1,5.5,9.6,7.7"/>
	<path id="path10" class="st0" d="M263.5,174c0.8,0.4-2.2,1-2.8,1.4C261,174.2,262.3,173.6,263.5,174L263.5,174"/>
	<path id="path12" class="st1" d="M282.6,176.3c-4.1,0.7-9.9,2.2-13.8,1.4C270.9,175.2,279.1,174.2,282.6,176.3"/>
	<path id="path14" class="st0" d="M291.7,185.4c0-0.8,2.6-0.8,1.9,0.5C292.8,185.9,292.6,185.3,291.7,185.4"/>
	<path id="path16" class="st0" d="M270.7,199.3c-3.5,1.8-7.3,3.4-11,4.7C262.2,201.3,266.3,200.3,270.7,199.3"/>
	<path id="path18" class="st0" d="M257.8,205c-2.5,2-5.5,3.4-8.6,4.3C250.3,206.4,255.1,204.8,257.8,205"/>
	<path id="path20" class="st0" d="M246.7,209c1.3-0.4,0.9,0.9,1.9,0.9c-1.6,0.6-2.3,2.1-4.7,1.9C243.6,209.6,246.9,211.1,246.7,209"
		/>
	<path id="path22" class="st0" d="M241.5,209.4c-0.2,1.2-1.2,1.6-2.4,1.9C239.3,210,240.4,209.7,241.5,209.4"/>
	<path id="path24" class="st0" d="M188,211.3c0,0.9-1.6,0.3-1.4,1.4C185.2,212.2,187.4,210.1,188,211.3"/>
	<path id="path26" class="st0" d="M238.7,214.2c-2.1,3.1-6.2,4.3-9.1,6.7c-0.7-2.1,1.4-1.5,1-3.3
		C234.3,217.6,235.7,214.9,238.7,214.2"/>
	<path id="path28" class="st0" d="M227.7,219h1.5c-0.9,3-3.6,5.4-6.8,5.8c1.2-0.9,0.7-3.4,1.9-4.3c0.8,0.8,2,0.8,2.7,0
		C227.5,220,227.7,219.5,227.7,219"/>
	<path id="path30" class="st0" d="M220.5,222.3h1.9C222.9,223.9,219.8,224.5,220.5,222.3"/>
	<path id="path32" class="st0" d="M201.8,278.3c1.9,0.6-0.1,1,0,2.4C200.4,280.3,202.1,279.2,201.8,278.3"/>
	<path id="path34" class="st0" d="M198.9,280.2c1.6,0.2,0.5,2.6,0,3.3C196.5,283.3,199.2,281.4,198.9,280.2"/>
	<path id="path36" class="st1" d="M169.8,281.6C171,280,170.9,284.1,169.8,281.6"/>
	<path id="path38" class="st0" d="M198,284.9c0.8,4.4-2.6,8.9-3.3,13.4c-2.6-3.9,3-7.4,2.4-12.4C197.9,286,198,285.4,198,284.9"/>
	<path id="path40" class="st0" d="M198,293.6c0,1.2-0.2,2-1.4,1.9C196.7,294.5,196.7,293.4,198,293.6"/>
	<path id="path42" class="st0" d="M188.4,302.7h1.5c0.5,1.5-0.7,1.2-0.9,1.9C188.3,304.5,188.6,303.4,188.4,302.7"/>
	<path id="path44" class="st0" d="M179.5,335.2h1c0.2,1-0.7,0.9-1.4,0.9C179,335.7,179.5,335.6,179.5,335.2"/>
	<path id="path46" class="st0" d="M171.6,342.5c0.3,1.7-1,1.9-2.4,1.9C169.2,343,170,342.4,171.6,342.5"/>
	<path id="path48" class="st0" d="M172.1,344.7c2.1,0,0.3,1.9,0,2.4C170.7,346.7,172.4,345.6,172.1,344.7"/>
	<path id="path50" class="st0" d="M167.9,349.6c-0.4,0.8-0.9,1.7-2.4,1.4C165.7,349.9,166.9,348.6,167.9,349.6"/>
	<path id="path52" class="st0" d="M166.9,354.8c0.8,1.4-1.5,6-3.3,4.7C164.1,357.4,166.1,356.8,166.9,354.8"/>
	<path id="path54" class="st0" d="M162.1,361.5c2.4,1.6-2.6,3.6-2.4,6.3C157.1,365.7,161.4,363.3,162.1,361.5"/>
	<path id="path56" class="st0" d="M163,363.4c1,0.3,1,0.7,0.5,1.4h-1C162.5,364.1,163,364,163,363.4"/>
	<path id="path58" class="st0" d="M152.5,370.2h1.9c0.1,1-0.7,1.8-1.7,1.9c-0.1,0-0.1,0-0.2,0V370.2z"/>
	<path id="path60" class="st0" d="M230.5,372.5c1.8-0.7,0.9,1.3,2.4,1C232.5,374.5,230.3,373.7,230.5,372.5"/>
	<path id="path62" class="st0" d="M152.5,375.8c1.1,0.3,0.2,2.4-1,1.9C151.6,376.8,152.8,377.1,152.5,375.8"/>
	<path id="path64" class="st0" d="M149.7,376.3c0.8,1,0,0.6,0,1.9h-1.9c-0.1-1,0.7-1.8,1.7-1.9C149.5,376.3,149.6,376.3,149.7,376.3
		"/>
	<path id="path66" class="st0" d="M152,381.8c-0.4,0.6-1.1,1-1.9,0.9c-0.1-0.6,0.4-1.2,1-1.2C151.4,381.4,151.8,381.5,152,381.8"/>
	<path id="path68" class="st0" d="M135.7,393.1h1.4c0.1,1.4-0.9,1.6-1.4,2.4C134.3,395.1,136,393.9,135.7,393.1"/>
	<path id="path70" class="st0" d="M140.2,393.1c1.5,0.5-0.5,1.3-0.5,1.9C138.2,394.5,140.2,393.7,140.2,393.1"/>
	<path id="path72" class="st0" d="M130.5,405c1.2,0.5-0.4,2.1-1.4,1.9C128.7,405.4,130.6,406.3,130.5,405"/>
	<path id="path74" class="st0" d="M82.2,406c-0.6,0.9-0.3,2.9-2.4,2.4c-0.1-1.3,0.9-2.3,2.2-2.4C82,406,82.1,406,82.2,406"/>
	<path id="path76" class="st1" d="M88.9,410.8h1.5c-0.2,0.6-0.8,0.8-0.9,1.4c-0.6,0-0.4-0.9-0.5-1.4"/>
	<path id="path78" class="st0" d="M90.8,429.5c1.5,1.1-0.8,2.3-2.4,1.9C89.2,430.7,90.3,430.4,90.8,429.5"/>
	<path id="path80" class="st0" d="M89.9,432.3c0,2-2.6,1.6-4.3,1.9C86.8,433.2,88.3,432.6,89.9,432.3"/>
	<path id="path82" class="st2" d="M166.9,225.1c2.3-0.7,4.4-1.8,6.3-3.3C170.8,222.5,168.7,223.6,166.9,225.1z"/>
	<path id="path84" class="st2" d="M175,325.6c-0.7,2.4-2.8,3.5-3.3,6.2C174.2,331.5,175,326.9,175,325.6z"/>
	<path id="path86" class="st2" d="M169.8,281.6C170.9,284.1,171,280,169.8,281.6z"/>
	<path id="path88" class="st2" d="M89.4,412.2c0-0.7,0.8-0.8,0.9-1.4h-1.4C89,411.4,88.8,412.2,89.4,412.2z"/>
	<path id="path90" class="st2" d="M175,220.9c1.5-0.4,2.8-1.2,3.8-2.4C177.3,218.8,175.9,219.6,175,220.9z"/>
	<path id="path92" class="st2" d="M181.2,217.1C178.3,217.4,180.2,219.3,181.2,217.1z"/>
	<path id="path94" class="st2" d="M211.4,200.8c-5.3,4.6-12.4,7.4-17.7,11.9c3.1-1.2,6.1-2.9,8.6-5.3c4.2-2,8.4-4.2,12.4-6.7
		c4.1-2.3,10.5-4.8,13.8-7.2c1.7-1.2,3.9-1.8,4.7-2.4c1.6-1.1,3.9-1.8,4.7-2.4c0.5-0.2,0.9-0.4,1.4-0.5c6.4-3.2,13.1-5.7,20.1-7.2
		c0.8-1.6,2.9-1.9,3.8-3.3c-17.7,6-34.6,13.8-50.7,23.4C212.2,201.1,212.1,200.6,211.4,200.8z"/>
	<path id="path96" class="st2" d="M268.8,177.8c4,0.7,9.7-0.8,13.8-1.4C279,174.2,270.9,175.3,268.8,177.8z"/>
	<path id="path98" class="st2" d="M202.8,257.8c-1.2,1.5-1.9,8.5-1,9.1v-3.3c1.7-2.5,2-5.8,1-8.6V257.8z"/>
	<path id="path100" class="st2" d="M175,325.6c-0.7,2.4-2.8,3.5-3.3,6.2C174.2,331.5,175,326.9,175,325.6z"/>
	<path id="path102" class="st2" d="M166.9,225.1c2.3-0.7,4.4-1.8,6.3-3.3C170.8,222.5,168.7,223.6,166.9,225.1z"/>
	<path id="path104" class="st2" d="M89.4,412.2c0-0.7,0.8-0.8,0.9-1.4h-1.4C89,411.4,88.8,412.2,89.4,412.2z"/>
	<path id="path106" class="st2" d="M169.8,281.6C170.9,284.1,171,280,169.8,281.6z"/>
	<path id="path108" class="st2" d="M175,220.9c1.5-0.4,2.8-1.2,3.8-2.4C177.3,218.8,175.9,219.6,175,220.9z"/>
	<path id="path110" class="st2" d="M181.2,217.1C178.3,217.4,180.2,219.3,181.2,217.1z"/>
	<path id="path112" class="st2" d="M211.4,200.8c-5.3,4.6-12.4,7.4-17.7,11.9c3.1-1.2,6.1-2.9,8.6-5.3c4.2-2,8.4-4.2,12.4-6.7
		c4.1-2.3,10.5-4.8,13.8-7.2c1.7-1.2,3.9-1.8,4.7-2.4c1.6-1.1,3.9-1.8,4.7-2.4c0.5-0.2,0.9-0.4,1.4-0.5c6.4-3.2,13.1-5.7,20.1-7.2
		c0.8-1.6,2.9-1.9,3.8-3.3c-17.7,6-34.6,13.8-50.7,23.4C212.2,201.1,212.1,200.6,211.4,200.8z"/>
	<path id="path114" class="st2" d="M268.8,177.8c4,0.7,9.7-0.8,13.8-1.4C279,174.2,270.9,175.3,268.8,177.8z"/>
	<path id="path116" class="st2" d="M202.8,257.8c-1.2,1.5-1.9,8.5-1,9.1v-3.3c1.7-2.5,2-5.8,1-8.6V257.8z"/>
	<path id="path118" class="st2" d="M166.9,225.1L166.9,225.1c1-0.8,2.1-1.5,3.2-2.1C169,223.6,167.9,224.3,166.9,225.1z"/>
	<path id="path120" class="st2" d="M173.1,221.8c-1.1,0.9-2.2,1.6-3.4,2.2C170.9,223.4,172,222.7,173.1,221.8L173.1,221.8z"/>
	<path id="path122" class="st2" d="M175,325.6c-0.7,2.4-2.8,3.5-3.3,6.2C174.2,331.5,175,326.9,175,325.6z"/>
	<path id="path124" class="st2" d="M175,220.9c0.9-1.3,2.3-2.1,3.8-2.4C177.3,218.8,175.9,219.6,175,220.9z"/>
	<path id="path126" class="st2" d="M169.8,281.6C170.9,284.1,171,280,169.8,281.6z"/>
	<path id="path128" class="st2" d="M89.4,412.2c0-0.7,0.8-0.8,0.9-1.4h-1.4C89,411.4,88.8,412.2,89.4,412.2z"/>
	<path id="path130" class="st2" d="M202.8,257.8c-1.2,1.5-1.9,8.5-1,9.1v-3.3c1.7-2.5,2-5.8,1-8.6V257.8z"/>
	<path id="path132" class="st2" d="M202.3,207.5c4.2-2,8.4-4.2,12.4-6.7c3.6-2,9-4.2,12.5-6.3c-3.5,2-8.8,4.2-12.5,6.3
		C210.7,203.2,206.5,205.4,202.3,207.5z"/>
	<path id="path134" class="st2" d="M268.8,177.8c4,0.7,9.7-0.8,13.8-1.4C279,174.2,270.9,175.3,268.8,177.8z"/>
	<path id="path136" class="st2" d="M193.6,212.7L193.6,212.7c1.3-1.1,2.7-2.2,4.2-3.1C196.4,210.5,195,211.6,193.6,212.7z"/>
	<path id="path138" class="st2" d="M180,218.1c0.3,0,0.9-0.2,1.2-1.1l0,0C180.8,217.9,180.3,218.2,180,218.1z"/>
	<path id="path140" class="st2" d="M175,220.9c1.5-0.4,2.8-1.2,3.8-2.4C177.3,218.8,175.9,219.6,175,220.9z"/>
	<path id="path142" class="st2" d="M175,325.6c-0.7,2.4-2.8,3.5-3.3,6.2C174.2,331.5,175,326.9,175,325.6z"/>
	<path id="path144" class="st2" d="M89.4,412.2c0-0.7,0.8-0.8,0.9-1.4h-1.4C89,411.4,88.8,412.2,89.4,412.2z"/>
	<path id="path146" class="st2" d="M181.2,217.1c-1.8,0.2-1.8,1-1.2,1.1C180.5,218.2,180.8,217.9,181.2,217.1z"/>
	<path id="path148" class="st2" d="M173.1,221.8L173.1,221.8c-1,0.3-2,0.7-3,1.2c-1.1,0.6-2.2,1.3-3.2,2.1l0,0
		c0.9-0.3,1.8-0.6,2.6-1.1c1.2-0.6,2.4-1.4,3.4-2.2H173.1z"/>
	<path id="path150" class="st2" d="M169.8,281.6C170.9,284.1,171,280,169.8,281.6z"/>
	<path id="path152" class="st2" d="M202.4,258.4c-0.9,2.6-1.2,5.5-0.7,8.2C201.2,263.8,201.4,261,202.4,258.4z"/>
	<path id="path154" class="st2" d="M211.4,200.8c-4.2,3.2-8.8,6.2-13.4,8.8c-1.5,0.9-2.9,2-4.2,3.1l0,0c3.1-1.2,6.1-2.9,8.6-5.3
		c4.2-2,8.4-4.2,12.4-6.7c3.6-2,9-4.2,12.5-6.3l1.4-0.9c1.7-1.2,3.9-1.8,4.7-2.4c1.6-1.1,3.9-1.8,4.7-2.4c0.5-0.2,0.9-0.4,1.4-0.5
		c6.4-3.2,13.1-5.7,20.1-7.2c0.8-1.6,2.9-1.9,3.8-3.3c-17.7,6-34.6,13.8-50.7,23.4C212.2,201.1,212.1,200.6,211.4,200.8z"/>
	<path id="path156" class="st3" d="M202.8,257.8c-0.2,0.2-0.3,0.4-0.4,0.7C202.5,258.2,202.6,258,202.8,257.8z"/>
	<path id="path158" class="st0" d="M112.8,381.8c1.2,0-0.6,0.8,0,1.9c-0.4,0-0.5-0.5-1-0.5v-0.9
		C112.4,382.2,112.7,382.2,112.8,381.8"/>
	<path id="path160" class="st2" d="M171.6,331.9L171.6,331.9c2.6-0.4,3.3-4.9,3.3-6.2C175,326.9,174.2,331.5,171.6,331.9z"/>
	<path id="path162" class="st2" d="M173.1,221.8L173.1,221.8c-1,0.3-2,0.7-3,1.2c-1.1,0.6-2.2,1.3-3.2,2.1l0,0
		c0.9-0.3,1.8-0.6,2.6-1.1c1.2-0.6,2.4-1.4,3.4-2.2H173.1z"/>
	<path id="path164" class="st2" d="M89.4,412.2c0-0.7,0.8-0.8,0.9-1.4h-1.4C89,411.4,88.8,412.2,89.4,412.2z"/>
	<path id="path166" class="st2" d="M175,220.9c1.5-0.4,2.8-1.2,3.8-2.4C177.3,218.8,175.9,219.6,175,220.9z"/>
	<path id="path168" class="st2" d="M202.8,257.8c-0.2,0.2-0.3,0.4-0.4,0.7c-0.9,2.6-1.2,5.5-0.7,8.2l0.2,0.2v-3.3
		c1.7-2.5,2-5.8,1-8.6v2.8H202.8z"/>
	<path id="path170" class="st2" d="M211.4,200.8c-4.2,3.2-8.8,6.2-13.4,8.8c-1.5,0.9-2.9,2-4.2,3.1l0,0c3.1-1.2,6.1-2.9,8.6-5.3
		c4.2-2,8.4-4.2,12.4-6.7c3.6-2,9-4.2,12.5-6.3l1.4-0.9c1.7-1.2,3.9-1.8,4.7-2.4c1.6-1.1,3.9-1.8,4.7-2.4c0.5-0.2,0.9-0.4,1.4-0.5
		c6.4-3.2,13.1-5.7,20.1-7.2c0.8-1.6,2.9-1.9,3.8-3.3c-17.7,6-34.6,13.8-50.7,23.4C212.2,201.1,212.1,200.6,211.4,200.8z"/>
	<path id="path172" class="st2" d="M181.2,217.1c-1.8,0.2-1.8,1-1.2,1.1C180.5,218.2,180.8,217.9,181.2,217.1z"/>
	<path id="path174" d="M293.2,182.1c1.6,0.4,3.1,0.7,4.7,1c0-1.1,0-1.8,0.9-1.9c0.4,1.5,1,1.5,2.4,0.9c0-2.2-3.1-2.6-4.7-3.3v-0.9
		c0-0.1-1.4,0.2-1.9,0c-1.3-0.5-2.6-2-3.8-2.4c-1.2-0.3-3.8-0.7-5.8-1c-1.6-0.3-3.2-0.4-4.7-0.5c-14.3,0-29.4,5.9-39.3,11
		c-12.2,4.9-23.8,11.1-34.9,18.2c-6.1,1.1-9.9,7-15.3,7.2c-0.4,3.3-4.3,3-6.3,4.7c0.2-0.9,1.3-0.9,1-2.4c-1.9,0.4-3.6,1.2-5.3,2.4
		c-5.3,2.9-11.7,6.6-16.3,9.6c-2.6,1.7-5.8,3-8.6,4.7c-7,4.1-13.8,8.3-20.4,11.9c-7.2,3.9-16.9,7.2-22,12.4c0.4,2.5-0.2,4.3,0,7.7
		c-0.4,0.8-1.3,1.2-1,2.8c5.9,1.5,6.7,8,13.8,8.2v1.4c2,0,2.4-1.7,3.8-2.4c3.6,0.1,7.3-0.7,10.5-2.4c2.4,0.4,3.6-1.6,5.8-2.4
		c2.8-1.1,5.9-0.9,7.2-2.4c0.6,0,0.4,0.8,1,1c0.4-1.2,1.7-1.4,2.4-2.4v1.4c1.9-0.2,3.1-2.6,0.9-2.8c1-0.2,2,0,2.9,0.5
		c0-1.9,1.5-2.3,2.9-2.9c0,0.6-0.6,0.7-0.5,1.4c2,0.3,1.5-2,2.4-2.8c1.5,0.4,1.6-1.3,2.9-1.9c0.5-0.2,0.9,1,1.4,1
		c1.2-0.2,0.4-1.6,1.4-1.9c-0.4,4-3.4,9.5-1.4,12.9c-8.2,29-20.8,56.7-37.4,81.8c-3.1,3.1-5.6,6.9-7.2,11c-2.6,1.3-2.7,4.8-5.8,5.8
		c-4.3,8.1-10.9,14-15.8,21.5c-4,3.1-7.6,6.9-10.5,11c-2.4,0.3-3.2,2.7-4.7,4.3c-3.5,3.4-8.3,6.4-9.6,10.1
		c10.4-8.1,20.3-16.9,29.7-26.2c0.5-3.4,4.4-3.6,4.7-7.2c2.6-0.6,2.6-3.1,3.8-4.7c0.8-1.1,2.6-1.8,3.3-2.9c1.8-2.4,3.4-4.9,4.7-7.7
		c2-2,3.7-4.2,5.3-6.7c1.7-2.6,2.8-5.3,4.3-7.7c0.9-1,1.8-2,2.9-2.8c1.7-2.6,3.4-5.7,5.3-8.6c2.1-3.3,3.8-6.8,5.3-10.5
		c2.3-2.8,3.9-6.1,4.7-9.6c2.8-2.3,3.2-6.3,4.7-9.6c0,0,0.9,0,1,0c0.6-1.2,0.8-3.2,1.4-4.7c2.9-7,6.8-16.6,9.6-22.9
		c-0.4,7.6-3.3,12.5-4.7,19.1c-0.6,0-1.2,0.4-1.4,0.9c-1.5,3.6-1.8,6.2-3.3,9.6c-0.6,1.3-1.8,2.6-2.4,3.8c-0.2,0.5,0.3,1.4,0,1.9
		c-1.5,3-4.2,5.6-4.7,9.1c-3.3,2.7-3.6,8.4-7.2,11c0.4,2.6-1.7,3.1-2.4,4.3c-0.7,1.1-1.5,3.3-2.4,4.7c-3.3,5.4-7,10.6-10.5,15.8
		c-2.8,3.4-5.5,7.1-7.7,11c-2.6,1.2-2.6,5.1-5.8,5.8c-1.1,4.1-5.2,5.5-6.2,9.6c-3,1.8-6.4,6.7-10.1,10.1c-2.4,1.9-4.6,3.9-6.7,6.2
		c0,0,1.6,0.3,1,1c-1.3,0-1.1,1.4-2.4,1.4c0-0.5,0.7-0.8,0-1c-0.8,1.8-1.3,0.9-0.9,2.9c-2,0.8-3.7,2.3-4.7,4.3
		c0.9,0.5,1.6-1.4,1.9,0c-2,1.5-3.7,5.9-6.7,4.7c0.8-1.5,4.8-2.1,3.3-4.3c-1.2,1.9-4,2.3-4.7,4.7c1.7-0.4,1.6,0.7,1,1.4
		c2-0.3,4-1.2,5.8-2.4c0,2.3-2.6,2-3.3,3.8c0.9,0.4,1.9,0.8,2.9,0.9c0-0.5,0-1.3,0.5-1.4c4.8-0.3,6.6-3.7,10.5-4.7
		c0,0.7,0.8,0.8,1,1.4c-5.6,2-10.7,4.8-15.4,8.6c3.4,0.3,4.7-2.9,7.2-1c2.2-1.4,4.2-2.9,6.3-4.3c3.1-2.1,6.5-5.3,9.1-5.8
		c-9.1,8.3-19.6,14.7-31.1,19.1c0,0.9-0.6,0.9-0.9,1.4c8.2-0.5,12.8-6.8,20.1-6.7c-0.5,0-1.1-0.8-0.5-0.9c0.6,1.5,1.7,0.6,2.8,0
		c0.2-0.9-0.6-1-0.9-1.4c2.6-0.5,4.4-4.1,6.7-3.3c-1.3-0.2-3.1,1.6-1.9,2.4c1-1,5.3-2,2.4-3.8c7.9-3.9,13.7-12.7,20.6-16.3
		c-4.7,4.4-8.7,9.8-14.8,12.9c-0.9,3.7-4.5,4.6-6.2,7.7c11.1-5.3,17.5-15.1,25.9-23c0.7,0,1.8,0.2,1.9-0.5c-1.7-3.6,5-2.9,5.3-6.2
		c-0.6,0-1.1-0.2-1-1c2.7-2.3,3.7-6.5,6.7-8.6c0.3,1.5-0.8,1.4-0.5,2.9c3.2,0.2,0.2-3.5,2.8-3.3c0.1-0.7-0.1-1.3-0.5-1.9
		c1.6-0.6,3.6-0.9,3.8-2.9c-0.7,0-1.7,0.2-1.9-0.5c0.9-0.5,1.9-0.7,2.9-0.5c-0.5-4.1,3.4-7.2,5.3-10.5h1.9c-0.7-3.3,2.6-2.6,3.8-5.3
		c0.2-1.1-2.2,0.3-1.4-1.4c0.7-0.3,2.6,0.5,2.4-0.5c-0.7-0.8-0.7-2.1,0.1-2.8c0.5-0.4,1.1-0.6,1.8-0.5c0.2-1.1-0.9-1-0.5-2.4
		c1.5-1.5,4-2,4.7-4.3c0-0.8-1.2-0.4-0.9-1.4c3-3.1,3.2-9.7,7.7-10.1c0.1-0.9-0.6-0.9-1-1.4c1.3-1.1,3.4-1.3,3.8-3.3
		c-0.9-0.9-1.5,0.6-1.9-0.9c1.5,0.4,1.5-0.8,2.4-1c-0.2-1.7-1.3-1.1-0.5-2.8c2.4-3.3,3.1-8.4,6.7-10.5c-1.6-3.8,3.1-4.6,3.8-7.7
		c-1.6-0.5-1.1-0.5-1-2.4c1,1.3,2.4,0.6,2.9-1c-1.5-0.9-1.5,1.9-1.9,0.5c0.1-3.8,1.8-7.6,4.7-10.1c-0.6,0-1.1-0.2-1-1
		c0.9-1.2,3.1-1,2.9-3.3c0.2-1.1-2.2,0.3-1.4-1.4c2.8,0.2,1.3-1.4,1.4-3.3c2.1-0.5,3.1-1.8,0.9-1.9c0.9-2.3,5.9-6.5,2.4-8.6
		c1-1.5,2.1-2.9,3.3-4.3c-0.6-1.2-1.4,0.9-1.9-0.5c1.7-2.4,1.5-6.8,4.3-8.2c0.3,1.3-1.7,4.2,0,4.7c4.9-10.8,4.4-28.8,6.2-41.1
		c1.7-0.3,1.9-1.9,3.8-1.9V227c2.6-1.2,3.7-4.1,5.3-6.7c4.7-2.5,9.1-5.8,12.9-9.6c0,0.7,1,0.5,1.4,1c2.8-3.6,7-6.1,11.5-6.7
		c0.8-1.7-1.6-0.3-1.4-1.4c2.6-1.7,3.8,1,6.2,0h-1.4c1.7-2.2,4-3.9,6.7-4.7c-0.4,0-0.5-0.4-0.5-1c2.7-1.1,4.5,0,6.2-0.5
		c-2.6,2.8-8.8,2.4-10.5,6.3c0.8,0,1.7,0,1.4,0.9c2-0.5,4.3-0.8,5.3-2.4c-1.2-0.4-2.6,1.4-3.3,0c2.6-1.3,5.4-2.4,8.2-3.3
		c2.5-1.4,5-2.7,7.7-3.8l6.3-1.9c1.3-0.4,3.1,0.5,3.8-1.4c-7.2,0.4-12.3,3-18.2,4.7c1.1-3,5.9-2.4,7.7-4.7c-3.3-0.4-4.1,2.3-7.2,1
		c0,1.2-0.7,1.5-1.4,1.9c0-0.6,0.7-0.9-0.5-1c-2.8,0.4-5.3,2-6.7,4.4c-1.7,1.8-4.4,1.5-6.7,2.4c-5.3,2.1-8.8,7.1-13.3,7.7
		c2.6-2.9,5.9-5.3,9.6-6.7c0-1.4,1.1-1.7,1.9-2.4c8.3-4.4,17.4-8.1,26.2-11.9c-0.5,0-1.3,0-1.4-0.5c6.8-3.5,16.1-2.3,23.5-1.4
		c0.7-0.5,1.1-1.4,2.4-1.4c3.1,1.2,6.3,2.2,9.6,2.9C299.4,185.1,295.9,183.9,293.2,182.1z M169.6,224c-0.8,0.4-1.7,0.8-2.6,1.1l0,0
		c1-0.8,2.1-1.5,3.2-2.1c0.9-0.5,1.9-0.9,3-1.2l0,0C172.1,222.6,170.9,223.4,169.6,224L169.6,224z M175,220.8
		c0.9-1.3,2.3-2.1,3.8-2.4C177.9,219.6,176.5,220.5,175,220.8L175,220.8z M180,218.1c-0.6,0-0.6-0.9,1.2-1.1l0,0
		C180.8,217.9,180.3,218.2,180,218.1L180,218.1z M201.8,263.3v3.3l-0.2-0.2c-0.5-2.7-0.2-5.6,0.7-8.2c0.1-0.2,0.2-0.5,0.4-0.7v-2.9
		C203.8,257.7,203.5,260.9,201.8,263.3L201.8,263.3z M259.7,181.1c-7,1.5-13.7,3.9-20,7.3c-0.5,0.1-1,0.3-1.4,0.5
		c-0.8,0.6-3.1,1.2-4.7,2.4c-0.8,0.6-3.1,1.2-4.7,2.4l-1.4,0.9c-3.5,2-8.8,4.2-12.5,6.3c-4,2.5-8.2,4.7-12.4,6.7
		c-2.5,2.2-5.5,4-8.6,5.3l0,0c1.3-1.1,2.7-2.2,4.2-3.1c4.6-2.6,9.2-5.6,13.4-8.8c0.8,0,0.8,0.4,1.4,0.5c16.1-9.6,33-17.5,50.7-23.4
		C262.6,179.3,260.6,179.6,259.7,181.1L259.7,181.1z"/>
	<path id="path176" class="st0" d="M178.9,334.2c-2,3.2-2.6,7.9-5.8,10.1c0.2-2.1,0.9-3.8,2.8-4.3
		C175.9,337.1,176.2,334.5,178.9,334.2"/>
	<path id="path178" class="st0" d="M170.2,349.6L170.2,349.6"/>
	<path id="path180" class="st1" d="M238.2,354.8c0.8-1.7,0.7,1.1,1.9,0.5C239.6,356.7,238.8,354.7,238.2,354.8"/>
	<path id="path182" class="st0" d="M158.3,367.7c0.9,2.8-2.6,5.5-4.3,7.2C155.2,372.4,156.7,370.1,158.3,367.7"/>
	<path id="path184" class="st0" d="M142,392.6c-0.6-1,0.7-4.1,1.9-5.3c0.2-0.2,1.3-0.3,1.4-0.5c1.6-2.4,2-6.8,4.7-6.3
		C147.7,384.9,144.3,388.2,142,392.6"/>
	<path id="path186" class="st0" d="M135.7,398.9c0.2,2.3-1.4,4.5-3.8,4.7C132.3,401,135,401,135.7,398.9"/>
	<path id="path188" class="st0" d="M78.4,421.3c-0.3,1-2.2,0.3-2.4,1.4C74.9,422.3,76.9,420.8,78.4,421.3"/>
	<path id="path190" class="st0" d="M84.5,421.8c-0.1,2.3-3.1,1.7-4.3,2.9C81.2,423.1,82.8,422.1,84.5,421.8"/>
	<path id="path192" class="st1" d="M9.5,502.2c0.2,1.5-1.5,1.1-1,2.9C7.7,506.3,7.9,501.6,9.5,502.2"/>
	<path id="path194" class="st1" d="M7.1,505.5c0.9-0.1,0,1.8-0.9,1.4C5.9,505.9,7.1,506.2,7.1,505.5"/>
	<path id="path196" class="st0" d="M298.5,192.1c-3.7,0.4-9-1.8-13.8-1.9c-0.4,1.9,2.6,0.3,2.9,1.4c-2.5,0.8-5.2,0.8-7.7,0
		c0-2,2.6-1.4,3.8-1c-1.3-1.8-4.9-1.4-7.7-1.9c-1.7,1.6-6.1,0.7-8.6,1.4c1.8-1,3.4-2.3,4.7-3.8c9.1-0.7,18.2,1.3,26.2,5.8"/>
	<path id="path198" class="st2" d="M248.2,375.8c-0.6,0-0.2-0.8-0.5-0.9c-2.4-1.1-5.5-1.2-7.7-2.9c-0.6,0-1.3,0-1.4,0.5
		c3.9,3.3,8.8,5.3,13.8,5.8C251.9,376.9,249.1,376.1,248.2,375.8z"/>
	<path id="path200" class="st2" d="M240.1,355.3c-1.2,0.6-1.1-2.2-1.9-0.5C238.8,354.7,239.7,356.7,240.1,355.3z"/>
	<path id="path202" class="st3" d="M248.2,375.8c-0.6,0-0.2-0.8-0.5-0.9c-2.4-1.1-5.5-1.2-7.7-2.9c-0.6,0-1.3,0-1.4,0.5
		c3.9,3.3,8.8,5.3,13.8,5.8C251.9,376.9,249.1,376.1,248.2,375.8z"/>
	<path id="path204" class="st2" d="M248.2,375.8c-0.6,0-0.2-0.8-0.5-0.9L240,372c-0.6,0-1.3,0-1.4,0.5c3.9,3.3,8.8,5.3,13.8,5.8
		C251.9,376.9,249.1,376.1,248.2,375.8z"/>
	<path id="path206" d="M269.8,378.2c-0.5-0.7-0.7-1.5-0.5-2.4c-2-0.2-3,0.2-3.8-0.5c2.9-0.9,7.5-0.2,9.6-1.9
		c-5.1-0.4-11.9,1-14.8-1.4c1.6,0.2,3.3-0.1,4.7-1c-3-1.1-6.8-1.6-9.6-2.8c3.1,0.4,6.4,0.6,9.6,0.5c1.8,0,4.7,0.8,5.3-0.9
		c-7.4,0.3-14.1-3.5-21.5-4.7c0-0.9-1.3-0.6-1-1.9c-2.9,0.5-3.7-1-5.3-1.9c2.1,0.7,2.6,0,3.3-1.4c-7.9-4.9-13.7-11.8-20.1-18.3
		c-0.4-0.8-1.3-1.2-1-2.8l-2.9-1.4c-1.4-2.3-3-4.5-4.7-6.7c-0.6-0.7-1.8-1.2-2.4-1.9c-1.8-2.1-3.2-4.9-4.7-6.7
		c-0.6-0.7-1.8-1.2-2.4-1.9c-2.4-2.9-4.3-6.1-6.7-9.1c-2.8-2.7-5.1-6-6.7-9.6c-2.6,0.7-1.7,3.4-2.4,5.3c-0.7,1.8-2.2,3.7-2.8,5.8
		c-0.2,1.6-0.5,3.2-1,4.7c-1,2.1-3.3,3.2-3.3,5.8c2,1.1,1.8,4.5,4.7,4.7c6.6,8.8,14.1,16.9,22.5,23.9c4.7,5.6,10.2,10.3,16.3,14.3
		c-0.1,0.7,0.1,1.3,0.5,1.9c2.5-0.2,4.6,1.7,4.7,4.2v0.1c-13.9-10.4-26.7-22.4-37.8-35.9c-0.6-0.5-1.8-0.4-2.4-0.9
		c-3-4-5.5-8.6-9.6-11.5c0,1.5-1.2,1.6-0.9,3.3c0.8-0.3,1.6-0.3,2.4,0c3.1,4.2,6.7,8.3,10.5,11.9c12.1,14.5,26.4,27.3,42.1,37.8
		c5.7,1.6,12,5,19.6,5.8c5,0.7,10.2-0.1,14.8-2.4C271.1,377.4,270.5,376.9,269.8,378.2L269.8,378.2z"/>
	<path id="path208" d="M248.2,375.8c-0.6,0-0.2-0.8-0.5-0.9C248,375,247.7,375.7,248.2,375.8z"/>
	<path id="path210" class="st4" d="M199.8,423.6c2.6-0.2,5.2,0.2,7.7,1c-1.5,1-3.4,1.5-5.3,1.4c-0.5-1.4,1.1-0.8,1.9-0.9
		C203.8,422.7,199.8,427.1,199.8,423.6"/>
	<path id="path212" class="st4" d="M208.9,423.6h1.4v1.4h-1.9C208.7,424.6,208.9,424.1,208.9,423.6"/>
	<path id="path214" class="st5" d="M222.2,426.4c0,0,1-0.9,1.4-0.5C224.1,426.3,221.8,427.2,222.2,426.4"/>
	<path id="path216" class="st5" d="M210.3,427.3c1.2-0.1,2,0.2,1.9,1.4c-3.3,0.2-5.7,1.8-8.2,0C204.9,427.2,210.1,429.8,210.3,427.3
		"/>
	<path id="path218" class="st5" d="M22.7,515.4c3.6,0.2,0.8,4.3-0.5,5.3C20.5,518.8,23.5,517.7,22.7,515.4"/>
	<path id="path220" class="st0" d="M270.4,399.5h2.4c0.2,1.1,2.3,0.2,3.3,0.5c1,0.3,1.2,1,2.4,1c0,0.4,0.2,0.4,0.5,0.5
		c-0.7,1.7,1.7,2.6,2.4,1.4h6.2c2.2,1.3,6.6,0.4,7.7,2.8c-1,0.9-1.9,1.9-2.9,2.9h-1c-1.6,0.3-0.7,1.8-0.5,2.9c-0.4,0-0.9,0-0.9,0.5
		h-1c-1.7,5.2-6.6,8.6-11.9,8.6c-1.5,0.3-2.9,0.8-4.3,1.4c-0.5,0-0.9,0-1,0.5c-0.7-0.2,0-0.4,0-0.9v-0.5c0.5,0,0.4-0.6,0.5-0.9
		c-0.8-1.6-3,1.3-2.8-1c0-0.4,0.2-0.4,0.5-0.5c3-2.2,5.7-4.9,7.7-8.2v-0.5c1.3-0.8,0.5-3.6,1.4-4.7c-2-1.6-6-1.4-9.6-1.4h-2.9
		c-2.1-0.1-4.2,0.3-6.2,0.9h-0.5c-1.8,0.1-3.5,0.4-5.3,0.9h-0.9c-0.7,0.3-2.6-0.5-2.4,0.5h-0.5c-2.1,0-4.2,0.3-6.2,0.9H244
		c-1.3,0.5-3.7,0-4.7,1h-1c-0.8,0-1.8-0.2-1.9,0.5h-1c-3.8,0.3-7.8,1-11.5,1.9h-0.5c-0.7,0-1.8-0.2-1.9,0.5H220
		c-1.6-0.1-3.3,0.2-4.7,0.9h-0.5c-1.7,0.4-2-0.5-2.9-0.9c-0.4,0-0.4-0.2-0.5-0.5c-0.4,0.2-0.9,0.4-1,1l-1.4,1.4h-0.5
		c-0.8,0-1.8-0.2-1.9,0.5h-1c-1.9,0-3.9,0.3-5.8,1h-0.5c-2,0.5-5.1,0-6.3,1.4h-0.5c-1.2-0.2-2.4,0.2-3.3,1h-0.5
		c-1.7,0.1-3.3,0.6-4.7,1.4h-0.5c-1.2,0-2.3,0.3-3.3,1c-1-0.2-1.3,0.3-1.9,0.5c-1.4,0-2.4,0-2.9,0.9h-1c-1-0.1-2.1,0.3-2.8,1
		c-0.5,0.4-1.2,0.6-1.9,0.5c-1.2-0.2-2.4,0.2-3.3,1h-0.4c-1.2,0-2.3,0.3-3.3,0.9c-0.4,0.3-0.9,0.5-1.4,0.5c-1.3-0.2-2.7,0.1-3.8,1
		h-0.5c-1-0.1-2,0.3-2.8,0.9c-0.6,0.4-1.2,0.6-1.9,0.5c-1.5,0-2.9,0-3.3,0.9H148c-5.9,1.4-11.6,3.3-17.2,5.8c-0.6,0-0.9,0-1,0.5
		c-2,0.2-4,0.8-5.8,1.9c-0.4,0-0.5,0.5-1,0.5c-2,0.2-3.9,0.8-5.8,1.9c-0.4,0-0.5,0.5-0.9,0.5c-1.4,0-2.4,0.1-2.9,1h-0.5
		c-2.2,0.3-4.3,1.1-6.2,2.4h-0.5c-1.8,0.3-3.6,0.9-5.3,1.9c-1-0.2-1.3,0.3-1.9,0.5c-4.7,1.6-9.8,2.9-13.3,5.8h-0.5
		c-6,3.3-12.7,5.8-18.3,9.6h-0.5c-1.6,0.4-3.1,1.2-4.3,2.4c-0.4,0.3-0.9,0.5-1.4,0.5c-0.6-0.1-1.2,0.3-1.4,1h-0.5
		c-0.7,0.5-1.9,0.6-2.4,1.4h-0.5c-19.3,9-36.5,22-50.2,38.3c-1.2-0.1-2,0.2-1.9,1.4c-2.1,1.8-0.2-0.4-2.4-1c-0.3-1.6,1-0.8,1.4-0.5
		H4c1.1-0.6,2-1.6,2.4-2.9c0.6-0.6,0.6-1.7-0.5-1.9c0-1.9-1.4-2.6-2.4-2.4c0-0.8,0.5-0.8,0.5-1.4v-1.4c0-1.4,0.6-2.3,2.4-1.9
		c0.3-1.5-0.8-1.4-0.5-2.8c0-0.9,0.6-1,0.5-1.9c0.6-0.2,1-0.8,1-1.4c0.9,0,0.3-1.6,1.4-1.4c1.8,0,1.9-1.9,3.3-2.4
		c-0.5-0.7-0.4-2.1-1.9-1.9c3.8-4.8,9.8-7.9,14.3-11.9H25c0.4,0,0.5-0.5,0.9-0.5c3.4-2.6,7.9-4.3,11-7.2h0.4
		c1.3-0.7,2.6-1.5,3.8-2.4c1.6-0.3,3.1-1.1,4.3-2.4c5.6-1.4,10.7-3.8,15.3-7.2c0.5,0,1-0.2,1.4-0.5c0.9-0.7,3.1,0,3.8-0.9h0.5
		c2.4-2.6,7.2-2.7,10-4.7h0.5c0.8,0.1,1.5-0.3,1.9-1h0.9c1.2-0.4,2.6-0.5,3.3-1.4h0.5c0.8,0,1.5-0.3,1.9-1c0.7,0,1.8,0.2,1.9-0.5
		h0.5c1-0.2,2-0.5,2.9-1c0.8,0.1,1.5-0.3,1.9-0.9h0.5c2.5-0.4,4.9-1.2,7.2-2.4c1.7,0,3.3-0.5,4.7-1.4h0.5c0.8-0.4,2.4-0.2,2.9-1
		c0.8,0,1.8,0.2,1.9-0.5h0.5c0.9-0.3,2-0.3,2.4-1h0.5c0.8-0.4,2.4-0.2,2.9-0.9c0.7,0,1.8,0.2,1.9-0.5c1.2,0.2,2.4-0.2,3.3-0.9h0.5
		c2.8-0.4,5.6-1.2,8.1-2.4c0.8,0,1.8,0.2,1.9-0.5h0.5c1.2,0.2,2.4-0.2,3.3-0.9h0.5c1,0.1,2.1-0.3,2.9-1h0.9c1.2,0,2.3-0.3,3.3-0.9
		c0.7,0,1.3,0,1.4-0.5h0.9c1,0.1,2.1-0.2,2.9-0.9h1c1.2-0.2,2.6-0.2,3.3-1c3.9-0.6,7.8-1.6,11.5-2.8h1c1,0.1,2-0.3,2.8-1
		c1.6,0.3,2.2-0.3,3.3-0.5c1.2,0.2,2.4-0.2,3.3-1h1c1.3-0.3,3-0.2,3.8-0.9c0.8,0,1.8,0.2,1.9-0.5c0.7-0.3,2.4,0.6,2.4-0.5
		c1.5,0,2.9-0.3,4.3-0.9h0.5c0.7-0.3,2.6,0.5,2.4-0.5h0.6c1.3-0.4,3.3,0,4.3-0.9c0.8-0.3,2.8,0.6,2.9-0.5h1.4c1.4-0.6,4,0,5.3-0.9
		h1.4c0.7-0.3,2.4,0.5,2.4-0.5h0.5c1.9,0.2,3.9-0.1,5.8-1c1.5,0.3,1.7-0.5,2.9-0.5c1.1,0,4.1,0.6,4.7-0.5c1.6,0.1,3.2-0.1,4.7-0.5
		c2.7,0.1,5.5-0.3,8.1-0.9h1.4c0.7-0.3,2.4,0.5,2.4-0.5h1c1.1-0.3,3.4,0.6,3.8-0.5c0.5,0,0.9,0,1-0.5h2.4c0.8-0.3,2.8,0.6,2.9-0.5
		h0.5c1.5,0.2,1.7-0.9,3.3-0.5c0.8,0,1.8,0.2,1.9-0.5h0.4c2.6-0.1,5.2-0.6,7.7-1.4h1.4C268.1,399.8,270.2,400.6,270.4,399.5
		 M73.7,451.7h1.9c0.5-0.7,0.6-1.6,0.5-2.4C74.8,449.6,73.5,449.8,73.7,451.7 M8.3,494.7H6.4C6.4,496.2,8.7,496.5,8.3,494.7"/>
	<path id="path222" class="st4" d="M272.7,416.4c0,0.5-0.4,0.6-0.5,1s-0.6,0-0.5,0.5h-1v-0.5c0.5,0,0.4-0.6,0.5-1
		c-0.6,0.4-1.2,0.6-1.9,0.5c-0.8-0.1-1.5,0.3-1.9,1c-1.9,0.6-3.8,2.3-5.9,1.5c-0.4,0-0.5-0.5-1-0.5c0-0.4,0.5-0.5,0.5-1
		c0.4-0.2,0.9-0.4,1-1c0.9,0,1.6-0.3,1.9-1h0.5c2-0.4-0.2-2,1-2.9c0.4-0.4,1.3-0.3,1.5-1c0.5,0,0.9-0.1,1-0.5h0.6
		c1.6,0.5,0.7-1.5,1-2.4c-0.8-0.9-2.8-1.3-3.4,0h-4.5c-1.2,0.4-2.6,0.6-3.9,0.5c-0.7,0.3-2.6-0.5-2.4,0.5c-0.6,0-0.9,0-1,0.5h-0.5
		c-1.2-0.2-2.4,0.2-3.4,1c-0.7,0-1.3,0-1.4,0.5h-2.4c-0.4-0.6-1.7-2.8-2.4-1.5h-0.5c-1.4,0.2-1.6,1.6-2.4,2.4h-3.5
		c-0.8,0.3-2.8-0.6-2.9,0.5c-0.4,0-0.5,0.2-0.5,0.5h-0.5c-0.8,0.8-2.9,0.4-4.4,0.5c-0.8,0-1.8-0.2-1.9,0.5c-2.3,0.1-4.6,0.6-6.8,1.5
		c-1.9,0.7-3.8,1.1-5.9,1.5h-2.9c-0.7,0.3-2.5-0.6-2.4,0.5c-0.4,0-0.5,0.2-0.5,0.5h-1c-0.9,0.3-2,0.3-2.4,1c-1.6-0.7-2.1-0.2-3.9,0
		c-0.8,0-1.8-0.2-1.9,0.5H199c-1.2,0-2.3,0-2.9,0.5c-0.3,1.5,0.9,1.5,0,2.4h-0.5c0.7-1.5-1.1-3-1.5-1.9h-0.5
		c-0.7,0.2-1.2,0.8-1.5,1.5h-0.5c-2.6-0.4-3.4,1.1-4.3,2.4h-0.5c-1.8,0.5-1.4-1.2-2.9-1c-1.5,0.2-0.5,0.7-0.5,1.9h-0.5
		c-0.7,0.3-2.6-0.5-2.4,0.5c-0.6,0-0.9,0-1,0.5h-1.5c-1.7,0.2-3.7,0-4.4,1.4h-1c0-1.5-2.4-0.8-3.9-1c-0.7,0.6-2,0.6-2.4,1.5
		c-0.9,0.7-1.9,1.4-2.9,1.9h-2.4c-4,1-8.1,1.6-12.2,1.9c-1.1,0.2,0,2.6-1,2.9c-1,0.3-3,0.2-3.9,1c-0.4,0-0.5,0.2-0.5,0.5h-2.4
		c-0.9,0.8-2.6,0.8-3.9,1.5c-0.1,0.9,0.5,1.6,1.3,1.7c0.6,0.1,1.3-0.2,1.6-0.8c1.4,0,2-0.9,3.4-1c1.4-0.1,1.5-0.4,1.5-1.5h0.5
		c1.5,0.3,1.5-0.9,2.4,0c0.8,1.7-1.6,0.3-1.5,1.5c-0.4,0.4-1.3,0.3-1.5,1h-1.5c-0.8,0.4-2.4,0.2-2.9,1c-0.5,0.8-1.8,0.5-1.9,1.5H136
		c-0.3-0.6-1.2-2.9-1.9-1.5h-0.5c-0.9,0.9-3,0.6-3.4,1.9v0.5c-1.5,0.6-3.4,0.8-3.9,2.4c-2.2,0.4-4.4,1.2-6.4,2.4h-0.5
		c-1.2,0.4-2.6,0.5-3.4,1.5h-0.5c-1.9-0.5-1.5,1.5-3.4,1c-1.1,0.1-2.1,0.7-2.9,1.5c-0.9,0.3-2,0.3-2.4,1c-1.7,0-2.3,1.2-3.9,1.4
		c-1.6-0.2-2,0.8-2.9,1.5c-1.6-0.4-1.5,0.8-2.4,1c-0.9,0.2-2.1,0.5-2.4,1.5h-0.5c-0.8,0-1.5,0.3-1.9,1h-1c-0.6,0.5-1.8,0.5-1.9,1.5
		c-0.4,0.4-1.3,0.3-1.5,1h-0.5c-1.1,0.2-2.1,0.5-2.4,1.4c-1.5-0.4-1.5,0.8-2.4,1c-0.4,0.3-0.9,0.5-1.5,0.5c-1.1,0.5-2.1,1.1-2.9,1.9
		h-0.5c-0.7-0.1-1.3,0.3-1.5,1c-0.6,0.5-1.8,0.5-1.9,1.5c-0.8-0.1-0.9,0.4-1.5,0.5c-1.5,0.4-2.3,1.6-3.9,1.9
		c-2.1,1.4-3.2,3.9-6.4,4.4h0.1c-2.4,0.7-3.1,3-4.8,4.3h-0.5c0.9,4.8-18.7,12.2-24.8,21.4c-1.5,0.3-2-1.1-2.4,0.5h-0.5
		c-1.1,0.2-0.9,1.7-2.4,1.5v-1c1.2,0,1.1-1.8,0.5-2.4c-0.4,0-0.4,0.2-0.5,0.5h-0.5c-1.1,0.4-1.5,1.5-1.9,2.4c0,1.9-2,1.9-2.4,3.4
		v0.5c-1.1,1.1-1.9,2.4-2.4,3.9v0.5c-0.7,0.8-2.6,0.4-2.4,1.9c-0.2,0.4-0.4,0.9-1,1c-1.3,1.5-2.5,3.1-3.4,4.8
		c-1.2,0-1.5,0.8-1.9,1.5c-1.2,0.8-2.9,1-3.4,2.4c-1.4-0.4,0.3-1.5,0-2.4v-0.5c2-0.8,1.4-2.4,2.4-3.4c0.4-0.4,0.8-0.9,1-1.5
		c0.7,0,1.4,0,1.5-0.5c0-1.9-1.2-1.3-2.4-1c-0.3-0.9,0.6-2.9-0.5-2.9c-2.2-0.4-0.9,2.6-1.9,3.4v0.5c-1,0.8-2.3,1.3-2.4,2.9v0.5
		c-1,0.9-1.7,2.1-1.9,3.4c-0.4,0-0.4,0.2-0.5,0.5c-0.5,0-0.4-0.6-0.5-1v-1c0.8-0.8,1.3-1.8,1.5-2.9v-1.2c0-0.9,0.6-1,0.5-1.9
		c-1.9-0.6-1.2,1.4-2.4,1.5v-1.9c-1-0.2-1.3,0.3-1.9,0.5v-1c0.7-0.9,1.1-1.9,1.5-2.9v-0.5c0.5-1.6,2.1-2.1,2.4-3.8
		c-0.4-1.3,1-1,1-1.9c10.9-15.4,27-25.4,42.9-35.6h0.5c1.6-0.6,3-1.4,4.4-2.4h0.5c6.2-3.2,11.7-6,18.6-9.8h0.5
		c1.6-0.5,3-1.3,4.3-2.4l0,0c4.7-2.4,9.7-4.5,14.1-7.3h0.5c2.1-0.7,4.2-1.5,6.4-2.4h0.5c2.2-0.6,4.3-1.4,6.4-2.4h0.5
		c2.2-0.4,4.3-1.3,6.4-2.4h0.5c1.4-0.1,2.7-0.6,3.8-1.5h0.5c2.2-0.6,4.3-1.4,6.4-2.4h0.5c3.1-1,6.2-2.1,9.2-3.4h0.5
		c2.2-0.6,4.3-1.4,6.4-2.4h0.5c2.3-0.6,4.6-1.4,6.9-2.4h0.5c1.7-0.3,3.3-0.8,4.8-1.5h0.5c3.2-0.5,5.1-1.7,8.8-2.4h0.5
		c2.8-0.4,5.7-1.2,8.3-2.4h0.5c9.5-2.8,16.2-4.5,27.3-7.3h1c6.6-1.5,9.7-0.7,13.1-2.4h2.4c5-0.7,7.2-1.2,14.1-2.4h1
		c4.7-0.4,9.5-1.2,14.1-2.4h1c5.3-0.5,7.1-1.2,15.2-2.4h1.1c4.9-1,10-1.2,15-0.5c1.7,0.1,3.3,0.6,4.8,1.5c0.7,0.7-3.4,7.1-6.3,9.8
		C274.4,416.1,272.8,415.5,272.7,416.4 M266.9,416.4c0-1,1.3-0.6,1-1.9C266.6,414,265.7,416.1,266.9,416.4 M213.3,415.9
		c0.9,1,2,0,2.4-1C214.5,415,213.3,415,213.3,415.9 M210.9,416.4h1.5c0-0.9-0.5-1.1-1.5-1V416.4z M170.9,425.7
		c0.1-0.7-0.3-1.3-1-1.5C169.2,424.9,169.2,426.1,170.9,425.7 M89.9,457.8c1.5,0.3,1.4-0.9,2.9-0.5C93.1,455,90,456.4,89.9,457.8
		 M85,459.9c1.1,1.1,2.1-0.3,2.9-1C87.2,459.2,85.5,458.9,85,459.9 M81.6,461.8h-0.5c-1.2,0.2,0,1.9,1,1.4c0-1.1,2.3-2.1,1-2.9
		C83.2,461.5,81.7,460.9,81.6,461.8 M62.6,473.4c0.2-0.8,1.5-0.4,1-1.9C62.4,471,62,473.6,62.6,473.4 M17.3,504.2c0-1.2-1.6,0-1.9,0
		c0.3,2.2-0.2,4.4-1.5,6.4c2-0.2,2.6-1.8,3.4-3.4C19.4,506.4,16.8,506,17.3,504.2 M12.9,508c1.6,0.3,1.8-0.8,1.9-1.9
		c-1-0.1-1.8,0.7-1.9,1.6C12.9,507.8,12.9,507.9,12.9,508 M3.1,510.5c1.7,0.4,1.9-1.8,0.5-1.9C3.4,509.2,2.9,509.4,3.1,510.5"/>
	<path id="path224" class="st5" d="M59.4,480.4c1.8-1.2,2.4-3.6,4.7-4.3c-0.6,1.3-2.4,1.3-2.9,2.8c-0.3,0.4-0.5,0.9-0.5,1.4
		c3.3-1.9,6.9-3.5,10.5-4.7h0.5c2.3-0.8,4.4-2.1,6.2-3.8h0.5c2.3-0.7,4.3-1.8,6.3-3.3c1.5,0.2,1.2-1.3,2.4-1.4
		c1.6-0.3,2.3-1.5,3.8-1.9c0.4,0,0.4-0.2,0.5-0.5c1.6-0.8,3.7-1,4.7-2.4h0.5c3.7-1.1,6.6-3,10-4.3c0.4-0.3,0.9-0.5,1.4-0.5
		c0.6,0.1,1.3-0.3,1.4-0.9h0.5c0.7,0,1.8,0.2,1.9-0.5h0.5c2-0.8,3.9-1.7,5.8-2.8c0.4,0,0.4-0.2,0.5-0.5c1.3,0,3.3,0.4,3.3-0.9
		c0.4,0,0.5-0.2,0.5-0.5c1.9,0.5,1.4-1.4,3.3-0.9c1-0.4,1.6-1.2,3.3-1c0.4,0,0.4-0.2,0.5-0.5c0.9,0.2,1.8-0.2,2.4-0.9h0.5
		c1.1,0,1.8-0.1,1.9-1c0.7-0.5,1.6-0.6,2.4-0.5c0.9,0.2,1.8-0.2,2.4-1h0.9c0.9,0.2,1.8-0.2,2.4-0.9c1-1,1.5,0.4,2.4-0.5
		c0.8,0.1,1.5-0.3,1.9-0.9h1.1c1.5-0.1,3-0.6,4.3-1.4h0.5c0.9,0.2,1.8-0.2,2.4-1h1c3.2-0.4,6.5-1.2,9.6-2.4h1.9
		c2.6-1.1,6.1-1.2,8.6-2.4h1c1.2-0.5,3.2-0.3,3.8-1.4h0.5c1.3,0,2.4-0.1,2.8-1h1.4c3.6-0.3,6.3-1.7,10.1-1.9
		c-0.4,1.7-3.3,0.9-4.3,1.9H191c-3.1,0-4.4,1.7-6.7,2.4h-1c-1.3-0.4-1.2,0.7-2.4,0.5c-0.4,0-0.5,0.5-1,0.5c-1.7,0.7-4.8,0-5.8,1.4
		h-0.5c-1.2,0-2.3,0.3-3.3,1h-1.1c-1.3,0.2-2.6,0.7-3.8,1.4h-1c-0.8,0.3-1.9,0.3-2.4,1h-0.5c-1.7-0.3-1.8,1-3.3,1
		c-0.4,0.3-0.9,0.5-1.4,0.5c-0.8-0.1-1.5,0.3-1.9,0.9c-0.7,0.5-1.5,0.7-2.4,0.5c-1.1-0.1-1.8,0-1.9,0.9h-0.5
		c-1.9,0.2-3.7,1.1-5.3,2.4h-0.5c-0.9-0.2-1.8,0.2-2.4,0.9c-0.4,0-0.5,0.2-0.5,0.5h-1.4c-0.9,0-1,0.6-1.9,0.5
		c-0.4,0-0.4,0.2-0.5,0.5c-0.9-0.2-1.8,0.2-2.4,0.9c-0.4,0-0.4,0.2-0.5,0.5H133c-0.8-0.1-1.5,0.3-1.9,0.9h-0.5c-0.8,0-1.5,0.3-1.9,1
		v0.5h-1.5c-0.9-0.2-1.9,0.2-2.4,1c-2,0.9-4.1,1.7-6.3,2.4c-1.9,0.4-3.7,1.2-5.3,2.4h-0.5c-1.1,0.1-2.1,0.6-2.8,1.4h-0.5
		c-0.6-0.1-1.3,0.3-1.4,1h-0.5c-1.2,0-1.5,0.8-2.4,0.9c-0.5,0.5-1,1-1.4,1.4h-1c-1.6,0.3-3.1,1.1-4.3,2.4H98
		c-1.5,0.3-2.9,1.2-3.8,2.4h-0.6c-1.1,0.2-2,0.5-2.4,1.4c-0.4,0-0.5,0.2-0.5,0.5c-0.5,0.4-1.2,0.6-1.9,0.5c-1.8,1.4-4.5,1.9-5.8,3.8
		h-0.1c-1.4,0.6-2.6,1.4-3.8,2.4h-0.5c-2.9,1.6-5.7,3.5-8.1,5.8c-1.1,0.2-0.9,1.7-2.4,1.4c-0.9,0.9-2.2,1.3-2.8,2.4h-0.5
		c-1.2,1.1-3,1.8-3.8,3.3c-1.1,0.2-0.9,1.7-2.4,1.4c-2,1.4-3.9,3-5.8,4.7c-0.6,1.1-1,0.3-1.4,0.9c-1,0.6-1.8,1.4-2.4,2.4
		c-0.4,0-0.5,0.5-0.9,0.5c-1.5,1.2-2.9,2.5-4.3,3.8c0,0.4-0.2,0.4-0.5,0.5c-1.5,1.1-2.7,2.3-3.8,3.8c-0.4,0-0.4,0.2-0.5,0.5
		c-0.8,0.4-1.5,1.1-1.9,1.9c-0.4,0-0.5,0.2-0.5,0.5c-1.4,1.1-2.7,2.3-3.8,3.8c-0.4,0-0.4,0.2-0.5,0.5c-1.3,0.5-1.8,2-2.9,2.8v0.5
		c-1,0.6-1.8,1.4-2.4,2.4v0.5c-1,0.6-1.8,1.4-2.4,2.4v0.5c-1,0.6-1.8,1.4-2.4,2.4c0,0.9-0.6,1-0.5,1.9c-0.5,0-0.8-0.7-1,0
		c-0.2-0.1-0.4,0.1-0.5,0.3c0,0.1,0,0.1,0,0.2c-1.2-4.9,10.9-11.8,11.5-18.2c0.4,0,0.4-0.2,0.5-0.5c0.8-1.1,1.3-2.4,1.4-3.8
		c-1.6,1.9-3.9,3.1-4.3,6.2c-0.4,0-0.4,0.2-0.5,0.5h-1c-0.9-3.3,3.2-5.7,3.8-9.1v-0.5c1,0,1-1.2,0.9-2.4c0-0.4-0.2-0.4-0.5-0.5
		c0.4-1.6-0.2-1.3,1.3-1.5c6.2-9,18.5-11.8,25.5-20c0,1-2.6,1.8-1.4,2.4c0.4,0.7,2.5-1,2.9-1.9C60.3,480.5,59.8,480.5,59.4,480.4"/>
	<path id="path226" class="st6" d="M348.4,280.4c-3.2,3.1-7.7,4.7-12.1,4.5h-16.5v-49.7h16.5c4.5-0.2,8.9,1.5,12.1,4.6
		c4.9,5.3,4.7,12.8,4.7,19.7C353.2,266.4,353.5,275.1,348.4,280.4z M344.9,243.5c-2.4-2.5-6-3.8-9.5-3.6h-10.5v40.3h10.5
		c3.5,0.2,7-1.1,9.5-3.6c3.3-3.5,3.1-11,3.1-17.1S348.2,247.1,344.9,243.5z"/>
	<path id="path228" class="st6" d="M367.4,269.2c0,7.6,3.4,11.9,9.8,11.9c3.3,0.1,6.6-1.3,8.7-3.9l3.3,3c-3,3.5-7.5,5.5-12.1,5.3
		c-8.8,0-14.5-5.5-14.5-17.6c0-11.1,5.3-17.7,13.6-17.7c8.4,0,13.6,6.5,13.6,16.7v2.4L367.4,269.2z M384,259.7
		c-1.7-4.2-6.7-6.4-10.9-4.5c-2.1,0.8-3.7,2.5-4.5,4.5c-0.7,1.8-1.1,3.7-1,5.8h17.6c0.1-2-0.3-3.9-1-5.9v0.1H384z"/>
	<path id="path230" class="st6" d="M421.2,284.9v-3.7c-2.3,2.7-5.8,4.3-9.4,4.2c-3.1,0.2-6.3-0.9-8.6-3.1c-2.4-2.6-3.6-6.2-3.3-9.7
		v-22.1h4.8v21.2c0,6.1,3.1,9.2,8.1,9.2c5,0,8.3-3.1,8.3-9.2v-21.2h4.8v34.3L421.2,284.9z"/>
	<path id="path232" class="st6" d="M447.4,284.9c-5.7,0-8.5-4.1-8.5-9.2v-21h-4.1V251h4.1v-10.9h4.9V251h7.1v3.8h-7.1v20.9
		c0,3.1,1.4,5.1,4.5,5.1h2.6v4.2h-3.6V284.9z"/>
	<path id="path234" class="st6" d="M471,285.3c-5.1,0.3-10-1.5-13.6-4.9l3.2-3.3c2.7,2.8,6.6,4.2,10.5,3.9c5.5,0,8.8-2,8.8-6.1
		c0-3-1.7-4.6-5.6-5l-5.5-0.5c-6.5-0.6-9.9-3.6-9.9-9.2c0-6.3,5.3-10.1,12.2-10.1c4.3-0.2,8.5,1.1,11.9,3.7L480,257
		c-2.5-1.8-5.7-2.8-8.9-2.6c-4.8,0-7.4,2.2-7.4,5.7c0,2.9,1.6,4.7,5.8,5.1l5.3,0.5c5.9,0.5,9.8,2.8,9.8,9.3
		C484.5,281.4,479,285.3,471,285.3z"/>
	<path id="path236" class="st6" d="M506.8,285.3c-8.4,0-14.6-5.9-14.6-17.6s6.4-17.7,14.6-17.7c4.2-0.2,8.4,1.8,10.9,5.3l-3.2,3.1
		c-1.7-2.5-4.6-3.9-7.7-3.8c-3-0.1-6,1.4-7.7,3.9c-1.7,2.7-2.4,6-2.2,9.2c-0.3,3.2,0.5,6.5,2.2,9.2c1.7,2.5,4.6,4,7.7,3.9
		c3,0.1,5.9-1.4,7.7-3.8l3.3,3.3C515.2,283.7,511.2,285.6,506.8,285.3L506.8,285.3z"/>
	<path id="path238" class="st6" d="M548.3,284.9v-21.2c0-6-3.1-9.1-8.1-9.1c-4.9,0-8.3,3.1-8.3,9.1v21.2h-4.8v-49.7h4.8v19.2
		c2.3-2.7,5.8-4.2,9.3-4.1c7.5,0,11.9,4.9,11.9,12.7v22h-4.8V284.9z"/>
	<path id="path240" class="st6" d="M568,269.2c0,7.6,3.4,11.9,9.8,11.9c3.3,0.1,6.6-1.3,8.7-3.9l3.3,3c-3,3.5-7.5,5.5-12.1,5.3
		c-8.8,0-14.5-5.5-14.5-17.6c0-11.1,5.3-17.7,13.6-17.7c8.4,0,13.6,6.5,13.6,16.7v2.4H568V269.2z M584.5,259.7
		c-1.7-4.2-6.7-6.4-10.9-4.5c-2.1,0.8-3.7,2.5-4.5,4.5c-0.7,1.8-1.1,3.7-1,5.8h17.6c0.1-2-0.3-3.9-1-5.9v0.1H584.5z"/>
	<path id="path242" class="st6" d="M630.7,285.3c-6.2,0.4-12.2-2-16.5-6.6l3.5-3.6c3.3,3.7,8.1,5.8,13.1,5.5c7,0,11.3-3.4,11.3-9.2
		c0.2-2.3-0.7-4.5-2.3-6.3c-1.7-1.5-3.9-2.3-6.3-2.4l-5.6-0.9c-3.2-0.4-6.3-1.7-8.8-3.7c-2.5-2.4-3.8-5.9-3.6-9.3
		c0-8.5,5.9-14,15.4-14c5.4-0.3,10.5,1.7,14.3,5.5l-3.3,3.4c-2.9-2.9-7.1-4.4-11.2-4.2c-6.5,0-10.1,3.7-10.1,9.2
		c-0.2,2.1,0.6,4.2,2.2,5.8c1.9,1.4,4.1,2.4,6.5,2.7l5.3,0.8c3.2,0.2,6.3,1.4,8.8,3.4c2.7,2.5,4.2,6.2,4,9.9
		C647.3,280,640.7,285.3,630.7,285.3L630.7,285.3z"/>
	<path id="path244" class="st6" d="M670.1,285.3c-8.4,0-14.7-5.9-14.7-17.6s6.4-17.7,14.7-17.7c4.2-0.2,8.4,1.8,10.9,5.3l-3.3,3.2
		c-3.1-4.2-9-5.2-13.2-2.1c-0.8,0.6-1.5,1.3-2.1,2.1c-1.7,2.7-2.4,6.1-2.1,9.2c-0.3,3.2,0.5,6.5,2.1,9.2c1.7,2.5,4.6,4,7.7,3.9
		c3,0.1,5.9-1.4,7.6-3.9l3.3,3.3C678.4,283.7,674.4,285.6,670.1,285.3z"/>
	<path id="path246" class="st6" d="M711.5,284.9v-21.2c0-6-3.1-9.1-8.1-9.1c-4.9,0-8.3,3.1-8.3,9.1v21.2h-4.8v-49.7h4.8v19.2
		c2.3-2.7,5.8-4.3,9.3-4.1c7.5,0,11.9,4.9,11.9,12.7v22h-4.8V284.9z"/>
	<path id="path248" class="st6" d="M749.2,284.9v-3.7c-2.3,2.7-5.8,4.3-9.4,4.2c-3.1,0.2-6.3-0.9-8.6-3.1c-2.4-2.6-3.6-6.2-3.3-9.7
		v-22.1h4.8v21.2c0,6.1,3.1,9.2,8.1,9.2c4.9,0,8.3-3.1,8.3-9.2v-21.2h4.8v34.3L749.2,284.9z"/>
	<path id="path250" class="st6" d="M774.5,284.9c-5.9,0-8.4-3.9-8.4-9.2v-40.6h4.8v40.4c0,3.3,1.1,5,4.4,5h2.6v4.2L774.5,284.9z"/>
	<path id="path252" class="st6" d="M789.2,269.2c0,7.6,3.4,11.9,9.8,11.9c3.4,0.1,6.7-1.4,8.8-4l3.3,3c-3,3.5-7.5,5.5-12.1,5.3
		c-8.8,0-14.5-5.5-14.5-17.6c0-11.1,5.3-17.7,13.6-17.7s13.6,6.5,13.6,16.7v2.5h-22.5V269.2z M805.8,259.7c-1.8-4.2-6.7-6.4-11-4.5
		c-2,0.8-3.7,2.5-4.5,4.5c-0.7,1.8-1,3.7-1,5.8h17.6c0-2-0.3-3.9-1-5.9V259.7z"/>
	<path id="path254" class="st7" d="M332.2,369.4c-6.2,0.4-12.2-2-16.5-6.6l3.5-3.6c3.3,3.7,8.1,5.8,13.1,5.5c7,0,11.3-3.4,11.3-9.2
		c0.1-2.3-0.7-4.5-2.3-6.3c-1.7-1.5-3.9-2.3-6.3-2.4l-5.6-0.9c-3.2-0.4-6.3-1.7-8.8-3.7c-2.5-2.4-3.8-5.9-3.6-9.3
		c0-8.5,5.9-14,15.4-14c5.4-0.3,10.5,1.7,14.3,5.5l-3.3,3.4c-2.9-2.9-7.1-4.5-11.2-4.3c-6.4,0-10.1,3.7-10.1,9.2
		c-0.1,2.1,0.6,4.2,2.1,5.8c1.9,1.4,4.1,2.3,6.5,2.6l5.3,0.8c3.2,0.2,6.3,1.4,8.8,3.5c2.7,2.5,4.2,6.2,4,9.9
		C348.9,364,342.2,369.4,332.2,369.4L332.2,369.4z"/>
	<path id="path256" class="st7" d="M380,369v-21.2c0-6.1-3.1-9.1-8.1-9.1c-4.9,0-8.3,3.1-8.3,9.1V369h-4.8v-49.7h4.8v19.2
		c2.3-2.7,5.8-4.3,9.3-4.2c7.5,0,11.9,4.9,11.9,12.7v22.1L380,369z"/>
	<path id="path258" class="st7" d="M415.4,369v-3.2c-2.4,2.7-6,4-9.6,3.7c-4.6,0-7.3-0.9-9.4-3.1c-1.7-1.9-2.6-4.4-2.6-7
		c0-6.1,4-9.9,11.5-9.9h10v-3.2c0-5-2.4-7.6-8.5-7.6c-3.3-0.4-6.6,1.1-8.4,3.9l-3.3-3.1c3-3.9,6.4-5.2,11.7-5.2
		c8.9,0,13.2,3.9,13.2,11.5v23.3L415.4,369z M415.4,353.1h-9.3c-5.1,0-7.4,2.1-7.4,6.1s2.3,5.9,7.6,5.9c2.7,0.3,5.4-0.5,7.4-2.3
		c1.3-1.7,1.9-3.8,1.7-6V353.1z"/>
	<path id="path260" class="st7" d="M453.4,369v-21.2c0-6.1-3.1-9.2-8.2-9.2c-5.1,0-8.2,3.1-8.2,9.2V369h-4.8v-34.3h4.8v3.8
		c2.3-2.7,5.8-4.3,9.3-4.2c3.1-0.1,6.3,1,8.5,3.2c2.4,2.6,3.6,6.1,3.4,9.6v22L453.4,369z"/>
	<path id="path262" class="st7" d="M480.7,384.7c-4.2,0.2-8.4-1.5-11.2-4.6l3.1-3.2c2,2.2,4.8,3.5,7.9,3.4c6.5,0,9.1-4.6,9.1-10.5
		v-5.4c-2.1,3-5.7,4.7-9.3,4.4c-2.9,0.1-5.9-1-8-3.1c-3.3-3.4-4-8.8-4-14.3s0.8-10.9,4-14.3c2.2-2,5.2-3.1,8.1-3
		c3.6-0.2,7.2,1.4,9.3,4.4v-4h4.7v35.5C494.5,378.5,489.3,384.7,480.7,384.7z M481.5,338.6c-7.3,0-8.3,6.5-8.3,12.9
		s1.1,12.9,8.3,12.9c7.2,0,8.2-6.5,8.2-12.9S488.6,338.6,481.5,338.6z"/>
	<path id="path264" class="st7" d="M527.9,369v-21.2c0-6.1-3.1-9.1-8.1-9.1s-8.3,3.1-8.3,9.1V369h-4.8v-49.7h4.8v19.2
		c2.3-2.7,5.8-4.3,9.3-4.2c7.5,0,11.9,4.9,11.9,12.7v22.1L527.9,369z"/>
	<path id="path266" class="st7" d="M563.5,369v-3.2c-2.4,2.7-6,4-9.6,3.7c-4.6,0-7.3-0.9-9.4-3.1c-1.7-1.9-2.6-4.4-2.6-7
		c0-6.1,4-9.9,11.5-9.9h10v-3.2c0-5-2.4-7.6-8.5-7.6c-3.3-0.4-6.6,1.1-8.4,3.9l-3.1-3.1c2.9-3.9,6.4-5.2,11.7-5.2
		c8.9,0,13.3,3.9,13.3,11.5v23.3L563.5,369z M563.5,353.1h-9.3c-5,0-7.5,2.1-7.5,6.1s2.4,5.9,7.7,5.9c2.7,0.3,5.4-0.5,7.4-2.3
		c1.3-1.7,1.9-3.8,1.7-6L563.5,353.1L563.5,353.1z"/>
	<path id="path268" class="st7" d="M579.8,324.7V319h5.4v5.7L579.8,324.7z M580,369v-34.3h4.8V369H580z"/>
</g>
</svg>
