<?xml version="1.0" encoding="utf-8"?>
<!-- Generator: Adobe Illustrator 27.8.1, SVG Export Plug-In . SVG Version: 6.00 Build 0)  -->
<svg version="1.1" id="fd90b8a3-4437-4e53-9ed1-6a62608c98e9"
	 xmlns="http://www.w3.org/2000/svg" xmlns:xlink="http://www.w3.org/1999/xlink" x="0px" y="0px" viewBox="0 0 901.3 699.5"
	 style="enable-background:new 0 0 901.3 699.5;" xml:space="preserve">
<style type="text/css">
	.st0{fill-rule:evenodd;clip-rule:evenodd;fill:#FFFFFF;}
</style>
<path class="st0" d="M413.7,386.9h-92.1c-38.6,0-62.4-22.8-68.3-58.4c-1-5.9-1-10.9-1-10.9c0-3,2-5,5-5h149.5L253.3,160.2
	c-11.9-11.9,57.4-53.5,103.9-6.9l64.4,64.3c6.9,6.9,16.8,6.9,23.8,1v-23.8c-18.8-3-31.7-19.8-31.7-38.6c0-3,2-4.9,5-4.9H478
	c-2-12.9-13.9-22.8-26.7-22.8h-32.7c-20.8,1-37.6-14.9-37.6-35.6c0-3,2-4.9,4.9-4.9h59.4c2-17.8,17.8-31.7,36.6-31.7h27.7V28.6
	c0-5,4-6.9,7.9-3l31.7,30.7c37.6,1,67.3,31.7,67.3,69.3v30.7c26.7,27.7,26.7,72.3,0,100c0,83.2,0,195,0,218.8
	c17.8,2,32.7,17.8,32.7,36.6v96c0,1-1,3-1,3L584,675l-3,1h-97c-3,0-4.9-2-4.9-5c0-35.6,29.7-66.3,65.3-69.3
	c-3-29.7-29.7-54.5-60.4-54.5c-14.8,0-27.7,11.9-27.7,27.7v31.7l-1,3L389.9,674l-3,1h-99c-3,0-5-2-5-5c0-35.6,30.7-67.3,66.3-69.3
	l-1-59.4c0-36.6,28.7-66.3,64.4-69.3L413.7,386.9L413.7,386.9z"/>
</svg>
