<?xml version="1.0" encoding="utf-8"?>
<!-- Generator: Adobe Illustrator 27.8.1, SVG Export Plug-In . SVG Version: 6.00 Build 0)  -->
<svg version="1.1" id="fd90b8a3-4437-4e53-9ed1-6a62608c98e9"
	 xmlns="http://www.w3.org/2000/svg" xmlns:xlink="http://www.w3.org/1999/xlink" x="0px" y="0px" viewBox="0 0 901.3 699.5"
	 style="enable-background:new 0 0 901.3 699.5;" xml:space="preserve">
<style type="text/css">
	.st0{fill-rule:evenodd;clip-rule:evenodd;fill:#FFFFFF;}
</style>
<g>
	<path class="st0" d="M49.5,361H21.3c-11.8,0-19.1-6.9-20.9-17.9c-0.3-1.8-0.3-3.4-0.3-3.4c0-0.9,0.6-1.5,1.5-1.5h45.7L0.4,291.7
		c-3.7-3.7,17.5-16.3,31.8-2.1l19.7,19.7c2.1,2.1,5.1,2.1,7.2,0.3v-7.2c-5.7-0.9-9.7-6-9.7-11.8c0-0.9,0.6-1.5,1.5-1.5h18.2
		c-0.6-4-4.3-6.9-8.2-6.9H51c-6.3,0.3-11.5-4.6-11.5-10.9c0-0.9,0.6-1.5,1.5-1.5h18.2c0.6-5.4,5.4-9.7,11.2-9.7h8.5v-8.5
		c0-1.5,1.2-2.1,2.4-0.9l9.7,9.4c11.5,0.3,20.6,9.7,20.6,21.2v9.4c8.2,8.5,8.2,22.1,0,30.6c0,25.5,0,59.7,0,66.9
		c5.4,0.6,10,5.4,10,11.2v29.4c0,0.3-0.3,0.9-0.3,0.9l-19.7,19.7l-0.9,0.3H71c-0.9,0-1.5-0.6-1.5-1.5c0-10.9,9.1-20.3,20-21.2
		C88.5,417.6,80.4,410,71,410c-4.5,0-8.5,3.7-8.5,8.5v9.7l-0.3,0.9l-20.1,19.8l-0.9,0.3H10.9c-0.9,0-1.5-0.6-1.5-1.5
		c0-10.9,9.4-20.6,20.3-21.2l-0.3-18.2c0-11.2,8.8-20.3,19.7-21.2L49.5,361L49.5,361z"/>
	<g>
		<path class="st0" d="M220.8,268.5c-5.2,0.4-5.7,0.7-5.7,6v25.7c0,5.3,0.5,5.7,5.7,6v1.7h-17.1v-1.7c5.4-0.4,6-0.7,6-6v-12.8h-21.8
			v12.8c0,5.3,0.5,5.7,5.7,6v1.7h-16.8v-1.7c5.1-0.4,5.6-0.7,5.6-6v-25.7c0-5.3-0.5-5.6-5.7-6v-1.8h16.5v1.8c-4.9,0.4-5.4,0.7-5.4,6
			v10.3h21.8v-10.3c0-5.3-0.5-5.6-5.5-6v-1.8h16.7L220.8,268.5L220.8,268.5z M239,281.7c-3.9,0-7.3,4-7.3,11.1
			c0,8.1,3.6,14.1,8.8,14.1c4,0,7.2-3,7.2-11.6C247.7,287.7,244.6,281.7,239,281.7L239,281.7L239,281.7z M239.8,279.5
			c7.9,0,13.8,6.3,13.8,14.2c0,10.3-7.5,15.2-13.9,15.2c-8.8,0-14-7-14-14.1C225.7,284.3,233.9,279.5,239.8,279.5L239.8,279.5
			L239.8,279.5z M282.1,302.4c-2.9,3.7-7.1,6.5-10.9,6.5c-8.1,0-12.8-6.5-12.8-13.4c0-4.9,2.1-9.2,6.4-12.4c3.4-2.5,7.1-3.6,9.6-3.6
			h0.1c2.5,0,4.7,0.8,5.7,1.6c0.8,0.7,1,1.2,1,1.9c0,1.3-1.4,2.8-2.1,2.8c-0.3,0-0.6-0.2-1.2-0.7c-1.9-1.8-4.2-2.7-6.4-2.7
			c-4.2,0-8,3.5-8,10.2c0,8.9,6.1,11.8,9.7,11.8c2.8,0,4.9-0.8,7.8-3.5L282.1,302.4L282.1,302.4z M302.5,308.2v-1.6
			c3.7-0.4,4.2-0.8,4.2-4.9V291c0-5.2-1.9-7.9-6.2-7.9c-2.4,0-4.9,1.2-6.6,3.3v15.2c0,4.1,0.3,4.5,4.1,4.9v1.6h-13.6l0.1-1.6
			c3.9-0.3,4.4-0.7,4.4-4.9v-30.4c0-4-0.1-4.4-4.4-4.7v-1.4c3.1-0.4,6.9-1.4,9.4-2.2v21.4c2.2-2.2,5.7-4.7,9.2-4.7
			c5.2-0.1,8.9,3.3,8.9,10.9v11.1c0,4.2,0.4,4.6,4.2,4.9v1.6H302.5L302.5,308.2z M336.3,287.8c-1.2-3.8-3.5-6.3-6.6-6.3
			c-2.4,0-4.2,1.9-4.2,4.4c0,2.9,2.6,4.4,5.4,5.5c4.8,1.9,8.1,4.3,8.1,8.7c0,5.8-5.4,8.8-10.5,8.8c-3.3,0-6.2-1.2-7.3-2.1
			c-0.4-0.9-1-5.2-1-7.5l1.6-0.3c1.1,4.2,4,7.9,7.9,7.9c2.3,0,4.6-1.8,4.6-4.5c0-2.8-1.8-4.3-5-5.8c-3.9-1.7-8-3.9-8-8.8
			c0-4.5,3.9-8.3,9.7-8.3c2.7-0.1,4.4,0.6,5.7,1.1c0.5,1.4,1.2,5.2,1.4,6.8L336.3,287.8L336.3,287.8z M367.2,302.4
			c-2.9,3.7-7.1,6.5-10.9,6.5c-8.1,0-12.8-6.5-12.8-13.4c0-4.9,2.1-9.2,6.4-12.4c3.4-2.5,7.1-3.6,9.6-3.6h0.1c2.5,0,4.7,0.8,5.7,1.6
			c0.8,0.7,1,1.2,1,1.9c0,1.3-1.4,2.8-2.1,2.8c-0.3,0-0.6-0.2-1.2-0.7c-1.9-1.8-4.2-2.7-6.4-2.7c-4.2,0-8,3.5-8,10.2
			c0,8.9,6.1,11.8,9.7,11.8c2.8,0,4.9-0.8,7.9-3.5L367.2,302.4L367.2,302.4z M387.6,308.2v-1.6c3.7-0.4,4.2-0.8,4.2-4.9V291
			c0-5.2-1.9-7.9-6.2-7.9c-2.4,0-4.9,1.2-6.6,3.3v15.2c0,4.1,0.3,4.5,4.1,4.9v1.6h-13.6l0.1-1.6c3.9-0.3,4.4-0.7,4.4-4.9v-30.4
			c0-4-0.1-4.4-4.4-4.7v-1.4c3.1-0.4,6.9-1.4,9.4-2.2v21.4c2.2-2.2,5.7-4.7,9.2-4.7c5.2-0.1,8.9,3.3,8.9,10.9v11.1
			c0,4.2,0.4,4.6,4.2,4.9v1.6H387.6L387.6,308.2z M435.7,306.7c-1.4,0.2-3.2,0.6-4.9,1c-1.6,0.4-3.3,0.9-4.5,1.2l-0.4-0.4V304
			c-1.4,1.1-3,2.2-4.7,3.3c-1.8,1.1-3.2,1.6-4.9,1.6c-4.3,0-8-2.7-8-9.5V287c0-3.4-0.5-3.7-2.1-4.1l-1.7-0.4v-1.4
			c1.3-0.1,2.9-0.3,4.6-0.4c1.7-0.3,3.5-0.5,4.5-0.7c-0.2,1.9-0.2,5-0.2,9.3v8.6c0,5.6,2.8,7.1,5.6,7.1c2.3,0,4.7-0.9,6.9-3.1V287
			c0-3.5-0.6-3.8-2.7-4.2l-2.3-0.4V281c1.7-0.1,3.9-0.3,5.7-0.5c1.8-0.2,3.4-0.4,4.3-0.6v21.3c0,3.2,0.5,3.7,3,3.8l1.8,0.1V306.7
			L435.7,306.7z M437.6,308.2v-1.6c4-0.4,4.6-0.8,4.6-5v-30.1c0-4.3-0.4-4.5-4.4-4.9V265c3.4-0.4,7.2-1.4,9.5-2.2v38.8
			c0,4.2,0.5,4.6,4.6,5v1.6H437.6L437.6,308.2z M467.4,281.9c-2.9,0-5.7,2.7-6.6,7.9c3.6,0,7.1-0.1,10.8-0.2c1.1,0,1.5-0.4,1.5-1.2
			C473.1,284.9,470.9,281.9,467.4,281.9L467.4,281.9L467.4,281.9z M478.2,302.8c-4,5-8.5,6.2-10.4,6.2c-7.9,0-12.4-6.3-12.4-13.6
			c0-4.4,1.6-8.3,4.2-11.1c2.7-3,6.1-4.7,9.3-4.7h0.1c5.3,0,9.6,4.7,9.6,9.7c0,1.2-0.3,1.7-1.4,2c-1.1,0.2-9.1,0.8-16.7,1.1
			c0.1,8.7,5.1,12.2,9.5,12.2c2.5,0,5-1,7.3-3.2L478.2,302.8L478.2,302.8z M501.3,280.3v-1.4c0-1.9,0.2-3.8,0.7-5.2
			c0.4-1.4,1.4-4.5,4.9-7.4c2.2-1.9,4.6-3.2,7-3.5c2.1,0.1,4,0.9,5.1,2.1c0.6,0.7,0.6,1.5,0.3,2.2c-0.2,0.5-0.6,1-1.2,1.5
			c-0.6,0.4-1.1,0.4-1.7-0.2c-1.3-1.1-3.1-2.3-5.2-2.3c-1.6,0-2.7,0.7-3.4,1.9c-0.8,1.2-1.5,4.3-1.4,9.7v2.6h7.5
			c0.4,0.6,0.1,2.1-0.6,2.4h-6.9v18.4c0,4.7,0.4,4.9,5.5,5.4v1.6h-15.1v-1.6c4.1-0.4,4.5-0.7,4.5-4.9v-18.8h-4.5l-0.3-0.6l1.7-1.8
			L501.3,280.3L501.3,280.3z"/>
		<path class="st0" d="M532.9,270.9c0-1.8,1.3-3.2,3.1-3.2c1.6,0,3,1.4,3,3.2c0,1.6-1.3,3.1-3.1,3.1
			C534.2,273.9,532.9,272.4,532.9,270.9L532.9,270.9z M522,270.9c0-1.8,1.4-3.2,3.2-3.2c1.6,0,3,1.4,3,3.2c0,1.6-1.2,3.1-3,3.1
			C523.4,273.9,522,272.4,522,270.9L522,270.9z M547,306.7c-1.4,0.2-3.2,0.6-4.9,1c-1.6,0.4-3.3,0.9-4.5,1.2l-0.4-0.4V304
			c-1.4,1.1-3,2.2-4.7,3.3c-1.8,1.1-3.2,1.6-4.9,1.6c-4.3,0-8-2.7-8-9.5V287c0-3.4-0.5-3.7-2.1-4.1l-1.8-0.4v-1.4
			c1.3-0.1,2.9-0.3,4.6-0.4c1.7-0.3,3.5-0.5,4.6-0.7c-0.2,1.9-0.2,5-0.2,9.3v8.6c0,5.6,2.8,7.1,5.6,7.1c2.3,0,4.7-0.9,6.9-3.1V287
			c0-3.5-0.6-3.9-2.7-4.2l-2.3-0.4V281c1.7-0.1,3.9-0.3,5.7-0.5s3.4-0.4,4.3-0.6v21.3c0,3.2,0.5,3.7,3,3.8l1.8,0.1L547,306.7
			L547,306.7z M559.7,286.3c1.9-3.2,4.7-6.7,7.8-6.7c2.1,0,3.7,1.6,3.7,3.2c0,1.2-0.8,2.5-2,3.2c-0.7,0.3-1.3,0.3-1.7-0.1
			c-0.9-0.9-1.6-1.3-2.7-1.3c-1.6,0-3.7,1.9-5.1,5.5v11.6c0,4.2,0.3,4.6,5.2,5v1.6h-14.7v-1.6c4-0.4,4.4-0.7,4.4-5v-13.2
			c0-4.2-0.3-4.5-4-5V282c3.2-0.5,5.9-1.2,9-2.7v6.9H559.7L559.7,286.3z M235.4,339.2c-4.4,0.6-5,1.1-6.9,6.3
			c-1.4,4.1-5.3,16.1-10.5,34H216c-3.5-10.3-8-22.5-11.2-31.8h-0.1c-3.6,11.2-7.1,21.5-10.4,31.8h-1.9c-3.4-11.5-6.9-22.7-10.5-34.1
			c-1.6-5.2-2.6-5.7-6.4-6.2v-1.8H191v1.7c-4.7,0.6-4.8,1.1-3.9,4.3c2.4,8.6,5,17.2,7.8,26.2h0.1c3.4-10.8,7.1-21.3,10.4-31.7h1.8
			c3.6,10.4,7.2,20.8,11.2,31.8h0.1c2.7-8.6,6.2-21,7.2-25.5c0.9-3.9,0.6-4.5-4.4-5.1v-1.8h14.2L235.4,339.2L235.4,339.2z
			 M239.7,341.4c0-1.9,1.5-3.4,3.3-3.4c1.8,0,3.2,1.4,3.2,3.4c0,1.7-1.4,3.3-3.3,3.3C241.2,344.6,239.7,343.1,239.7,341.4z
			 M236.2,378.8v-1.6c4.1-0.4,4.5-0.7,4.5-5.1v-13.2c0-3.9-0.2-4.2-4-4.8v-1.5c3.3-0.5,6.2-1.3,9.1-2.4v22c0,4.3,0.4,4.7,4.6,5.1
			v1.6L236.2,378.8L236.2,378.8z M263.2,356.9c1.9-3.2,4.7-6.7,7.8-6.7c2.1,0,3.7,1.6,3.7,3.2c0,1.2-0.8,2.6-2,3.2
			c-0.7,0.3-1.3,0.3-1.7-0.1c-0.9-0.9-1.6-1.3-2.7-1.3c-1.6,0-3.7,1.9-5.1,5.5v11.6c0,4.2,0.3,4.6,5.2,5v1.6h-14.7v-1.6
			c4-0.4,4.4-0.7,4.4-5v-13.2c0-4.2-0.3-4.5-4-5v-1.4c3.2-0.5,5.9-1.2,9-2.7v6.9H263.2L263.2,356.9z M290,378.8
			c-1.1,0.6-2.1,0.8-2.7,0.8c-4,0-6.2-2.5-6.2-7.5v-18.6h-4.4l-0.3-0.6l1.7-1.8h3v-4.7l4.2-4.2l0.9,0.1v8.8h7.2
			c0.6,0.6,0.4,2-0.4,2.4h-6.8v16.4c0,5.2,2.1,6.1,3.7,6.1c1.6,0,3.1-0.6,4-1.1l0.6,1.6L290,378.8L290,378.8z M313.8,358.5
			c-1.2-3.8-3.5-6.3-6.6-6.3c-2.4,0-4.2,1.9-4.2,4.4c0,2.8,2.5,4.3,5.4,5.5c4.8,1.9,8.1,4.3,8.1,8.7c0,5.8-5.4,8.8-10.5,8.8
			c-3.3,0-6.2-1.2-7.3-2.1c-0.4-0.9-1-5.2-1-7.5l1.6-0.3c1.1,4.2,4,8,7.9,8c2.3,0,4.6-1.8,4.6-4.5c0-2.8-1.8-4.4-5.1-5.8
			c-3.9-1.7-8-3.9-8-8.8c0-4.5,3.9-8.3,9.7-8.3c2.7-0.1,4.4,0.6,5.7,1.1c0.5,1.4,1.2,5.2,1.4,6.8L313.8,358.5L313.8,358.5z
			 M344.7,373.1c-2.9,3.7-7.1,6.5-10.9,6.5c-8.1,0-12.8-6.5-12.8-13.4c0-4.9,2.1-9.2,6.4-12.4c3.4-2.5,7.1-3.6,9.6-3.6h0.1
			c2.5,0,4.7,0.8,5.7,1.6c0.8,0.7,1,1.2,1,1.9c0,1.3-1.4,2.8-2.1,2.8c-0.3,0-0.6-0.2-1.2-0.7c-1.9-1.8-4.2-2.7-6.4-2.7
			c-4.2,0-8,3.5-8,10.2c0,8.9,6.1,11.8,9.7,11.8c2.8,0,4.9-0.7,7.8-3.5L344.7,373.1L344.7,373.1z M365.1,378.8v-1.6
			c3.7-0.4,4.2-0.7,4.2-4.9v-10.6c0-5.2-1.9-7.9-6.2-7.9c-2.4,0-4.9,1.2-6.6,3.3v15.2c0,4.1,0.3,4.5,4.1,4.9v1.6h-13.6l0.1-1.6
			c3.9-0.3,4.4-0.7,4.4-4.9v-30.4c0-4-0.1-4.4-4.4-4.7v-1.4c3.1-0.4,6.9-1.4,9.4-2.2v21.4c2.2-2.2,5.7-4.7,9.2-4.7
			c5.2-0.1,8.8,3.3,8.8,10.9v11.1c0,4.2,0.4,4.6,4.2,4.9v1.6L365.1,378.8L365.1,378.8z M397.6,363.5c-1.3,0.7-4.4,2-5.7,2.7
			c-2.4,1.1-3.9,2.3-3.9,4.7c0,3.3,2.5,4.9,4.5,4.9c1.6-0.1,3.9-1.1,5.1-2.2V363.5L397.6,363.5z M402.3,379.6c-0.9,0-2.3-0.6-3-1.2
			c-0.8-0.9-1.2-1.8-1.5-2.9c-2.5,1.7-5.6,4.1-7.5,4.1c-4.5,0-7.6-3.8-7.6-7.8c0-3.2,1.6-5.1,5.2-6.3c3.9-1.2,8.5-3,9.9-4.2v-1.1
			c0-4.6-2.1-7.2-5.4-7.2c-1.2,0-2.2,0.5-2.9,1.3c-0.8,0.8-1.4,2.2-1.9,4.2c-0.3,1.1-0.9,1.5-1.8,1.5c-1.1,0-2.9-1.2-2.9-2.8
			c0-0.9,0.8-1.6,2-2.6c1.8-1.2,5.9-3.8,9.6-4.5c1.9,0,3.9,0.6,5.2,1.7c2.2,1.8,2.9,4.5,2.9,7.8v11.8c0,2.9,1.1,3.8,2.2,3.8
			c0.8,0,1.6-0.3,2.3-0.7l0.6,1.6L402.3,379.6L402.3,379.6z M440.7,378.8c-1.1,0.6-2,0.8-2.7,0.8c-4.1,0-6.2-2.5-6.2-7.5v-18.5
			h-12.1v18.6c0,4.2,0.4,4.7,4.7,5v1.6h-14.3v-1.6c4.1-0.4,4.5-0.9,4.5-5v-18.7h-4.5l-0.3-0.7l1.6-1.8h3.2v-1.6
			c0-1.9,0.3-3.6,0.6-4.9c0.4-1.4,1.5-4.8,5.1-7.6c2.4-1.9,4.7-3.1,7-3.4c2.3,0.1,3.9,0.9,4.8,1.9c0.6,0.7,0.8,1.5,0.4,2.2
			c-0.3,0.6-0.8,1.2-1.5,1.6c-0.5,0.3-0.9,0.3-1.5-0.3c-1.1-1.1-3.2-2.2-4.9-2.2c-1.4,0-2.7,0.6-3.5,1.9c-0.9,1.3-1.6,4.2-1.5,10.6
			v1.6h12.2v-4.3l4.1-4.3l0.9,0.1v8.5h7.2c0.5,0.6,0.4,2-0.4,2.5h-6.8v16.3c0,5.2,2.1,6.2,3.8,6.2s3.1-0.6,4-1.1l0.6,1.7
			L440.7,378.8L440.7,378.8z M493.3,377.2c-1.4,0.2-3.2,0.6-4.9,1c-1.6,0.4-3.3,0.9-4.5,1.2l-0.4-0.4v-4.5c-1.4,1.1-3,2.2-4.7,3.3
			c-1.8,1.1-3.2,1.6-4.9,1.6c-4.3,0-8-2.7-8-9.5v-12.5c0-3.4-0.5-3.7-2.1-4.1L462,353v-1.4c1.3-0.1,2.9-0.2,4.6-0.4
			c1.7-0.3,3.5-0.5,4.5-0.7c-0.2,1.9-0.2,5-0.2,9.3v8.6c0,5.6,2.8,7.1,5.6,7.1c2.3,0,4.7-0.9,6.9-3.1v-14.9c0-3.5-0.6-3.9-2.7-4.2
			l-2.3-0.4v-1.4c1.7-0.1,3.9-0.2,5.7-0.5c1.8-0.2,3.4-0.4,4.3-0.6v21.3c0,3.2,0.5,3.7,3,3.8l1.8,0.1L493.3,377.2L493.3,377.2z
			 M514.4,378.8v-1.6c3.8-0.4,4.2-0.9,4.2-5.3v-10.6c0-4.4-1.5-7.2-5.8-7.2c-2.5,0-5.1,1.6-6.9,3.3v15c0,4.3,0.4,4.6,4.2,5v1.6
			h-13.9v-1.6c4.4-0.4,4.7-0.7,4.7-5v-13.2c0-4.1-0.4-4.3-3.9-4.9v-1.4c3.1-0.6,6.1-1.3,8.9-2.7v5.1c1.3-0.9,2.7-1.9,4.3-3
			c1.8-1.1,3.5-1.9,5.3-1.9c5.1,0,8.3,3.5,8.3,9.7v12.3c0,4.3,0.3,4.6,4,5v1.6C527.7,378.8,514.4,378.8,514.4,378.8z M552.5,355.8
			c-1.5-2.2-4.2-3.3-6.6-3.3c-3,0-8.4,2.4-8.4,11.7c0,7.5,4.7,11.3,8.8,11.3c2.3,0,4.6-1,6.1-2.1L552.5,355.8L552.5,355.8z
			 M562.4,377.1c-1.4,0.3-6.2,1.1-9.9,2.4v-4.2l-3.9,2.2c-2.4,1.4-4.2,1.8-5,1.8c-5.1,0-11.8-4.7-11.8-13.6s7.9-15.8,16.5-15.8
			c0.9,0,2.8,0.2,4.2,0.7v-9c0-4.2-0.3-4.4-4.9-4.7v-1.5c3.4-0.4,7.7-1.4,10-2.2v38c0,3.4,0.4,3.7,2.9,3.9l2,0.2L562.4,377.1
			L562.4,377.1z M594.5,358.6c3.3,0,5.4-0.5,6.9-1.8c2.4-1.9,3.6-4.5,3.6-7.9c0-6.8-4.6-9.4-9.4-9.4c-1.8,0-3,0.2-3.5,0.6
			c-0.4,0.3-0.7,1.1-0.7,2.9v15.7h3.1V358.6z M618,379.3c-0.7,0-1.4,0-2.2-0.1c-4.8-0.3-7.4-1.6-10.4-5.8c-2.2-3.2-4.5-7-6.4-10.2
			c-1.1-1.8-2.1-2.6-5.5-2.6h-2v10.1c0,5.4,0.6,5.8,5.7,6.2v1.8h-16.8V377c5.2-0.4,5.8-0.7,5.8-6.2v-25.6c0-5.4-0.5-5.6-5.5-6v-1.7
			h15.8c4.7,0,7.9,0.6,10.2,2.1c2.5,1.6,4.2,4.5,4.2,8.4c0,5.5-3.4,8.9-8.2,10.9c1.1,2.1,3.8,6.3,5.7,9.3c2.3,3.3,3.6,5,5.2,6.6
			c1.7,1.9,3.2,2.7,4.6,3C618.2,377.6,618,379.3,618,379.3z M632.1,352.6c-2.9,0-5.7,2.7-6.6,7.9c3.6,0,7.1-0.1,10.8-0.2
			c1.1,0,1.5-0.4,1.5-1.2C637.8,355.6,635.7,352.6,632.1,352.6L632.1,352.6L632.1,352.6z M643,373.4c-4,5-8.5,6.2-10.4,6.2
			c-7.9,0-12.4-6.3-12.4-13.6c0-4.4,1.6-8.3,4.2-11.1c2.7-3,6.1-4.7,9.3-4.7h0.1c5.3,0,9.6,4.7,9.6,9.7c0,1.3-0.3,1.8-1.4,2
			s-9.1,0.8-16.7,1.1c0.1,8.7,5.1,12.2,9.5,12.2c2.5,0,5-1,7.2-3.2L643,373.4L643,373.4z M671.1,373.1c-2.9,3.7-7.1,6.5-10.9,6.5
			c-8.1,0-12.8-6.5-12.8-13.4c0-4.9,2.1-9.2,6.4-12.4c3.4-2.5,7.1-3.6,9.6-3.6h0.1c2.6,0,4.7,0.8,5.7,1.6c0.8,0.7,1,1.2,1,1.9
			c0,1.3-1.4,2.8-2.1,2.8c-0.3,0-0.6-0.2-1.2-0.7c-1.9-1.8-4.2-2.7-6.4-2.7c-4.2,0-8,3.5-8,10.2c0,8.9,6.1,11.8,9.7,11.8
			c2.8,0,4.9-0.7,7.9-3.5L671.1,373.1L671.1,373.1z M691.5,378.8v-1.6c3.7-0.4,4.2-0.7,4.2-4.9v-10.6c0-5.2-1.9-7.9-6.2-7.9
			c-2.4,0-4.9,1.2-6.6,3.3v15.2c0,4.1,0.3,4.5,4.1,4.9v1.6h-13.6l0.1-1.6c3.9-0.3,4.4-0.7,4.4-4.9v-30.4c0-4-0.1-4.4-4.4-4.7v-1.4
			c3.1-0.4,6.9-1.4,9.4-2.2v21.4c2.2-2.2,5.7-4.7,9.2-4.7c5.2-0.1,8.9,3.3,8.9,10.9v11.1c0,4.2,0.4,4.6,4.2,4.9v1.6L691.5,378.8
			L691.5,378.8z M721.2,378.8c-1.1,0.6-2.1,0.8-2.7,0.8c-4.1,0-6.2-2.5-6.2-7.5v-18.6h-4.4l-0.2-0.6l1.7-1.8h3v-4.7l4.2-4.2l0.9,0.1
			v8.8h7.2c0.6,0.6,0.4,2-0.4,2.4h-6.8v16.4c0,5.2,2.1,6.1,3.7,6.1c1.6,0,3.1-0.6,4-1.1l0.6,1.6L721.2,378.8L721.2,378.8z
			 M754.3,370.8c0,4.6,1.2,5.8,5.3,5.8c5.2-0.1,9.9-2.8,9.9-9.4c0-6.5-4.5-9.4-12.2-9.4h-3V370.8L754.3,370.8z M757.3,355.7
			c7,0,10-2.9,10-8.2c0-4.3-2.4-8.2-8.5-8.2c-1.6,0-3.1,0.2-3.7,0.6s-0.8,1.1-0.8,3.2v12.4h3V355.7z M764.5,356.5
			c6.3,0.9,11.3,3.8,11.3,10.1c0,4.3-2.3,7.5-6.1,9.6c-3.3,1.7-7.4,2.6-12.5,2.6H743V377c5.5-0.4,5.9-0.7,5.9-6.1v-25.7
			c0-5.3-0.2-5.7-5.4-6v-1.7h16.4c4.8,0,7.7,0.7,9.6,2.1c2.3,1.5,3.6,4.4,3.6,7.2c0,6-5.1,8.6-8.7,9.5L764.5,356.5L764.5,356.5z
			 M792.9,352.6c-2.9,0-5.7,2.7-6.6,7.9c3.6,0,7.1-0.1,10.8-0.2c1.1,0,1.5-0.4,1.5-1.2C798.6,355.6,796.4,352.6,792.9,352.6
			L792.9,352.6L792.9,352.6z M803.7,373.4c-4,5-8.5,6.2-10.4,6.2c-7.9,0-12.4-6.3-12.4-13.6c0-4.4,1.6-8.3,4.2-11.1
			c2.7-3,6.1-4.7,9.3-4.7h0.1c5.3,0,9.6,4.7,9.6,9.7c0,1.3-0.3,1.8-1.4,2c-1.1,0.2-9.1,0.8-16.7,1.1c0.1,8.7,5.1,12.2,9.5,12.2
			c2.5,0,5-1,7.2-3.2L803.7,373.4L803.7,373.4z M817.4,356.9c1.9-3.2,4.7-6.7,7.8-6.7c2.1,0,3.7,1.6,3.7,3.2c0,1.2-0.8,2.6-2,3.2
			c-0.7,0.3-1.3,0.3-1.7-0.1c-0.9-0.9-1.6-1.3-2.7-1.3c-1.6,0-3.7,1.9-5.1,5.5v11.6c0,4.2,0.3,4.6,5.2,5v1.6h-14.7v-1.6
			c4-0.4,4.4-0.7,4.4-5v-13.2c0-4.2-0.3-4.5-4-5v-1.4c3.2-0.5,5.9-1.2,9-2.7v6.9H817.4L817.4,356.9z M830.6,378.8v-1.6
			c4-0.4,4.6-0.7,4.6-5v-30.2c0-4.3-0.4-4.5-4.4-4.9v-1.5c3.4-0.4,7.3-1.4,9.5-2.2V372c0,4.2,0.5,4.6,4.6,5v1.6h-14.3V378.8z
			 M851.3,341.4c0-1.9,1.5-3.4,3.3-3.4c1.8,0,3.2,1.4,3.2,3.4c0,1.7-1.4,3.3-3.3,3.3C852.8,344.6,851.3,343.1,851.3,341.4
			L851.3,341.4z M847.9,378.8v-1.6c4.1-0.4,4.5-0.7,4.5-5.1v-13.2c0-3.9-0.2-4.2-4.1-4.8v-1.5c3.3-0.5,6.2-1.3,9.1-2.4v22
			c0,4.3,0.4,4.7,4.5,5.1v1.6h-14V378.8z M883.3,378.8v-1.6c3.8-0.4,4.2-0.9,4.2-5.3v-10.6c0-4.4-1.5-7.2-5.8-7.2
			c-2.5,0-5.1,1.6-6.9,3.3v15c0,4.3,0.4,4.6,4.2,5v1.6h-13.9v-1.6c4.4-0.4,4.7-0.7,4.7-5v-13.2c0-4.1-0.4-4.3-3.9-4.9v-1.4
			c3.1-0.6,6.1-1.3,8.9-2.7v5.1c1.3-0.9,2.7-1.9,4.3-3c1.8-1.1,3.5-1.9,5.3-1.9c5.1,0,8.3,3.5,8.3,9.7v12.3c0,4.3,0.3,4.6,4,5v1.6
			h-13.3V378.8z"/>
		<path class="st0" d="M194.7,435.6h-7.5v9.6h7.5c3.4,0,5.2-2,5.2-4.8C199.9,437.5,198.1,435.6,194.7,435.6 M194.3,422.2h-7.1v9.1
			h7.1c3.1,0,5.1-1.6,5.1-4.5C199.4,423.9,197.4,422.2,194.3,422.2 M195.1,449.5h-12.8v-31.5h12.3c5.8,0,9.5,3.3,9.5,8.6
			c0,3.4-2.1,5.8-4.3,6.7c2.4,0.9,4.8,3.4,4.8,7.2C204.7,446.4,200.7,449.5,195.1,449.5 M224.1,433.3c-0.7-1.6-2.3-2.9-4.4-2.9
			c-2.1,0-3.8,1.1-4.5,2.9c-0.4,1-0.5,1.6-0.6,3.1h10.1C224.7,435.1,224.5,434.4,224.1,433.3L224.1,433.3z M214.6,439.6
			c0,3.9,2,6.3,5.7,6.3c2.5,0,3.9-0.7,5.5-2.3l2.9,2.7c-2.3,2.2-4.5,3.5-8.5,3.5c-5.6,0-10.1-3-10.1-11.5c0-7.2,3.8-11.4,9.6-11.4
			c6,0,9.6,4.4,9.6,10.8v1.9L214.6,439.6L214.6,439.6z M247.6,432.3c-1-1-1.8-1.5-3.4-1.5c-2.4,0-4.5,1.9-4.5,5v13.7h-4.5V427h4.4
			v2.4c1.1-1.6,3.5-2.7,6-2.7c2.1,0,3.8,0.6,5.4,2.1L247.6,432.3z M260.7,449.5c-4.3,0-6.1-2.9-6.1-6.2v-25.3h4.5v25
			c0,1.7,0.6,2.7,2.4,2.7h2v3.9H260.7L260.7,449.5z M268.5,449.5h4.5V427h-4.5V449.5z M268.3,422.6h4.8v-4.8h-4.8V422.6L268.3,422.6
			z M293.9,449.5v-13.7c0-3.5-2-5-4.5-5c-2.6,0-4.7,1.5-4.7,5v13.7h-4.5V427h4.4v2.2c1.5-1.6,3.8-2.5,6-2.5c2.3,0,4.2,0.7,5.5,2
			c1.7,1.6,2.2,3.8,2.2,6.3v14.3h-4.5V449.5z M324.9,449.8c-4.8,0-8.2-1.1-11.2-4.2l3.2-3.2c2.3,2.3,4.8,3.1,8.1,3.1
			c4.1,0,6.5-1.7,6.5-4.8c0-1.3-0.4-2.5-1.2-3.3c-0.8-0.7-1.6-1.1-3.5-1.3l-3.8-0.5c-2.5-0.3-4.6-1.2-6-2.5c-1.5-1.4-2.3-3.5-2.3-6
			c0-5.5,4-9.3,10.6-9.3c4.2,0,7.1,1.1,9.8,3.6l-3.1,3.1c-1.9-1.8-4.2-2.4-6.8-2.4c-3.8,0-5.8,2.1-5.8,4.9c0,1.1,0.3,2.1,1.2,3
			c0.8,0.7,2,1.2,3.6,1.4l3.6,0.5c3,0.4,4.6,1.1,5.9,2.3c1.7,1.5,2.5,3.8,2.5,6.4C336.2,446.3,331.5,449.8,324.9,449.8 M351,449.8
			c-5.1,0-10-3.1-10-11.5c0-8.4,5-11.4,10-11.4c3.1,0,5.3,0.9,7.4,3.2l-3.1,3c-1.4-1.5-2.5-2.1-4.3-2.1s-3.2,0.7-4.2,1.9
			c-1,1.2-1.3,2.9-1.3,5.4c0,2.7,0.3,4.3,1.3,5.5c1,1.3,2.4,1.9,4.2,1.9s2.9-0.6,4.3-2.1l3.1,3C356.3,448.7,354.2,449.7,351,449.8
			 M377.3,449.5v-13.8c0-3.4-2-4.9-4.5-4.9c-2.5,0-4.6,1.5-4.6,4.9v13.8h-4.5v-31.5h4.5v11.3c1.5-1.6,3.6-2.5,5.8-2.5
			c5,0,7.8,3.4,7.8,8.3v14.5L377.3,449.5L377.3,449.5z M400.4,432.1c-0.8-0.8-2-1.3-3.4-1.3s-2.4,0.4-3.3,1.3
			c-1.4,1.3-1.5,3.7-1.5,6.1s0.2,4.8,1.5,6.1c0.8,0.8,1.9,1.3,3.3,1.3s2.4-0.5,3.4-1.3c1.3-1.3,1.5-3.7,1.5-6.1
			S401.8,433.4,400.4,432.1 M403.8,447c-1.4,1.5-3.7,2.7-6.7,2.7s-5.2-1.1-6.7-2.7c-2.1-2.2-2.7-5-2.7-8.9c0-3.8,0.5-6.6,2.7-8.8
			c1.4-1.5,3.7-2.7,6.7-2.7s5.3,1.1,6.7,2.7c2.1,2.2,2.7,5,2.7,8.8C406.5,442,405.9,444.9,403.8,447 M424.2,432.1
			c-0.8-0.8-2-1.3-3.4-1.3s-2.4,0.4-3.3,1.3c-1.4,1.3-1.5,3.7-1.5,6.1s0.2,4.8,1.5,6.1c0.8,0.8,1.9,1.3,3.3,1.3
			c1.3,0,2.4-0.5,3.4-1.3c1.3-1.3,1.5-3.7,1.5-6.1S425.6,433.4,424.2,432.1 M427.6,447c-1.4,1.5-3.7,2.7-6.7,2.7s-5.2-1.1-6.7-2.7
			c-2.1-2.2-2.7-5-2.7-8.9c0-3.8,0.5-6.6,2.7-8.8c1.4-1.5,3.7-2.7,6.7-2.7s5.3,1.1,6.7,2.7c2.1,2.2,2.7,5,2.7,8.8
			C430.2,442,429.7,444.9,427.6,447 M442.4,449.5c-4.3,0-6.1-2.9-6.1-6.2v-25.3h4.5v25c0,1.7,0.6,2.7,2.4,2.7h2v3.9H442.4
			L442.4,449.5z M472.4,432.1c-0.8-0.8-2-1.3-3.4-1.3s-2.4,0.4-3.3,1.3c-1.4,1.3-1.5,3.7-1.5,6.1s0.2,4.8,1.5,6.1
			c0.8,0.8,1.9,1.3,3.3,1.3c1.3,0,2.4-0.5,3.4-1.3c1.3-1.3,1.5-3.7,1.5-6.1C474,435.8,473.8,433.4,472.4,432.1 M475.8,447
			c-1.4,1.5-3.7,2.7-6.7,2.7s-5.2-1.1-6.7-2.7c-2.1-2.2-2.7-5-2.7-8.9c0-3.8,0.5-6.6,2.7-8.8c1.4-1.5,3.7-2.7,6.7-2.7
			s5.3,1.1,6.7,2.7c2.1,2.2,2.7,5,2.7,8.8C478.5,442,478,444.9,475.8,447 M489.8,430.9v18.6h-4.5v-18.6h-2.5v-3.5h2.5V424
			c0-3.3,1.9-6.2,6.1-6.2h2.9v3.9h-2c-1.6,0-2.4,1-2.4,2.7v3.3h4.5v3.5h-4.5V430.9z M510.3,449.5v-31.5h20.2v4.3h-15.4v9.2h13.2v4.3
			h-13.2v9.5h15.4v4.3 M545.4,449.8c-5.1,0-10-3.1-10-11.5c0-8.4,5-11.4,10-11.4c3.1,0,5.3,0.9,7.4,3.2l-3.2,3
			c-1.4-1.5-2.5-2.1-4.3-2.1s-3.2,0.7-4.2,1.9c-1,1.2-1.3,2.9-1.3,5.4c0,2.7,0.3,4.3,1.3,5.5c1,1.3,2.4,1.9,4.2,1.9
			c1.7,0,2.9-0.6,4.3-2.1l3.2,3C550.7,448.7,548.5,449.7,545.4,449.8 M569.7,432.1c-0.8-0.8-2-1.3-3.4-1.3s-2.4,0.4-3.3,1.3
			c-1.4,1.3-1.5,3.7-1.5,6.1s0.2,4.8,1.5,6.1c0.8,0.8,1.9,1.3,3.3,1.3s2.4-0.5,3.4-1.3c1.4-1.3,1.5-3.7,1.5-6.1
			S571,433.4,569.7,432.1 M573,447c-1.4,1.5-3.7,2.7-6.7,2.7c-3.1,0-5.2-1.1-6.7-2.7c-2.1-2.2-2.7-5-2.7-8.9c0-3.8,0.5-6.6,2.7-8.8
			c1.4-1.5,3.7-2.7,6.7-2.7c3.1,0,5.3,1.1,6.7,2.7c2.1,2.2,2.7,5,2.7,8.8C575.8,442,575.2,444.9,573,447 M595.6,449.5v-13.7
			c0-3.5-2-5-4.5-5c-2.4,0-4.7,1.5-4.7,5v13.7h-4.5V427h4.4v2.2c1.5-1.6,3.8-2.5,6-2.5c2.3,0,4.2,0.7,5.5,2c1.7,1.6,2.2,3.8,2.2,6.3
			v14.3h-4.5V449.5z M618.6,432.1c-0.8-0.8-2-1.3-3.4-1.3s-2.4,0.4-3.3,1.3c-1.4,1.3-1.5,3.7-1.5,6.1s0.2,4.8,1.5,6.1
			c0.8,0.8,1.9,1.3,3.3,1.3s2.4-0.5,3.4-1.3c1.3-1.3,1.5-3.7,1.5-6.1C620.3,435.8,620.1,433.4,618.6,432.1 M622.1,447
			c-1.4,1.5-3.7,2.7-6.7,2.7s-5.2-1.1-6.7-2.7c-2.1-2.2-2.7-5-2.7-8.9c0-3.8,0.5-6.6,2.7-8.8c1.4-1.5,3.7-2.7,6.7-2.7
			s5.3,1.1,6.7,2.7c2.1,2.2,2.7,5,2.7,8.8C624.8,442,624.3,444.9,622.1,447 M658.3,449.5v-13.7c0-3.5-2-5-4.5-5
			c-2.4,0-4.7,1.5-4.7,4.8v13.9h-4.5v-13.7c0-3.5-2-5-4.5-5c-2.5,0-4.7,1.5-4.7,5v13.7H631V427h4.4v2.2c1.5-1.6,3.8-2.5,6-2.5
			c2.8,0,5,1.1,6.4,3.3c1.8-2.2,4.1-3.3,7-3.3c2.3,0,4.4,0.7,5.7,2c1.7,1.6,2.4,3.8,2.4,6.3v14.3h-4.7V449.5z M669.7,449.5h4.5V427
			h-4.5V449.5z M669.6,422.6h4.8v-4.8h-4.8V422.6L669.6,422.6z M690.3,449.8c-5.1,0-10-3.1-10-11.5c0-8.4,5-11.4,10-11.4
			c3.1,0,5.3,0.9,7.4,3.2l-3.2,3c-1.4-1.5-2.6-2.1-4.3-2.1s-3.2,0.7-4.2,1.9c-1,1.2-1.3,2.9-1.3,5.4c0,2.7,0.3,4.3,1.3,5.5
			c1,1.3,2.4,1.9,4.2,1.9c1.7,0,2.9-0.6,4.3-2.1l3.2,3C695.7,448.7,693.4,449.7,690.3,449.8 M710.2,449.8c-3.7,0-6.8-0.6-9.5-3.3
			l3-3c1.8,1.8,4.3,2.3,6.5,2.3c2.8,0,4.9-1,4.9-3.1c0-1.5-0.8-2.4-3.1-2.7l-3.6-0.3c-4.2-0.4-6.6-2.2-6.6-6.2
			c0-4.4,3.8-6.8,8.5-6.8c3.4,0,6.2,0.7,8.4,2.6l-2.9,2.9c-1.4-1.2-3.5-1.6-5.5-1.6c-2.8,0-4.1,1.2-4.1,2.9c0,1.3,0.7,2.3,3.1,2.5
			l3.6,0.3c4.2,0.3,6.7,2.3,6.7,6.3C719.6,447.3,715.6,449.7,710.2,449.8 M747.8,439.6h-5.3c-2.7,0-4.1,1.2-4.1,3.3
			c0,2,1.3,3.2,4.1,3.2c1.7,0,3.1-0.1,4.2-1.3c0.7-0.7,1-1.7,1-3.3v-1.8H747.8z M747.9,449.5v-2c-1.6,1.6-3.2,2.2-6,2.2
			c-2.8,0-4.7-0.6-6-2c-1.1-1.2-1.7-3-1.7-4.8c0-3.8,2.7-6.4,7.8-6.4h5.9v-1.6c0-2.9-1.4-4.2-4.9-4.2c-2.4,0-3.7,0.6-4.9,2.1l-3-2.8
			c2.1-2.4,4.4-3.3,8.1-3.3c6.1,0,9.3,2.5,9.3,7.6v15L747.9,449.5L747.9,449.5z M773,449.5v-13.7c0-3.5-2-5-4.5-5
			c-2.6,0-4.7,1.5-4.7,5v13.7h-4.6V427h4.4v2.2c1.5-1.6,3.8-2.5,6-2.5c2.3,0,4.2,0.7,5.5,2c1.7,1.6,2.2,3.8,2.2,6.3v14.3H773V449.5z
			 M792.6,430.8c-4.1,0-4.7,3.5-4.7,7.4s0.6,7.4,4.7,7.4s4.7-3.5,4.7-7.4S796.6,430.8,792.6,430.8L792.6,430.8z M797.3,449.5v-2.3
			c-1.7,2-3.5,2.7-5.9,2.7c-2.2,0-4.3-0.7-5.5-1.9c-2.2-2.2-2.5-6.1-2.5-9.5s0.3-7.2,2.5-9.5c1.2-1.2,3.2-1.9,5.5-1.9
			s4.3,0.6,5.9,2.5v-11.3h4.5v31.5h-4.5V449.5z M820.1,449.5v-31.5h4.8v27.1h15.2v4.3 M857,439.6h-5.3c-2.7,0-4.1,1.2-4.1,3.3
			c0,2,1.3,3.2,4.1,3.2c1.7,0,3.1-0.1,4.2-1.3c0.7-0.7,1-1.7,1-3.3L857,439.6L857,439.6z M857.1,449.5v-2c-1.6,1.6-3.2,2.2-6,2.2
			c-2.8,0-4.7-0.6-6-2c-1.1-1.2-1.7-3-1.7-4.8c0-3.8,2.7-6.4,7.8-6.4h5.9v-1.6c0-2.9-1.4-4.2-4.9-4.2c-2.4,0-3.7,0.6-4.9,2.1l-3-2.8
			c2.1-2.4,4.4-3.3,8.1-3.3c6.1,0,9.3,2.5,9.3,7.6v15L857.1,449.5L857.1,449.5z M890.6,449.5h-3.9l-5.3-15.7l-5.2,15.7h-3.9
			l-6.9-22.4h4.8l4.3,15.8l5.2-15.8h3.5l5.2,15.8l4.4-15.8h4.8"/>
	</g>
</g>
</svg>
