<?xml version="1.0" encoding="utf-8"?>
<!-- Generator: Adobe Illustrator 27.8.1, SVG Export Plug-In . SVG Version: 6.00 Build 0)  -->
<svg version="1.1" id="fd90b8a3-4437-4e53-9ed1-6a62608c98e9"
	 xmlns="http://www.w3.org/2000/svg" xmlns:xlink="http://www.w3.org/1999/xlink" x="0px" y="0px" viewBox="0 0 901.3 699.5"
	 style="enable-background:new 0 0 901.3 699.5;" xml:space="preserve">
<style type="text/css">
	.st0{fill:#FFFFFF;stroke:#FFFFFF;stroke-width:0.1048;stroke-miterlimit:123.7911;stroke-opacity:0;}
</style>
<path id="path5037" class="st0" d="M692.6,172.4v176.8l-2.2,1.9l-2.2,1.9l-2.1,2l-2.1,2l-2,2l-2,2.1l-1.9,2.1l-1.9,2.1V172.4H478.5
	v161h-16.4v-161H264.5v161.3h-16.4V172.4H50.4v183.8L0,522.8h44.3L66.6,449H73l36.9,73.8h53.6L127.7,449h81.1l-22.6,73.8h48.4
	l22.3-73.6h10.7V449h15.2h1.3h91.4L354,522.6h48.9l20.8-73.6h21.9l0.5,73.6h41l47.1-73.6H565l-15.9,73.7h48.1l15.8-73.6h27.8
	l-0.2,4.2l0.1,4.3l0.2,4.1l0.3,4.1l0.3,2l0.3,2l0.3,2l0.3,2l0.4,2l0.4,1.9l0.5,1.9l0.5,1.9l0.6,1.9l0.6,1.8l0.7,1.8l0.7,1.7l0.8,1.8
	l0.8,1.7l0.9,1.6l0.9,1.7l1,1.6l1.2,1.5l1.2,1.6l1.3,1.5l1.3,1.5l1.3,1.5l1.5,1.5l1.5,1.4l1.8,1.5l1.8,1.5l1.9,1.5l2,1.4l2,1.4
	l2,1.3l2.1,0.9l2.1,1.2l2.1,0.9l2.1,0.9l2.1,0.8l2.2,0.8l2.2,0.7l2.2,0.6l2.2,0.6l2.2,0.5l4.5,0.9l4.6,0.7l4.5,0.6l4.5,0.5l4.4,0.3
	l4.3,0.2l4.2,0.2h4l5.5-0.1l5.5-0.1l5.6-0.3l5.6-0.3l5.6-0.4l5.6-0.4l5.6-0.5l5.6-0.6l5.7-0.7l5.7-0.8l5.7-0.8l5.7-0.8l5.7-0.9
	l5.7-1.2l5.7-1.2l5.7-1.4l16.7-66.8h54.9v-277L692.6,172.4L692.6,172.4z M68.8,442.2l0.3-0.9l0.6,0.9H68.8z M241,343.2l-2.8,9.3
	l-26.4,86.6l-1.1,3h-86.5l-6.7-14.2l93.1-94.3h-59.9l-72.9,77.7l23.5-77.7H57.3V179.5h183.5v163.7H241z M292,416.4L292,416.4
	l-1.5,0.1l-1.4,0.1l-1.5,0.1h-1.5h-2h-1.7l-1.6,0.1h-1.5l-11.8-0.1l5.5-19.9l2.5-9.9l6.3-23.2h2h2.1l2-0.1h1.9h9.1l5.6,0.1l5,0.2
	l2.2,0.1l2.1,0.2l2.1,0.3l1.9,0.3l1.7,0.3l1.6,0.4l1.5,0.4l1.4,0.5l1.2,0.5l1.1,0.7l0.9,0.7l0.7,0.9l0.4,0.7l0.3,0.7l0.3,0.8
	l0.3,0.8l0.2,0.9l0.1,0.9v1.2v1.3l-0.1,1.4l-0.1,1.4l-0.3,1.5l-0.3,1.5l-0.8,3.2l-1,3.6l-1.1,2.9l-1.2,2.8l-1.3,2.7l-1.4,2.5
	l-0.6,1.2l-0.6,1.2l-0.7,1.2l-0.8,0.9l-0.8,0.9l-0.8,0.8l-0.9,0.9l-0.9,0.8l-1.1,0.7l-1,0.8l-1.2,0.6l-1.3,0.7l-0.9,1.3l-1.4,0.5
	l-1.4,0.5l-1.5,0.4l-1.5,0.5l-1.6,0.3l-1.7,0.3l-1.7,0.3l-1.9,0.3l-1.9,0.3l-2,0.2L292,416.4L292,416.4z M425.7,442.2l19.3-68
	l0.7,68H425.7L425.7,442.2z M455,333.4h-45.9l-31.6,108.8h-48.6l2.2-0.9l2.2-0.9l2.1-0.9l2.1-0.9l2.1-0.9l2-1.3l2-1.2l1.9-1.3
	l1.9-1.4l1.8-1.4l1.7-1.4l1.7-1.5l1.6-1.5l1.5-1.6l1.5-1.5l1.5-1.7l1.5-1.6l1.4-1.8l1.3-1.7l1.3-1.9l1.2-1.9l1-1.9l1.1-2l0.9-2.1
	l0.9-2.1l0.8-2.1l0.7-2.1l0.7-2.2l0.5-2.2l0.6-2.2l0.4-2.4l0.4-2.3l0.6-3.8l0.5-3.6l0.3-3.4l0.3-3.1l0.1-3.1l-0.1-2.8l-0.1-2.8
	l-0.3-2.6l-0.3-2.5l-0.6-2.5l-0.6-2.3l-0.9-2.2l-1.1-2.1l-1.2-2.1l-1.4-2l-1.5-1.9l-1.3-1.4l-1-1l-1.4-1.2l-1.5-0.9l-1.5-0.9
	l-1.5-0.9l-1.6-0.8l-1.6-0.7l-1.7-0.7l-1.7-0.5l-1.8-0.5l-1.8-0.5l-1.9-0.4l-1.9-0.3l-1.9-0.3l-2-0.3l-4-0.5l-4-0.3l-4.1-0.3
	l-4.2-0.1h-8.5h-8.4h-2.6h-4.7h-5.8h-6.5h-6.3h-5.4H273h-1.5V179.4h183.5v154H455z M566.4,442.2h-27.6l41.8-65.2L566.4,442.2z
	 M669,336.6l-0.1,37.8l-2.3,3.3l-2.1,3.4l-2.1,3.4l-2,3.4l-1.9,3.4l-1.9,3.5l-1.6,3.4l-1.6,3.4l-1.5,3.3l-1.4,3.4l-1.4,3.3l-1.2,3.1
	l-1,3.1l-0.9,3l-0.8,2.9l-0.7,2.9l-0.4,2l-0.4,2.1l-0.4,2l-0.3,2.1l-0.3,2l-0.3,2l-0.3,2l-0.2,2.1h-27l23-108.6l-77.6-0.1
	l-69.4,108.6h-5v-263h183.5L669,336.6L669,336.6z M774.8,486.6l-3.9,0.6l-3.9,0.5l-3.9,0.5l-3.9,0.4l-3.9,0.3l-3.9,0.3l-3.8,0.2
	h-3.8h-2.4l-2.4-0.1l-2.3-0.2l-2.3-0.3l-2.2-0.3l-2.1-0.3l-2.1-0.4l-2.1-0.5l-2-0.6l-2-0.6l-1.9-0.8l-1.8-0.8l-1.8-0.9l-1.7-0.9
	l-1.6-1.2l-1.4-1.2l-1.5-1.4l-1.4-1.5l-1.4-1.4l-1.3-1.6l-1.2-1.6l-1.1-1.8l-0.9-1.8l-1-1.8l-0.8-2l-0.6-2.1l-0.5-2.1l-0.5-2.2
	l-0.3-2.3l-0.3-2.4l-0.2-2.5l-0.1-2.6h85.6L774.8,486.6L774.8,486.6z M883.3,442.2h-46.2l7.6-30.3H752l-7.6,30.3h-44.8v-6.3l0.5-2.6
	l0.4-2.6l0.5-2.7l0.5-2.7l0.8-3l0.8-3l0.9-3l1.1-2.9l1.2-2.9l1.3-2.9l1.4-2.8l1.4-2.8l1.5-2.8l1.5-2.7l1.6-2.7l1.8-2.6l1.8-2.6
	l1.8-2.5l2-2.4l2.1-2.3l2.1-2.2l2.1-2.1l2.3-2.1l2.3-2l2.4-1.8l2.6-1.7l2.6-1.5l2.7-1.5l2.8-1.4l2.9-1.2l3-0.9l3.1-0.7l3.3-0.6
	l3.3-0.4l3.4-0.3l3.5-0.1l2.7,0.1l2.7,0.2l2.7,0.3l2.6,0.5l1.4,0.3l1.3,0.3l1.3,0.3l1.2,0.5l1.2,0.4l1.2,0.6l1,0.6l1.1,0.6l0.9,0.8
	l0.9,0.8l0.8,0.8l0.8,0.9l0.7,0.8l0.6,1.2l0.5,1.3l0.5,1.3l0.4,1.4l0.3,1.5l0.3,1.5l0.3,1.6l0.1,1.6v1.7v1.8l-0.2,1.9h55.2l0.8-3.9
	l0.7-4.4l0.3-2.3l0.2-2.5l0.2-2.5v-2.6l-0.1-2.6l-0.3-2.7l-0.3-1.4l-0.2-1.5l-0.3-1.5l-0.3-1.5l-0.4-1.5l-0.4-1.5l-0.5-1.5l-0.6-1.5
	l-0.6-1.5l-0.8-1.5l-0.8-1.5l-0.9-1.5l-1.2-1.5l-1.3-1.5l-1.3-1.5l-1.4-1.4l-1.5-1.4l-1.5-1.3l-1.5-1.2l-1.6-1.2l-1.7-1.2l-1.7-0.9
	l-1.8-0.8l-1.9-0.9l-1.9-0.8l-2-0.8l-2.1-0.7l-2.1-0.7l-2.1-0.6l-2.2-0.5l-2.3-0.6l-2.3-0.5l-2.3-0.4l-2.3-0.4l-2.4-0.3l-2.5-0.3
	l-5.1-0.5l-5.2-0.4l-5.6-0.2l-5.7-0.1l-4.2,0.1l-4.4,0.1l-4.6,0.3l-4.8,0.3l-5,0.5l-5,0.6l-5.1,0.8l-5.2,1.2l-2.6,0.5l-2.7,0.6
	l-2.6,0.7l-2.7,0.7l-2.7,0.8l-2.7,0.8l-2.7,0.9l-2.6,0.9l-2.7,1.2l-2.7,1.3l-2.6,1.3l-2.7,1.4l-2.6,1.5l-2.6,1.5l-2.6,1.5l-2.6,1.7
	V179.5H883L883.3,442.2L883.3,442.2z"/>
</svg>
