<?xml version="1.0" encoding="utf-8"?>
<!-- Generator: Adobe Illustrator 27.8.1, SVG Export Plug-In . SVG Version: 6.00 Build 0)  -->
<svg version="1.1" id="fd90b8a3-4437-4e53-9ed1-6a62608c98e9"
	 xmlns="http://www.w3.org/2000/svg" xmlns:xlink="http://www.w3.org/1999/xlink" x="0px" y="0px" viewBox="0 0 901.3 699.5"
	 style="enable-background:new 0 0 901.3 699.5;" xml:space="preserve">
<style type="text/css">
	.st0{fill:#FFFFFF;}
</style>
<g>
	<g>
		<polygon class="st0" points="777,301.7 699.7,483 751.4,483 797,376 842.5,483 894.3,483 817,301.7 		"/>
	</g>
	<path class="st0" d="M375.7,216.4c-53.8,0-97.6,43.8-97.6,97.6s43.8,97.7,97.6,97.7s97.6-43.8,97.6-97.7S429.4,216.4,375.7,216.4z
		 M375.7,364c-27.6,0-50-22.4-50-50c0-27.6,22.4-50,50-50c27.6,0,50,22.4,50,50C425.7,341.6,403.3,364,375.7,364z"/>
	<rect x="230.5" y="435.5" class="st0" width="290.4" height="47.7"/>
	<polygon class="st0" points="135.2,301.7 135.2,408.1 47.6,301.7 0,301.7 0,483 47.6,483 47.6,376.7 135.2,483 182.8,483 
		182.8,301.7 	"/>
	<path class="st0" d="M606.5,459.2"/>
	<g>
		<polygon class="st0" points="638.2,483 715.9,301.7 664.1,301.7 618.2,408.7 572.7,301.7 520.9,301.7 598.3,483 		"/>
	</g>
	<path class="st0" d="M765.9,427.8"/>
</g>
</svg>
