<?xml version="1.0" encoding="utf-8"?>
<!-- Generator: Adobe Illustrator 27.8.1, SVG Export Plug-In . SVG Version: 6.00 Build 0)  -->
<svg version="1.1" id="fd90b8a3-4437-4e53-9ed1-6a62608c98e9"
	 xmlns="http://www.w3.org/2000/svg" xmlns:xlink="http://www.w3.org/1999/xlink" x="0px" y="0px" viewBox="0 0 901.3 699.5"
	 style="enable-background:new 0 0 901.3 699.5;" xml:space="preserve">
<style type="text/css">
	.st0{fill:#FFFFFF;}
</style>
<g>
	<path id="XMLID_191_" class="st0" d="M288.5,503.2c23.9,0,41.1-7.1,54.4-16c12.4-8.3,22.1-18.2,29.5-30.9
		c9.6-16.4,10.6-31.7,11.4-40.6c0-0.1,17.8-184.2,17.8-184.2h-86.8C314.7,231.5,288.5,503.2,288.5,503.2z"/>
	<path id="XMLID_190_" class="st0" d="M205,282.6l-13.1,136.3c-2.2,29.8,9,45.1,15.9,53.2c12.7,14.7,36,26.3,63,31.1l25.1-260.7
		c0.8-12.4-2.8-23.2-11-32.6c-9.6-11-23.9-13.5-29.8-13.5l-215.3,0C23.9,196.3,0,211.7,0,238.4c0,32.9,29.3,44.2,39.4,44.2
		C44.5,282.6,205,282.6,205,282.6z"/>
	<path id="XMLID_189_" class="st0" d="M169.5,467.9l16.1-167.5l-86.9-0.2c0,0-14.2,145.8-16.2,167.5L169.5,467.9z"/>
	<g id="XMLID_127_">
		<path id="XMLID_187_" class="st0" d="M455.7,238.6V283h-8.3v-44.4h-14.1v-7h36.6v7L455.7,238.6L455.7,238.6z"/>
		<path id="XMLID_185_" class="st0" d="M480.9,283v-51.5h27.1v6.9h-18.8v14.6h17.9v6.8h-17.9v16h18.8v7.1L480.9,283L480.9,283z"/>
		<path id="XMLID_183_" class="st0" d="M544.3,283.6c-17.2,0-23.6-11.1-23.6-24.9c0-16,8.1-27.7,25.4-27.7c3.8,0,7.8,0.6,11.3,1.4
			l-0.9,7.6c-3.7-1.1-7.4-1.8-11.1-1.8c-10.7,0-15.6,8.2-15.6,19c0,12,5.1,18.7,16.3,18.7c3.5,0,8-1,10.8-2.4l1,7.4
			C554.1,282.7,549.3,283.6,544.3,283.6L544.3,283.6z"/>
		<path id="XMLID_181_" class="st0" d="M605.1,283v-23.1h-24.3V283h-8.3v-51.5h8.3v21.3h24.3v-21.3h8.2v51.4L605.1,283L605.1,283z"
			/>
		<path id="XMLID_179_" class="st0" d="M662.3,283l-17.6-29.3c-2.3-3.7-4.1-7.4-5.7-10.8c0.3,5,0.5,15.5,0.5,22.8V283h-8.1v-51.5
			h10.9l17,28c2.3,3.8,4.3,7.9,6.2,11.6c-0.3-5.9-0.5-16.9-0.5-24.5v-15.2h8.1v51.4L662.3,283L662.3,283z"/>
		<path id="XMLID_177_" class="st0" d="M691,283v-51.5h8.3v51.4L691,283L691,283z"/>
		<path id="XMLID_175_" class="st0" d="M724.9,283.7c-3.7,0-7.4-0.5-10.4-1.2l0.5-7.8c2.9,1.1,6.9,1.9,10.7,1.9
			c5.6,0,10.2-2.4,10.2-7.9c0-10.8-22.5-6.2-22.5-22.9c0-8.8,6.9-15,18.9-15c3,0,6.2,0.4,9.3,0.9l-0.5,7.4c-3-0.9-6.2-1.4-9.3-1.4
			c-6.4,0-9.7,3-9.7,7.2c0,10.3,22.5,6.5,22.5,22.6C744.6,276.9,737.2,283.7,724.9,283.7z"/>
		<path id="XMLID_173_" class="st0" d="M779.6,283.6c-17.2,0-23.6-11.1-23.6-24.9c0-16,8.1-27.7,25.4-27.7c3.8,0,7.8,0.6,11.3,1.4
			l-0.9,7.6c-3.7-1.1-7.4-1.8-11.1-1.8c-10.7,0-15.6,8.2-15.6,19c0,12,5.1,18.7,16.3,18.7c3.5,0,8-1,10.8-2.4l1,7.4
			C789.4,282.7,784.6,283.6,779.6,283.6L779.6,283.6z"/>
		<path id="XMLID_171_" class="st0" d="M840.4,283v-23.1h-24.3V283h-8.3v-51.5h8.3v21.3h24.3v-21.3h8.2v51.4L840.4,283L840.4,283z"
			/>
		<path id="XMLID_169_" class="st0" d="M866.7,283v-51.5h27.1v6.9H875v14.6h17.9v6.8H875v16h18.8v7.1L866.7,283L866.7,283z"/>
		<path id="XMLID_167_" class="st0" d="M457.5,376.1c-16.1,0-19.6-8.8-19.6-18.3v-33.9h8.3v33.3c0,6.9,2.3,12,11.8,12
			c8.4,0,12.2-3.5,12.2-13.1v-32.2h8.1v31.6C478.4,369.2,471,376.1,457.5,376.1z"/>
		<path id="XMLID_165_" class="st0" d="M526.2,375.3L508.6,346c-2.3-3.7-4.1-7.4-5.7-10.8c0.3,5,0.5,15.5,0.5,22.8v17.3h-8.1v-51.4
			h10.9l17,28c2.3,3.8,4.3,7.9,6.2,11.6c-0.3-5.9-0.5-16.9-0.5-24.5v-15.2h8.1v51.4C536.9,375.3,526.2,375.3,526.2,375.3z"/>
		<path id="XMLID_163_" class="st0" d="M554.1,375.3v-51.4h8.3v51.4C562.4,375.3,554.1,375.3,554.1,375.3z"/>
		<path id="XMLID_161_" class="st0" d="M600.5,375.3h-9.4l-18.3-51.4h9.1l10.8,31.7c1.1,3,2.3,6.6,3.3,10.4h0.1
			c0.9-3.6,1.8-6.8,3.3-11l11-31.2h8.5C619,323.9,600.5,375.3,600.5,375.3z"/>
		<path id="XMLID_159_" class="st0" d="M629.4,375.3v-51.4h27.1v6.9h-18.8v14.6h17.9v6.8h-17.9v16h18.8v7.1L629.4,375.3L629.4,375.3
			z"/>
		<path id="XMLID_156_" class="st0" d="M695.9,375.3l-16-22.3h-0.4v22.3h-8.3v-51.4c3.7-0.2,8-0.3,13.8-0.3c10.7,0,18,3.7,18,13.9
			c0,8.2-6.2,13.5-14.5,14.4c1.4,1.8,3,3.8,4.3,5.5l13.5,17.9L695.9,375.3L695.9,375.3z M683.9,330.4c-1.6,0-3.1,0.1-4.3,0.2v16.3
			c0.8,0.1,2.2,0.2,4,0.2c6.7,0,10.7-3.4,10.7-8.5C694.3,332.8,690.8,330.4,683.9,330.4z"/>
		<path id="XMLID_154_" class="st0" d="M726.4,376.1c-3.7,0-7.4-0.5-10.4-1.2l0.5-7.8c2.9,1.1,6.9,1.9,10.7,1.9
			c5.6,0,10.2-2.4,10.2-7.9c0-10.8-22.5-6.2-22.5-22.9c0-8.8,6.9-15,18.9-15c3,0,6.2,0.4,9.3,0.9l-0.5,7.4c-3-0.9-6.2-1.4-9.3-1.4
			c-6.4,0-9.7,3-9.7,7.2c0,10.3,22.5,6.5,22.5,22.6C746.2,369.2,738.7,376.1,726.4,376.1z"/>
		<path id="XMLID_152_" class="st0" d="M759.5,375.3v-51.4h8.3v51.4C767.8,375.3,759.5,375.3,759.5,375.3z"/>
		<path id="XMLID_150_" class="st0" d="M801,330.9v44.4h-8.3v-44.4h-14.1v-7h36.6v7C815.2,330.9,801,330.9,801,330.9z"/>
		<path id="XMLID_145_" class="st0" d="M852.2,375.3l-4-11.3h-20.8l-4,11.3h-8.4l18.4-51.4h9.2l18.6,51.4
			C861.4,375.3,852.2,375.3,852.2,375.3z M830.5,319.5c-2.6,0-4.6-2.1-4.6-4.6c0-2.5,2-4.6,4.6-4.6c2.6,0,4.6,2.1,4.6,4.6
			C835.2,317.4,833.1,319.5,830.5,319.5z M840.1,341.2c-1-2.7-1.7-5.1-2.3-7.9h-0.2c-0.6,2.8-1.4,5.5-2.4,8.1l-5.8,15.9H846
			C846,357.3,840.1,341.2,840.1,341.2z M845.6,319.5c-2.6,0-4.6-2.1-4.6-4.6c0-2.5,2.1-4.6,4.6-4.6c2.5,0,4.6,2.1,4.6,4.6
			C850.1,317.4,848.1,319.5,845.6,319.5z"/>
		<path id="XMLID_143_" class="st0" d="M883.7,330.9v44.4h-8.3v-44.4h-14.1v-7h36.6v7C897.9,330.9,883.7,330.9,883.7,330.9z"/>
		<path id="XMLID_139_" class="st0" d="M452,467.9c-3.1,0-8.3-0.2-14-0.2v-51.4c4-0.1,9.9-0.2,16.1-0.2c11.2,0,17,4.6,17,12.5
			c0,5.3-3.5,9.9-8.8,11.7v0.2c6.7,1.3,9.8,6.4,9.8,11.7C472.1,458.8,467.7,467.9,452,467.9z M452.7,422.6c-2.3,0-4.5,0.1-6.5,0.2
			V438c1.4,0.1,2.7,0.1,4.4,0.1c7.7,0,11.7-3.1,11.7-8.3C462.4,425.6,460,422.6,452.7,422.6z M450.9,444.3c-0.8,0-3.5,0-4.6,0.1
			v16.4c1.3,0.2,3.3,0.4,6,0.4c7.5,0,11.1-3.7,11.1-8.8C463.4,446.4,458.1,444.3,450.9,444.3z"/>
		<path id="XMLID_137_" class="st0" d="M486.1,467.6v-51.4h27.1v6.9h-18.8v14.6h17.9v6.8h-17.9v16h18.8v7.1L486.1,467.6L486.1,467.6
			z"/>
		<path id="XMLID_134_" class="st0" d="M552.5,467.6l-16-22.3h-0.4v22.3h-8.3v-51.4c3.7-0.2,8-0.3,13.8-0.3c10.7,0,18,3.7,18,13.9
			c0,8.2-6.2,13.5-14.5,14.4c1.4,1.8,3,3.8,4.3,5.5l13.5,17.9L552.5,467.6L552.5,467.6z M540.5,422.7c-1.6,0-3.1,0.1-4.3,0.2v16.3
			c0.8,0.1,2.2,0.2,4,0.2c6.7,0,10.7-3.4,10.7-8.5C550.9,425.1,547.4,422.7,540.5,422.7z"/>
		<path id="XMLID_132_" class="st0" d="M574.9,467.6v-51.4h8.3v44.2h17.7v7.2C600.9,467.6,574.9,467.6,574.9,467.6z"/>
		<path id="XMLID_130_" class="st0" d="M611.3,467.6v-51.4h8.3v51.4H611.3z"/>
		<path id="XMLID_128_" class="st0" d="M667.8,467.6l-17.6-29.3c-2.3-3.7-4.1-7.4-5.7-10.8c0.3,5,0.5,15.5,0.5,22.8v17.3h-8.1v-51.4
			h10.9l17,28c2.3,3.8,4.3,7.9,6.2,11.6c-0.3-5.9-0.5-16.9-0.5-24.5v-15.2h8.1v51.4C678.5,467.6,667.8,467.6,667.8,467.6z"/>
	</g>
</g>
</svg>
