<?xml version="1.0" encoding="utf-8"?>
<!-- Generator: Adobe Illustrator 27.8.1, SVG Export Plug-In . SVG Version: 6.00 Build 0)  -->
<svg version="1.1" id="fd90b8a3-4437-4e53-9ed1-6a62608c98e9"
	 xmlns="http://www.w3.org/2000/svg" xmlns:xlink="http://www.w3.org/1999/xlink" x="0px" y="0px" viewBox="0 0 901.3 699.5"
	 style="enable-background:new 0 0 901.3 699.5;" xml:space="preserve">
<style type="text/css">
	.st0{fill:#FFFFFF;}
</style>
<g id="g10" transform="matrix(1.25,0,0,-1.25,0,140.8125)">
	<g id="g12" transform="scale(0.1,0.1)">
		<path id="path14" class="st0" d="M4771.5-4158.5c399.5,0,686.5,118.5,909.5,268c208,139.5,369,304,492.5,517
			c160,275,209,530.5,222.5,678.5c0,1,293.5,3089.5,293.5,3089.5h-1481C5208.5,394.5,4771-4158.5,4771.5-4158.5"/>
		<path id="path16" class="st0" d="M3370-640.5l-200.5-2083c-37-498.5,150-754.5,266.5-889.5c212.5-246.5,603-440,1054-521
			c12.5,132.5,401,4164.5,401,4165c13.5,207-47,388-185,545.5c-161,184-399.5,239-498,239L666.5,815C400.5,815.5,0,545,0,99
			c0-551,489.5-740,658-740C744-640.5,3370-640.5,3370-640.5"/>
		<path id="path18" class="st0" d="M1308-3739.5h1319L2897-937H1578C1577.5-937,1342-3376.5,1308-3739.5L1308-3739.5"/>
		<path id="path20" class="st0" d="M5725.5-2093.5c-8-83,83-127.5,169-127.5h158c9.5,22.5,15,48.5,18,80.5c8.5,88-39,148-176.5,148
			C5791.5-1992,5732-2024,5725.5-2093.5z M6156.5-2148.5c-7-72.5-19.5-127-39-183L5383-2331l11,110.5h234.5c29.5,0,70.5-3,96.5-9.5
			v2c-61,27-95,88-87.5,163.5c11.5,122,104.5,189,258,189C6071-1875.5,6173-1978,6156.5-2148.5"/>
		<path id="path22" class="st0" d="M5768-1556.5c-6-62,36-105.5,106-115l21,218.5C5823-1451,5774-1491,5768-1556.5z M5980.5-1346.5
			l-31.5-327c115.5-3,171.5,46.5,181.5,152c5,49.5-0.5,101.5-15.5,148l86.5,14.5c15.5-54,21.5-118,15.5-182
			c-15.5-158-105.5-246-285-246c-152.5,0-260,88-245.5,237c14,147,116.5,208,232,208C5935-1342.5,5959.5-1343.5,5980.5-1346.5"/>
		<path id="path24" class="st0" d="M5852-956c-29.5-102.5,36.5-152,189-152h207l-10.5-110.5l-509,0.5l10,105.5
			c28.5,0,73.5-3,111.5-10.5v2c-66.5,23-125,74.5-105.5,171L5852-956"/>
		<path id="path26" class="st0" d="M6272.5-856.5l-748,0.5l10.5,110.5l748-0.5L6272.5-856.5"/>
		<path id="path28" class="st0" d="M6298-594.5l-509,0.5l10.5,110.5L6309-484L6298-594.5z M5704-538c-3.5-39.5-36.5-71.5-75.5-71.5
			c-38,0-65.5,32-62,71.5c3.5,38.5,37.5,70.5,75.5,70.5S5707.5-499.5,5704-538"/>
		<path id="path30" class="st0" d="M6354-11.5L6027-11c-63.5,0-103-17.5-109-76.5c-7.5-77.5,68-134.5,170.5-134.5h245L6323-332.5
			l-509,0.5l10,105.5c27.5,0,71.5-2,99.5-7.5v1C5861-203,5822-141,5830-54c11,117,88.5,153,177.5,153l356.5-0.5L6354-11.5"/>
	</g>
</g>
</svg>
