<svg id="Layer_1" data-name="Layer 1" xmlns="http://www.w3.org/2000/svg" viewBox="0 0 1446.75 452.25"><defs><style>.cls-1{fill:#fff;}</style></defs><path class="cls-1" d="M-100,510.25V58H1346.75V510.25Zm2.11-1.22H1339.37c5.38,0,5.39,0,5.39-5.15V293.11c0-4.9,0-4.91-4.89-4.91H-93.33c-1.45,0-2.91.12-4.56.2ZM234,280.17H561.15c5,0,5,0,5-4.91V64.87c0-5.56,0-5.57-5.6-5.57H-92.71c-5.39,0-5.39,0-5.39,5.57V274.51c0,5.66,0,5.66,5.63,5.66Z" transform="translate(100 -58)"/><path d="M-97.89,509V288.41c1.65-.08,3.11-.2,4.56-.2h1433.2c4.88,0,4.89,0,4.89,4.91V503.88c0,5.15,0,5.15-5.39,5.15H-97.89ZM696.6,410.19c-1.38-2.39-2.34-3.92-3.17-5.51q-22.6-43.33-45.14-86.71c-1.18-2.29-2.49-3.36-5.15-3.33q-14,.17-28.1-.06c-2.76-.05-3.7.84-3.7,3.63q.09,80.85,0,161.7c0,2.92,1,4,3.93,3.91,7.87-.14,15.74-.05,23.61-.05,5.35,0,5.35,0,5.36-5.35q.11-49,.21-98.06c0-1.51.25-3,.38-4.51a9.47,9.47,0,0,1,3,3.61C660.59,403.64,673.36,427.8,686,452c1.23,2.36,2.66,3.26,5.23,3.14a100.87,100.87,0,0,1,10.86,0c2.49.15,3.85-.77,5-2.92q17.25-33.06,34.65-66c1.95-3.71,4-7.37,6-11.05l.91.34v4c0,33.31.1,66.62,0,99.93,0,3.14.69,4.46,4.14,4.36,8.36-.22,16.74-.17,25.1,0,3,.05,3.86-.92,3.86-3.86q-.11-80.85,0-161.69c0-3.07-1.12-3.77-3.94-3.72-9,.16-18,.23-27,.05-3.09-.07-4.68,1.1-6,3.74-8.34,16.14-16.82,32.21-25.27,48.29C712.08,380.82,704.61,395,696.6,410.19ZM1089.21,423l-.88.28c-.74-.8-1.52-1.55-2.2-2.4Q1067,396.7,1047.8,372.54q-22-27.66-44.14-55.2a8,8,0,0,0-5.25-2.51c-6.22-.33-12.48,0-18.72-.26-2.89-.1-3.62,1-3.58,3.67.13,8.48,0,17,0,25.45q0,67.74-.07,135.48c0,3.52.84,4.82,4.55,4.68,7.36-.27,14.74-.05,22.1-.09,7,0,6.53.85,6.53-6.33q0-47.91,0-95.81c0-1.38.13-2.77.25-5.1,4.4,5.4,8.13,9.89,11.78,14.45q36.3,45.18,72.64,90.31a7.1,7.1,0,0,0,4.69,2.24c6.36.29,12.75,0,19.1.29,3.57.17,4.74-.87,4.7-4.55-.17-18-.07-35.93-.07-53.89q0-53.14.05-106.29c0-3.17-.76-4.42-4.17-4.32-8,.24-16,.07-24,.08-4.91,0-4.92,0-4.93,4.9q-.06,49.41-.13,98.8Zm180.92-.11-1.21.61a6.8,6.8,0,0,0-.67-1.35q-13.57-17.13-27.19-34.24-28.08-35.26-56.27-70.43a8,8,0,0,0-5.23-2.6c-6.23-.34-12.49-.07-18.73-.25-2.74-.07-3.68.79-3.68,3.62q.11,80.87,0,161.72c0,2.95,1,3.94,3.93,3.89,8.11-.13,16.24-.25,24.35.05,3.94.14,4.78-1.28,4.76-4.94-.11-32.45,0-64.89,0-97.33,0-1.31.12-2.61.22-4.63a27.28,27.28,0,0,1,2.61,2.37q8.7,10.76,17.34,21.55Q1242.57,441,1274.88,481a8.1,8.1,0,0,0,5.32,2.53c6.23.35,12.49,0,18.73.31,3.42.15,4.58-.9,4.54-4.41-.16-15.84-.07-31.69-.07-47.54V319.93c0-5.08,0-5.09-5.2-5.09h-22.48c-5.13,0-5.14,0-5.15,5.21q-.12,49.05-.24,98.08C1270.33,419.7,1270.2,421.27,1270.13,422.84Zm-1069.9-2.55c2.83-1.73,5.15-3,7.27-4.46a54.74,54.74,0,0,0,20-61.42c-7.7-23.67-27.29-39.21-50.77-39.56-23.85-.36-47.71-.14-71.57-.28-2.65,0-3.42.89-3.41,3.46q.08,81,0,162.07c0,3.1,1.21,3.77,4,3.72,8.24-.14,16.49-.21,24.73,0,3.44.09,4.5-.94,4.47-4.41-.17-16.09,0-32.19-.14-48.28,0-3.15,1-4.06,4-4,7.86.17,15.74.18,23.6-.07,3.41-.11,5.4,1,7.17,4,9.91,16.58,20,33,30.07,49.52,1.08,1.78,2.08,3.13,4.55,3.12,10.49-.05,21,.11,31.47.17a19.14,19.14,0,0,0,2.76-.45Zm214-20.66c-.56-25-9.49-46.42-27.4-63.92a77.75,77.75,0,0,0-88.48-14.28c-45,21.79-61.82,76.88-37.38,120.49,21,37.53,63,52.44,102.44,36.39C393.28,466.14,414.26,433.66,414.19,399.63Zm108.23,21.12h4.47q12.92,0,25.85,0c1.75,0,3.45-.23,3.71,2.45.58,6.17-.35,11.62-5.72,15.61-2.6,1.93-4.89,4.27-7.49,6.21-24.71,18.46-57.1,12.48-72.44-13.88-10.2-17.52-10.68-36.27-4.24-55.24,3.85-11.33,10.7-20.65,21-26.83,19.33-11.56,44.51-7.1,59.38,10.26,2.38,2.78,4.38,5.89,6.72,9.06,7.65-5.65,15.09-11.09,22.4-16.68a3.15,3.15,0,0,0,.6-3,62,62,0,0,0-18-20.7c-15.87-11.58-33.86-15.4-53.12-13.94-27.6,2.09-48.62,15.39-63.24,38.58-12.44,19.72-15.64,41.47-10.92,64,6.8,32.51,25.21,55.61,57.89,65.08,23.05,6.68,44.48,2.74,63-13.4.94-.82,2-1.51,3-2.25l1.07.46c0,4.58.07,9.15,0,13.73-.05,2.56,1,3.55,3.57,3.5,6.36-.11,12.74-.23,19.1.05,3.76.17,4.62-1.3,4.59-4.77-.15-16-.07-31.93-.07-47.9,0-10.23,0-20.46,0-30.69,0-2.07-.18-3.67-2.92-3.67-18.48.06-37,0-55.45.12-.92,0-2.6,1.35-2.63,2.1C522.34,406.12,522.42,413.2,522.42,420.75ZM-23.46,393.92c-.1-2.32-.21-3.62-.21-4.92,0-23.33-.09-46.65,0-70,0-3.26-.92-4.34-4.25-4.25-8.36.21-16.73.18-25.09,0-3-.07-3.89,1-3.85,3.85.14,9.23.05,18.46.05,27.69q0,66.42,0,132.85c0,3.08.31,4.83,4.16,4.69,8.23-.29,16.49-.23,24.72,0,3.28.08,4.34-.9,4.29-4.22-.19-12.73.23-25.46-.29-38.17-.25-6.16,1.38-10.69,6-14.66,5.57-4.74,10.75-10,16.17-15,.43.58,1.27,1.64,2.06,2.74q23.82,33,47.6,66.14a6.4,6.4,0,0,0,5.86,3c9.49-.05,19,.13,28.47.19,1.28,0,2.57-.13,4.62-.25-1.1-1.71-1.69-2.75-2.39-3.71q-31.81-43.4-63.7-86.75c-1.9-2.58-1.85-4.25.32-6.73q29-33.23,57.8-66.69c1.25-1.45,2.41-3,4.07-5.06-2.06-.11-3.26-.24-4.47-.23-9.24.06-18.48.26-27.72.17a8,8,0,0,0-6.7,3.14Q14,352.05-16.32,386.18C-18.42,388.56-20.62,390.85-23.46,393.92Zm981.13,89.81c-.58-2-.85-3.35-1.33-4.6-6.67-17.51-13.4-35-20.06-52.51q-20.78-54.54-41.44-109.1a3.8,3.8,0,0,0-4.15-2.87c-5.37.08-10.74,0-16.11,0-9.71,0-9.75,0-13.21,9Q831.46,401.82,801.56,480c-1,2.63-.72,4,2.52,3.93q13.5-.19,27-.13c2.67,0,3.66-1.39,4.45-3.61,4.2-11.71,8.55-23.36,12.72-35.08,1-2.7,2.33-3.77,5.4-3.74,16.86.18,33.73.21,50.59,0,3.46,0,4.71,1.38,5.75,4.28,4.14,11.59,8.5,23.1,12.71,34.68.93,2.56,2.36,3.69,5.25,3.5,4.1-.26,8.24-.06,12.36,0Z" transform="translate(100 -58)"/><path d="M234,280.17H-92.47c-5.63,0-5.63,0-5.63-5.66V64.87c0-5.56,0-5.57,5.39-5.57H560.54c5.58,0,5.6,0,5.6,5.57V275.26c0,4.9,0,4.91-5,4.91Zm165.62-25.33c-.86-1.6-1.38-2.7-2-3.73q-17.13-28.25-34.3-56.46c-1.44-2.35-1.73-3.58,1.14-5.16,16.4-9,24.46-23.58,26.67-41.7,3.47-28.47-19.39-62.82-56.4-61.93-22.21.54-44.45,0-66.68,0-4.87,0-4.88,0-4.88,5q0,79.71,0,159.41c0,1.47.16,2.93.27,4.75,9.77,0,19.24-.14,28.71.08,3.34.08,4.23-.95,4.2-4.21-.15-15.84-.07-31.68-.07-47.52v-4.61c1.66-.11,2.87-.24,4.08-.24,8-.05,16,0,24-.16,3-.08,4.71.9,6.27,3.49q15,25,30.33,49.78c.82,1.33,2.36,3.13,3.6,3.16C376,254.94,387.46,254.84,399.58,254.84ZM244.49,255a26.29,26.29,0,0,0-.8-3.72c-4.2-11.13-8.46-22.25-12.7-33.38q-24.53-64.24-49-128.52c-1.06-2.79-2.53-3.57-5.24-3.53-7.12.11-14.24.18-21.35,0-2.9-.09-4.3,1-5.22,3.58-1.71,4.81-3.63,9.53-5.44,14.3q-26.12,68.4-52.21,136.81c-1.75,4.6-3.39,9.23-5.24,14.26,1.78.11,2.87.24,4,.24,8.74,0,17.48-.16,26.22,0,2.76,0,4-1.06,4.91-3.48,4.19-11.71,8.51-23.37,12.68-35.08,1-2.84,2.52-4,5.73-4,16.61.18,33.23.22,49.84,0,3.76,0,5.19,1.4,6.34,4.64,4.11,11.6,8.52,23.1,12.73,34.67.9,2.47,2.35,3.28,5,3.23,8.49-.15,17,0,25.48,0ZM57.16,138.87c7.32-5,14.69-10.14,22.11-15.17,1.92-1.3,2.26-2.5,1-4.59A66.86,66.86,0,0,0,55.08,94.62C38.3,85.44,20.42,83.46,1.75,86.36c-16.81,2.62-31.4,9.71-43.32,21.81C-67.32,134.31-74,171.88-58.93,205.32c8.81,19.58,22.34,35.06,42.12,43.73,29.59,13,57.57,7.95,83.48-10.28a49,49,0,0,0,17.31-22L57.75,201.69c-3.29,4.45-5.77,8.89-9.26,12.31a46.24,46.24,0,0,1-67.11-2.69c-17.26-19.53-19.94-49.83-6.52-73.76,16.62-29.62,54.74-28.88,72.7-11.09C51.13,130,53.8,134.47,57.16,138.87ZM421,170.42q0,40.23,0,80.48c0,2.6.32,4.11,3.59,4.1q56-.15,112.05,0c2.9,0,3.6-1,3.54-3.73-.15-6.86-.29-13.74,0-20.58.19-3.92-1.17-4.8-4.87-4.78-25.23.15-50.46.08-75.69.08-5.75,0-5.75,0-5.75-5.64q0-65,.06-129.89c0-3.51-.89-4.85-4.61-4.73-7.86.26-15.74.28-23.6,0-3.92-.14-4.82,1.31-4.8,5C421,117.26,421,143.84,421,170.42Z" transform="translate(100 -58)"/><path class="cls-1" d="M696.6,410.19c8-15.21,15.48-29.37,22.92-43.55,8.45-16.08,16.93-32.15,25.27-48.29,1.36-2.64,3-3.81,6-3.74,9,.18,18,.11,27-.05,2.82-.05,3.94.65,3.94,3.72q-.12,80.85,0,161.69c0,2.94-.91,3.91-3.86,3.86-8.36-.16-16.74-.21-25.1,0-3.45.1-4.15-1.22-4.14-4.36.06-33.31,0-66.62,0-99.93v-4l-.91-.34c-2,3.68-4.05,7.34-6,11.05q-17.36,33-34.65,66c-1.12,2.15-2.48,3.07-5,2.92a100.87,100.87,0,0,0-10.86,0c-2.57.12-4-.78-5.23-3.14-12.62-24.24-25.39-48.4-38.12-72.58a9.47,9.47,0,0,0-3-3.61c-.13,1.5-.37,3-.38,4.51q-.12,49-.21,98.06c0,5.34,0,5.35-5.36,5.35-7.87,0-15.74-.09-23.61.05-2.93.05-3.94-1-3.93-3.91q.07-80.85,0-161.7c0-2.79.94-3.68,3.7-3.63q14,.23,28.1.06c2.66,0,4,1,5.15,3.33q22.49,43.39,45.14,86.71C694.26,406.27,695.22,407.8,696.6,410.19Z" transform="translate(100 -58)"/><path class="cls-1" d="M1089.21,423v-4.41q.07-49.4.13-98.8c0-4.89,0-4.9,4.93-4.9,8,0,16,.16,24-.08,3.41-.1,4.18,1.15,4.17,4.32q-.14,53.15-.05,106.29c0,18-.1,35.93.07,53.89,0,3.68-1.13,4.72-4.7,4.55-6.35-.3-12.74,0-19.1-.29a7.1,7.1,0,0,1-4.69-2.24q-36.42-45.07-72.64-90.31c-3.65-4.56-7.38-9.05-11.78-14.45-.12,2.33-.25,3.72-.25,5.1q0,47.91,0,95.81c0,7.18.49,6.31-6.53,6.33-7.36,0-14.74-.18-22.1.09-3.71.14-4.56-1.16-4.55-4.68q.15-67.74.07-135.48c0-8.48.08-17,0-25.45,0-2.69.69-3.77,3.58-3.67,6.24.22,12.5-.07,18.72.26a8,8,0,0,1,5.25,2.51q22.22,27.48,44.14,55.2,19.18,24.12,38.33,48.29c.68.85,1.46,1.6,2.2,2.4Z" transform="translate(100 -58)"/><path class="cls-1" d="M1270.13,422.84c.07-1.57.2-3.14.2-4.71q.14-49,.24-98.08c0-5.2,0-5.21,5.15-5.21h22.48c5.19,0,5.2,0,5.2,5.09V431.86c0,15.85-.09,31.7.07,47.54,0,3.51-1.12,4.56-4.54,4.41-6.24-.28-12.5,0-18.73-.31a8.1,8.1,0,0,1-5.32-2.53q-32.4-39.95-64.53-80.09-8.65-10.78-17.34-21.55a27.28,27.28,0,0,0-2.61-2.37c-.1,2-.21,3.32-.22,4.63,0,32.44-.1,64.88,0,97.33,0,3.66-.82,5.08-4.76,4.94-8.11-.3-16.24-.18-24.35-.05-2.91.05-3.93-.94-3.93-3.89q.11-80.87,0-161.72c0-2.83.94-3.69,3.68-3.62,6.24.18,12.5-.09,18.73.25a8,8,0,0,1,5.23,2.6q28.28,35.1,56.27,70.43,13.62,17.1,27.19,34.24a6.8,6.8,0,0,1,.67,1.35Z" transform="translate(100 -58)"/><path class="cls-1" d="M200.23,420.29l38.27,63.12a19.14,19.14,0,0,1-2.76.45c-10.49-.06-21-.22-31.47-.17-2.47,0-3.47-1.34-4.55-3.12-10-16.51-20.16-32.94-30.07-49.52-1.77-3-3.76-4.07-7.17-4-7.86.25-15.74.24-23.6.07-3.09-.06-4.08.85-4,4,.14,16.09,0,32.19.14,48.28,0,3.47-1,4.5-4.47,4.41-8.24-.24-16.49-.17-24.73,0-2.79.05-4-.62-4-3.72q.12-81,0-162.07c0-2.57.76-3.47,3.41-3.46,23.86.14,47.72-.08,71.57.28,23.48.35,43.07,15.89,50.77,39.56a54.74,54.74,0,0,1-20,61.42C205.38,417.33,203.06,418.56,200.23,420.29ZM134.9,370.63c0,8,0,16,0,24,0,2.39.51,3.69,3.3,3.67,12.37-.09,24.74.11,37.1-.05,7.39-.09,13-3.48,17-9.81,4.37-6.89,5.54-14.44,4.47-22.26-1.63-11.91-10.74-23-24.93-22.7-11.11.25-22.24.14-33.35,0-2.79,0-3.72.81-3.67,3.61C135,354.91,134.9,362.77,134.9,370.63Z" transform="translate(100 -58)"/><path class="cls-1" d="M414.19,399.63c.07,34-20.91,66.51-50.82,78.68-39.44,16.05-81.4,1.14-102.44-36.39-24.44-43.61-7.64-98.7,37.38-120.49a77.75,77.75,0,0,1,88.48,14.28C404.7,353.21,413.63,374.66,414.19,399.63Zm-76.95-56.56c-19.18,0-31,4.89-39.69,15.5-16.62,20.25-18.69,43.07-9.2,66.76,6.73,16.82,19.24,27.83,38,29.9,19.45,2.15,34.94-5.14,45.17-21.74,11.93-19.38,13.14-40.14,4-60.88C367.34,353.91,352.82,343.44,337.24,343.07Z" transform="translate(100 -58)"/><path class="cls-1" d="M522.42,420.75c0-7.55-.08-14.63.12-21.71,0-.75,1.71-2.09,2.63-2.1,18.48-.12,37-.06,55.45-.12,2.74,0,2.93,1.6,2.92,3.67,0,10.23,0,20.46,0,30.69,0,16-.08,31.94.07,47.9,0,3.47-.83,4.94-4.59,4.77-6.36-.28-12.74-.16-19.1-.05-2.58.05-3.62-.94-3.57-3.5.09-4.58,0-9.15,0-13.73l-1.07-.46c-1,.74-2.07,1.43-3,2.25-18.52,16.14-39.95,20.08-63,13.4-32.68-9.47-51.09-32.57-57.89-65.08-4.72-22.55-1.52-44.3,10.92-64,14.62-23.19,35.64-36.49,63.24-38.58,19.26-1.46,37.25,2.36,53.12,13.94a62,62,0,0,1,18,20.7,3.15,3.15,0,0,1-.6,3c-7.31,5.59-14.75,11-22.4,16.68-2.34-3.17-4.34-6.28-6.72-9.06-14.87-17.36-40.05-21.82-59.38-10.26-10.33,6.18-17.18,15.5-21,26.83-6.44,19-6,37.72,4.24,55.24,15.34,26.36,47.73,32.34,72.44,13.88,2.6-1.94,4.89-4.28,7.49-6.21,5.37-4,6.3-9.44,5.72-15.61-.26-2.68-2-2.45-3.71-2.45q-12.93,0-25.85,0Z" transform="translate(100 -58)"/><path class="cls-1" d="M-23.46,393.92c2.84-3.07,5-5.36,7.14-7.74Q13.9,352,44.08,317.76a8,8,0,0,1,6.7-3.14c9.24.09,18.48-.11,27.72-.17,1.21,0,2.41.12,4.47.23-1.66,2.08-2.82,3.61-4.07,5.06Q50,353.13,21.1,386.43c-2.17,2.48-2.22,4.15-.32,6.73q31.94,43.3,63.7,86.75c.7,1,1.29,2,2.39,3.71-2.05.12-3.34.26-4.62.25-9.49-.06-19-.24-28.47-.19a6.4,6.4,0,0,1-5.86-3Q24.21,447.51.32,414.5c-.79-1.1-1.63-2.16-2.06-2.74-5.42,5.08-10.6,10.29-16.17,15-4.66,4-6.29,8.5-6,14.66.52,12.71.1,25.44.29,38.17.05,3.32-1,4.3-4.29,4.22-8.23-.21-16.49-.27-24.72,0-3.85.14-4.17-1.61-4.16-4.69q.09-66.42,0-132.85c0-9.23.09-18.46-.05-27.69,0-2.9.86-3.92,3.85-3.85,8.36.17,16.73.2,25.09,0,3.33-.09,4.26,1,4.25,4.25-.11,23.33,0,46.65,0,70C-23.67,390.3-23.56,391.6-23.46,393.92Z" transform="translate(100 -58)"/><path class="cls-1" d="M957.67,483.73H940.29c-4.12,0-8.26-.21-12.36,0-2.89.19-4.32-.94-5.25-3.5-4.21-11.58-8.57-23.09-12.71-34.68-1-2.9-2.29-4.32-5.75-4.28-16.86.22-33.73.19-50.59,0-3.07,0-4.44,1-5.4,3.74-4.17,11.72-8.52,23.37-12.72,35.08-.79,2.22-1.78,3.63-4.45,3.61q-13.48-.08-27,.13c-3.24.05-3.53-1.3-2.52-3.93q29.93-78.13,59.81-156.27c3.46-9,3.5-9,13.21-9,5.37,0,10.74.06,16.11,0a3.8,3.8,0,0,1,4.15,2.87q20.64,54.57,41.44,109.1c6.66,17.51,13.39,35,20.06,52.51C956.82,480.38,957.09,481.71,957.67,483.73Zm-102.23-66h46.63c-7.61-21.46-14.7-42.57-22.51-63.42l-1,.32Z" transform="translate(100 -58)"/><path class="cls-1" d="M399.58,254.84c-12.12,0-23.6.1-35.07-.14-1.24,0-2.78-1.83-3.6-3.16q-15.3-24.81-30.33-49.78c-1.56-2.59-3.29-3.57-6.27-3.49-8,.21-16,.11-24,.16-1.21,0-2.42.13-4.08.24v4.61c0,15.84-.08,31.68.07,47.52,0,3.26-.86,4.29-4.2,4.21-9.47-.22-18.94-.08-28.71-.08-.11-1.82-.27-3.28-.27-4.75q0-79.69,0-159.41c0-5,0-5,4.88-5,22.23,0,44.47.59,66.68,0,37-.89,59.87,33.46,56.4,61.93-2.21,18.12-10.27,32.66-26.67,41.7-2.87,1.58-2.58,2.81-1.14,5.16q17.24,28.17,34.3,56.46C398.2,252.14,398.72,253.24,399.58,254.84Zm-103.32-113c0,8.1.05,16.2,0,24.3,0,2.31.59,3.34,3.15,3.32,12.47-.11,24.95.06,37.42-.11,6.94-.1,12.33-3.33,16.23-9.14a31.51,31.51,0,0,0,5-22.45c-1.67-12.4-10.47-23.59-25.61-23.16-10.84.31-21.7.17-32.55.07-2.75,0-3.73.83-3.68,3.62C296.35,126.15,296.26,134,296.26,141.85Z" transform="translate(100 -58)"/><path class="cls-1" d="M244.49,255h-4.27c-8.5,0-17-.17-25.48,0-2.65.05-4.1-.76-5-3.23-4.21-11.57-8.62-23.07-12.73-34.67-1.15-3.24-2.58-4.69-6.34-4.64-16.61.24-33.23.2-49.84,0-3.21,0-4.72,1.13-5.73,4-4.17,11.71-8.49,23.37-12.68,35.08-.86,2.42-2.15,3.52-4.91,3.48-8.74-.14-17.48,0-26.22,0-1.1,0-2.19-.13-4-.24,1.85-5,3.49-9.66,5.24-14.26q26.09-68.41,52.21-136.81c1.81-4.77,3.73-9.49,5.44-14.3.92-2.57,2.32-3.67,5.22-3.58,7.11.21,14.23.14,21.35,0,2.71,0,4.18.74,5.24,3.53q24.35,64.31,49,128.52c4.24,11.13,8.5,22.25,12.7,33.38A26.29,26.29,0,0,1,244.49,255Zm-55.42-66-22.52-63.8-.89.17L142.37,189Z" transform="translate(100 -58)"/><path class="cls-1" d="M57.16,138.87c-3.36-4.4-6-8.86-9.6-12.41-18-17.79-56.08-18.53-72.7,11.09-13.42,23.93-10.74,54.23,6.52,73.76A46.24,46.24,0,0,0,48.49,214c3.49-3.42,6-7.86,9.26-12.31L84,216.77a49,49,0,0,1-17.31,22C40.76,257,12.78,262-16.81,249.05c-19.78-8.67-33.31-24.15-42.12-43.73-15.05-33.44-8.39-71,17.36-97.15C-29.65,96.07-15.06,89,1.75,86.36c18.67-2.9,36.55-.92,53.33,8.26a66.86,66.86,0,0,1,25.17,24.49c1.28,2.09.94,3.29-1,4.59C71.85,128.73,64.48,133.84,57.16,138.87Z" transform="translate(100 -58)"/><path class="cls-1" d="M421,170.42c0-26.58.06-53.16-.07-79.73,0-3.67.88-5.12,4.8-5,7.86.28,15.74.26,23.6,0,3.72-.12,4.62,1.22,4.61,4.73q-.15,64.94-.06,129.89c0,5.64,0,5.64,5.75,5.64,25.23,0,50.46.07,75.69-.08,3.7,0,5.06.86,4.87,4.78-.33,6.84-.19,13.72,0,20.58.06,2.68-.64,3.74-3.54,3.73q-56-.12-112.05,0c-3.27,0-3.6-1.5-3.59-4.1Q421,210.65,421,170.42Z" transform="translate(100 -58)"/><path d="M134.9,370.63c0-7.86.09-15.72-.06-23.58-.05-2.8.88-3.64,3.67-3.61,11.11.14,22.24.25,33.35,0,14.19-.33,23.3,10.79,24.93,22.7,1.07,7.82-.1,15.37-4.47,22.26-4,6.33-9.66,9.72-17,9.81-12.36.16-24.73,0-37.1.05-2.79,0-3.33-1.28-3.3-3.67C135,386.6,134.9,378.62,134.9,370.63Z" transform="translate(100 -58)"/><path d="M337.24,343.07c15.58.37,30.1,10.84,38.29,29.54,9.09,20.74,7.88,41.5-4,60.88-10.23,16.6-25.72,23.89-45.17,21.74-18.72-2.07-31.23-13.08-38-29.9-9.49-23.69-7.42-46.51,9.2-66.76C306.27,348,318.06,343.06,337.24,343.07Z" transform="translate(100 -58)"/><path d="M855.44,417.78l23.13-63.1,1-.32c7.81,20.85,14.9,42,22.51,63.42Z" transform="translate(100 -58)"/><path d="M296.26,141.85c0-7.85.09-15.7-.05-23.55,0-2.79.93-3.65,3.68-3.62,10.85.1,21.71.24,32.55-.07,15.14-.43,23.94,10.76,25.61,23.16a31.51,31.51,0,0,1-5,22.45c-3.9,5.81-9.29,9-16.23,9.14-12.47.17-25,0-37.42.11-2.56,0-3.17-1-3.15-3.32C296.31,158.05,296.26,150,296.26,141.85Z" transform="translate(100 -58)"/><path d="M189.07,189h-46.7l23.29-63.63.89-.17Z" transform="translate(100 -58)"/></svg>